<svg xmlns="http://www.w3.org/2000/svg" viewBox="0 0 375 375">
  <defs>
    <style>
      .cls-1 {
        fill: #ef453a;
      }

      .cls-2 {
        fill: #1351a1;
      }

      .cls-3 {
        fill: #ffd838;
        stroke: #231f20;
        stroke-miterlimit: 10;
        stroke-width: 4px;
      }

      .cls-4 {
        font-size: 51px;
      }

      .cls-4, .cls-5 {
        fill: #fff;
        font-family: RobotoCondensed-Bold, Roboto Condensed;
        font-weight: 700;
      }

      .cls-5 {
        font-size: 70.77px;
      }
    </style>
  </defs>
  <g id="Layer_2" data-name="Layer 2">
    <path class="cls-1" d="M187.5,0c-3.07,0-6.14.07-9.2.23s-6.12.37-9.18.67S163,1.58,160,2s-6.06,1-9.07,1.57-6,1.28-9,2S136,7.18,133.07,8.07s-5.85,1.86-8.74,2.89-5.75,2.14-8.58,3.31-5.64,2.42-8.42,3.73-5.51,2.69-8.22,4.14-5.37,3-8,4.54-5.23,3.21-7.78,4.92-5.06,3.47-7.53,5.3-4.88,3.71-7.25,5.66-4.69,3.95-7,6-4.49,4.18-6.66,6.35-4.29,4.39-6.35,6.66-4.06,4.6-6,7-3.83,4.79-5.66,7.25-3.6,5-5.3,7.53-3.35,5.14-4.92,7.78-3.09,5.3-4.54,8-2.83,5.45-4.14,8.22-2.55,5.58-3.73,8.42S12,121.45,11,124.33s-2,5.81-2.89,8.74S6.36,139,5.62,141.94s-1.42,6-2,9S2.48,157,2,160,1.2,166.07.9,169.12s-.52,6.11-.67,9.18S0,184.43,0,187.5s.07,6.14.23,9.2.37,6.12.67,9.18S1.58,212,2,215s1,6.06,1.57,9.07,1.28,6,2,9,1.56,5.93,2.45,8.87,1.86,5.85,2.89,8.74,2.14,5.75,3.31,8.58,2.42,5.64,3.73,8.42,2.69,5.51,4.14,8.22,3,5.37,4.54,8,3.21,5.23,4.92,7.78,3.47,5.06,5.3,7.53,3.71,4.88,5.66,7.25,3.95,4.69,6,7,4.18,4.49,6.35,6.66,4.39,4.29,6.66,6.35,4.6,4.06,7,6,4.79,3.83,7.25,5.66,5,3.6,7.53,5.3,5.14,3.35,7.78,4.92,5.3,3.09,8,4.54,5.45,2.83,8.22,4.14,5.58,2.55,8.42,3.73,5.7,2.27,8.58,3.31,5.81,2,8.74,2.89,5.89,1.71,8.87,2.45,6,1.42,9,2,6,1.12,9.07,1.57,6.08.83,9.13,1.13,6.11.52,9.18.67,6.13.23,9.2.23,6.14-.07,9.2-.23,6.12-.37,9.18-.67,6.1-.68,9.13-1.13,6.06-1,9.07-1.57,6-1.28,9-2,5.93-1.56,8.87-2.45,5.85-1.86,8.74-2.89,5.75-2.14,8.58-3.31,5.64-2.42,8.42-3.73,5.51-2.69,8.22-4.14,5.37-3,8-4.54,5.23-3.21,7.78-4.92,5.06-3.47,7.53-5.3,4.88-3.71,7.25-5.66,4.69-3.95,7-6,4.49-4.18,6.66-6.35,4.29-4.39,6.35-6.66,4.06-4.6,6-7,3.83-4.79,5.66-7.25,3.6-5,5.3-7.53,3.35-5.14,4.92-7.78,3.09-5.3,4.54-8,2.83-5.45,4.14-8.22,2.55-5.58,3.73-8.42,2.27-5.7,3.31-8.58,2-5.81,2.89-8.74,1.71-5.89,2.45-8.87,1.42-6,2-9,1.12-6,1.57-9.07.83-6.08,1.13-9.13.52-6.11.67-9.18.23-6.13.23-9.2-.07-6.14-.23-9.2-.37-6.12-.67-9.18S373.42,163,373,160s-1-6.06-1.57-9.07-1.28-6-2-9-1.56-5.93-2.45-8.87-1.86-5.85-2.89-8.74-2.14-5.75-3.31-8.58-2.42-5.64-3.73-8.42-2.69-5.51-4.14-8.22-3-5.37-4.54-8-3.21-5.23-4.92-7.78-3.47-5.06-5.3-7.53-3.71-4.88-5.66-7.25-3.95-4.69-6-7-4.18-4.49-6.35-6.66-4.39-4.29-6.66-6.35-4.6-4.06-7-6-4.79-3.83-7.25-5.66-5-3.6-7.53-5.3-5.14-3.35-7.78-4.92-5.3-3.09-8-4.54-5.45-2.83-8.22-4.14-5.58-2.55-8.42-3.73S253.55,12,250.67,11s-5.81-2-8.74-2.89S236,6.36,233.06,5.62s-6-1.42-9-2S218.05,2.48,215,2,208.93,1.2,205.88.9,199.77.38,196.7.23,190.57,0,187.5,0Z"/>
    <path class="cls-2" d="M187.5,81.21c-1.74,0-3.48.05-5.21.13s-3.48.21-5.21.39-3.46.38-5.17.64-3.44.55-5.14.89-3.41.72-5.09,1.14-3.37.89-5,1.39-3.32,1-5,1.64-3.27,1.21-4.87,1.87-3.2,1.38-4.77,2.12-3.13,1.53-4.66,2.35-3.05,1.67-4.54,2.57-3,1.82-4.41,2.79-2.87,2-4.26,3-2.77,2.11-4.12,3.21-2.66,2.24-3.95,3.41-2.55,2.36-3.78,3.59-2.42,2.5-3.59,3.78-2.3,2.61-3.41,3.95-2.17,2.72-3.21,4.12-2,2.81-3,4.26-1.9,2.92-2.79,4.41-1.75,3-2.57,4.54-1.61,3.08-2.35,4.66-1.45,3.16-2.12,4.77-1.28,3.22-1.87,4.87-1.13,3.28-1.64,5-1,3.34-1.39,5-.8,3.38-1.14,5.09-.64,3.41-.89,5.14-.47,3.44-.64,5.17-.3,3.47-.39,5.21-.13,3.47-.13,5.21.05,3.48.13,5.21.21,3.48.39,5.21.38,3.46.64,5.17.55,3.44.89,5.14.72,3.41,1.14,5.09.89,3.37,1.39,5,1,3.32,1.64,5,1.21,3.27,1.87,4.87,1.38,3.2,2.12,4.77,1.53,3.13,2.35,4.66,1.67,3.05,2.57,4.54,1.82,3,2.79,4.41,2,2.87,3,4.26,2.11,2.77,3.21,4.12,2.24,2.66,3.41,3.95,2.36,2.55,3.59,3.78,2.5,2.42,3.78,3.59,2.61,2.3,3.95,3.41,2.72,2.17,4.12,3.21,2.81,2,4.26,3,2.92,1.9,4.41,2.79,3,1.75,4.54,2.57,3.08,1.61,4.66,2.35,3.16,1.45,4.77,2.12,3.22,1.28,4.87,1.87,3.28,1.13,5,1.64,3.34,1,5,1.39,3.38.8,5.09,1.14,3.41.64,5.14.89,3.44.47,5.17.64,3.47.3,5.21.39,3.47.13,5.21.13,3.48-.05,5.21-.13,3.48-.21,5.21-.39,3.46-.38,5.17-.64,3.44-.55,5.14-.89,3.41-.72,5.09-1.14,3.37-.89,5-1.39,3.32-1,5-1.64,3.27-1.21,4.87-1.87,3.2-1.38,4.77-2.12,3.13-1.53,4.66-2.35,3.05-1.67,4.54-2.57,3-1.82,4.41-2.79,2.87-2,4.26-3,2.77-2.11,4.12-3.21,2.66-2.24,3.95-3.41,2.55-2.36,3.78-3.59,2.42-2.5,3.59-3.78,2.3-2.61,3.41-3.95,2.17-2.72,3.21-4.12,2-2.81,3-4.26,1.9-2.92,2.79-4.41,1.75-3,2.57-4.54,1.61-3.08,2.35-4.66,1.45-3.16,2.12-4.77,1.28-3.22,1.87-4.87,1.13-3.28,1.64-5,1-3.34,1.39-5,.8-3.38,1.14-5.09.64-3.41.89-5.14.47-3.44.64-5.17.3-3.47.39-5.21.13-3.47.13-5.21-.05-3.48-.13-5.21-.21-3.48-.39-5.21-.38-3.46-.64-5.17-.55-3.44-.89-5.14-.72-3.41-1.14-5.09-.89-3.37-1.39-5-1-3.32-1.64-5-1.21-3.27-1.87-4.87-1.38-3.2-2.12-4.77-1.53-3.13-2.35-4.66-1.67-3.05-2.57-4.54-1.82-3-2.79-4.41-2-2.87-3-4.26-2.11-2.77-3.21-4.12-2.24-2.66-3.41-3.95-2.36-2.55-3.59-3.78-2.5-2.42-3.78-3.59-2.61-2.3-3.95-3.41-2.72-2.17-4.12-3.21-2.81-2-4.26-3-2.92-1.9-4.41-2.79-3-1.75-4.54-2.57-3.08-1.61-4.66-2.35-3.16-1.45-4.77-2.12S225,88,223.3,87.43s-3.28-1.13-5-1.64-3.34-1-5-1.39-3.38-.8-5.09-1.14-3.41-.64-5.14-.89-3.44-.47-5.17-.64-3.47-.3-5.21-.39S189.24,81.21,187.5,81.21Z"/>
    <path class="cls-3" d="M260.89,204.79c-19,8.12-37.48,13.49-53.62,15.57-1.74.22-3.45.41-5.11.56l-9.37,37.37,66.43-39.8,1.67-13.7"/>
    <path class="cls-3" d="M204.7,111l-12.86-5L125.4,145.83l37.37,9.37q1.36-2.1,2.93-4.26c9.42-13.23,22.87-27,39-39.92"/>
    <path class="cls-3" d="M284.08,127.18a23.07,23.07,0,1,1,31.65,7.94A23.09,23.09,0,0,1,284.08,127.18Zm-21.55,64.13A302,302,0,0,0,292,175.79c22.71-13.61,42.56-34.25,59-61.33,1.72-2.84,3.4-5.73,5-8.6A234.41,234.41,0,0,0,369.86,75.8a234.8,234.8,0,0,0-33.07-1.9c-3.27,0-6.61.14-9.93.32-31.63,1.69-59.18,9.44-81.91,23.06a297.8,297.8,0,0,0-27.59,18.66c-.93.7-1.86,1.41-2.77,2.12a221.74,221.74,0,0,0-31.38,29.47c-2.94,3.42-5.63,6.83-8,10.19-.5.7-1,1.39-1.45,2.07l29.54,49.3,2.5-.3c4.11-.53,8.39-1.29,12.8-2.28a221.21,221.21,0,0,0,40.78-13.76c1.06-.47,2.12-1,3.18-1.44"/>
    <path class="cls-3" d="M313.66,109.46a11.41,11.41,0,1,0-3.92,15.65,11.43,11.43,0,0,0,3.92-15.65"/>
    <path class="cls-3" d="M185.68,202.43l-15-25-13.43,8,15,25,13.43-8"/>
    <path class="cls-3" d="M61.61,229.18l6,10L124.68,205l-6-10L61.61,229.18"/>
    <path class="cls-3" d="M27.25,273.55l6,10,115.67-69.3-6-10L27.25,273.55"/>
    <path class="cls-3" d="M64.88,274.79l6,10L145.66,240l-6-10L64.88,274.79"/>
  </g>
  <g id="Layer_3" data-name="Layer 3">
    <text class="cls-4" transform="matrix(0.82, 0.57, -0.57, 0.82, 76.93, 310.44)">W</text>
    <text class="cls-4" transform="matrix(0.92, 0.38, -0.38, 0.92, 112.3, 333.71)">e</text>
    <text class="cls-4" transform="translate(138.72 344.3) rotate(12.3)">b</text>
    <text class="cls-4" transform="translate(166.42 349.68) rotate(4.76)"> </text>
    <text class="cls-4" transform="matrix(1, -0.06, 0.06, 1, 181.39, 351.33)">&amp;</text>
    <text class="cls-4" transform="translate(214.08 348.44) rotate(-11.9)"> </text>
    <text class="cls-4" transform="matrix(0.93, -0.38, 0.38, 0.93, 229.89, 345.96)">M</text>
    <text class="cls-4" transform="matrix(0.82, -0.57, 0.57, 0.82, 269.82, 328.12)">a</text>
    <text class="cls-4" transform="matrix(0.73, -0.69, 0.69, 0.73, 291.86, 312.06)">r</text>
    <text class="cls-4" transform="matrix(0.62, -0.78, 0.78, 0.62, 306.59, 298.19)">k</text>
    <text class="cls-4" transform="translate(323.58 276.24) rotate(-61.4)">e</text>
    <text class="cls-4" transform="translate(336.33 251.73) rotate(-69.6)">t</text>
    <text class="cls-4" transform="matrix(0.25, -0.97, 0.97, 0.25, 342.42, 234.79)">i</text>
    <text class="cls-4" transform="matrix(0.12, -0.99, 0.99, 0.12, 346.62, 219.41)">n</text>
    <text class="cls-4" transform="translate(349.71 190.44) rotate(-93.41)">g</text>
    <text class="cls-5" transform="matrix(0.02, -1, 1, 0.02, 61.35, 201.82)">L</text>
    <text class="cls-5" transform="translate(61.67 170.68) rotate(-74.7)">a</text>
    <text class="cls-5" transform="matrix(0.5, -0.87, 0.87, 0.5, 69.28, 141.15)">u</text>
    <text class="cls-5" transform="translate(84.78 113.22) rotate(-45.75)">n</text>
    <text class="cls-5" transform="matrix(0.85, -0.53, 0.53, 0.85, 106.96, 90.15)">c</text>
    <text class="cls-5" transform="matrix(0.95, -0.3, 0.3, 0.95, 132.03, 74.1)">h</text>
    <text class="cls-5" transform="translate(162.42 64.24) rotate(-3.03)">e</text>
    <text class="cls-5" transform="translate(193.39 62.15) rotate(11.34)">d</text>
    <text class="cls-5" transform="matrix(0.92, 0.38, -0.38, 0.92, 225.33, 69.15)">!</text>
  </g>
</svg>
