  0
SECTION
  2
HEADER
  9
$ACADVER
  1
AC1032
  9
$ACADMAINTVER
 90
      155
  9
$DWGCODEPAGE
  3
ANSI_1252
  9
$REQUIREDVERSIONS
160
                 0
  9
$INSBASE
 10
0.0
 20
0.0
 30
0.0
  9
$EXTMIN
 10
1.000000000000000E+20
 20
1.000000000000000E+20
 30
1.000000000000000E+20
  9
$EXTMAX
 10
-1.000000000000000E+20
 20
-1.000000000000000E+20
 30
-1.000000000000000E+20
  9
$LIMMIN
 10
0.0
 20
0.0
  9
$LIMMAX
 10
12.0
 20
9.0
  9
$ORTHOMODE
 70
     0
  9
$REGENMODE
 70
     1
  9
$FILLMODE
 70
     1
  9
$QTEXTMODE
 70
     0
  9
$MIRRTEXT
 70
     0
  9
$LTSCALE
 40
1.0
  9
$ATTMODE
 70
     1
  9
$TEXTSIZE
 40
0.2
  9
$TRACEWID
 40
0.05
  9
$TEXTSTYLE
  7
Standard
  9
$CLAYER
  8
0
  9
$CELTYPE
  6
ByLayer
  9
$CECOLOR
 62
   256
  9
$CELTSCALE
 40
1.0
  9
$DISPSILH
 70
     0
  9
$DIMSCALE
 40
1.0
  9
$DIMASZ
 40
0.18
  9
$DIMEXO
 40
0.0625
  9
$DIMDLI
 40
0.38
  9
$DIMRND
 40
0.0
  9
$DIMDLE
 40
0.0
  9
$DIMEXE
 40
0.18
  9
$DIMTP
 40
0.0
  9
$DIMTM
 40
0.0
  9
$DIMTXT
 40
0.18
  9
$DIMCEN
 40
0.09
  9
$DIMTSZ
 40
0.0
  9
$DIMTOL
 70
     0
  9
$DIMLIM
 70
     0
  9
$DIMTIH
 70
     1
  9
$DIMTOH
 70
     1
  9
$DIMSE1
 70
     0
  9
$DIMSE2
 70
     0
  9
$DIMTAD
 70
     0
  9
$DIMZIN
 70
     0
  9
$DIMBLK
  1

  9
$DIMASO
 70
     1
  9
$DIMSHO
 70
     1
  9
$DIMPOST
  1

  9
$DIMAPOST
  1

  9
$DIMALT
 70
     0
  9
$DIMALTD
 70
     2
  9
$DIMALTF
 40
25.4
  9
$DIMLFAC
 40
1.0
  9
$DIMTOFL
 70
     0
  9
$DIMTVP
 40
0.0
  9
$DIMTIX
 70
     0
  9
$DIMSOXD
 70
     0
  9
$DIMSAH
 70
     0
  9
$DIMBLK1
  1

  9
$DIMBLK2
  1

  9
$DIMSTYLE
  2
Standard
  9
$DIMCLRD
 70
     0
  9
$DIMCLRE
 70
     0
  9
$DIMCLRT
 70
     0
  9
$DIMTFAC
 40
1.0
  9
$DIMGAP
 40
0.09
  9
$DIMJUST
 70
     0
  9
$DIMSD1
 70
     0
  9
$DIMSD2
 70
     0
  9
$DIMTOLJ
 70
     1
  9
$DIMTZIN
 70
     0
  9
$DIMALTZ
 70
     0
  9
$DIMALTTZ
 70
     0
  9
$DIMUPT
 70
     0
  9
$DIMDEC
 70
     4
  9
$DIMTDEC
 70
     4
  9
$DIMALTU
 70
     2
  9
$DIMALTTD
 70
     2
  9
$DIMTXSTY
  7
Standard
  9
$DIMAUNIT
 70
     0
  9
$DIMADEC
 70
     0
  9
$DIMALTRND
 40
0.0
  9
$DIMAZIN
 70
     0
  9
$DIMDSEP
 70
    46
  9
$DIMATFIT
 70
     3
  9
$DIMFRAC
 70
     0
  9
$DIMLDRBLK
  1

  9
$DIMLUNIT
 70
     2
  9
$DIMLWD
 70
    -2
  9
$DIMLWE
 70
    -2
  9
$DIMTMOVE
 70
     0
  9
$DIMFXL
 40
1.0
  9
$DIMFXLON
 70
     0
  9
$DIMJOGANG
 40
0.7853981633974483
  9
$DIMTFILL
 70
     0
  9
$DIMTFILLCLR
 70
     0
  9
$DIMARCSYM
 70
     0
  9
$DIMLTYPE
  6

  9
$DIMLTEX1
  6

  9
$DIMLTEX2
  6

  9
$DIMTXTDIRECTION
 70
     0
  9
$LUNITS
 70
     2
  9
$LUPREC
 70
     4
  9
$SKETCHINC
 40
0.1
  9
$FILLETRAD
 40
0.0
  9
$AUNITS
 70
     0
  9
$AUPREC
 70
     0
  9
$MENU
  1
.
  9
$ELEVATION
 40
0.0
  9
$PELEVATION
 40
0.0
  9
$THICKNESS
 40
0.0
  9
$LIMCHECK
 70
     0
  9
$CHAMFERA
 40
0.0
  9
$CHAMFERB
 40
0.0
  9
$CHAMFERC
 40
0.0
  9
$CHAMFERD
 40
0.0
  9
$SKPOLY
 70
     0
  9
$TDCREATE
 40
2459393.493206019
  9
$TDUCREATE
 40
2459393.701539352
  9
$TDUPDATE
 40
2459393.493206019
  9
$TDUUPDATE
 40
2459393.701539352
  9
$TDINDWG
 40
0.0000000000
  9
$TDUSRTIMER
 40
0.0000000000
  9
$USRTIMER
 70
     1
  9
$ANGBASE
 50
0.0
  9
$ANGDIR
 70
     0
  9
$PDMODE
 70
     0
  9
$PDSIZE
 40
0.0
  9
$PLINEWID
 40
0.0
  9
$SPLFRAME
 70
     0
  9
$SPLINETYPE
 70
     6
  9
$SPLINESEGS
 70
     8
  9
$HANDSEED
  5
D4
  9
$SURFTAB1
 70
     6
  9
$SURFTAB2
 70
     6
  9
$SURFTYPE
 70
     6
  9
$SURFU
 70
     6
  9
$SURFV
 70
     6
  9
$UCSBASE
  2

  9
$UCSNAME
  2

  9
$UCSORG
 10
0.0
 20
0.0
 30
0.0
  9
$UCSXDIR
 10
1.0
 20
0.0
 30
0.0
  9
$UCSYDIR
 10
0.0
 20
1.0
 30
0.0
  9
$UCSORTHOREF
  2

  9
$UCSORTHOVIEW
 70
     0
  9
$UCSORGTOP
 10
0.0
 20
0.0
 30
0.0
  9
$UCSORGBOTTOM
 10
0.0
 20
0.0
 30
0.0
  9
$UCSORGLEFT
 10
0.0
 20
0.0
 30
0.0
  9
$UCSORGRIGHT
 10
0.0
 20
0.0
 30
0.0
  9
$UCSORGFRONT
 10
0.0
 20
0.0
 30
0.0
  9
$UCSORGBACK
 10
0.0
 20
0.0
 30
0.0
  9
$PUCSBASE
  2

  9
$PUCSNAME
  2

  9
$PUCSORG
 10
0.0
 20
0.0
 30
0.0
  9
$PUCSXDIR
 10
1.0
 20
0.0
 30
0.0
  9
$PUCSYDIR
 10
0.0
 20
1.0
 30
0.0
  9
$PUCSORTHOREF
  2

  9
$PUCSORTHOVIEW
 70
     0
  9
$PUCSORGTOP
 10
0.0
 20
0.0
 30
0.0
  9
$PUCSORGBOTTOM
 10
0.0
 20
0.0
 30
0.0
  9
$PUCSORGLEFT
 10
0.0
 20
0.0
 30
0.0
  9
$PUCSORGRIGHT
 10
0.0
 20
0.0
 30
0.0
  9
$PUCSORGFRONT
 10
0.0
 20
0.0
 30
0.0
  9
$PUCSORGBACK
 10
0.0
 20
0.0
 30
0.0
  9
$USERI1
 70
     0
  9
$USERI2
 70
     0
  9
$USERI3
 70
     0
  9
$USERI4
 70
     0
  9
$USERI5
 70
     0
  9
$USERR1
 40
0.0
  9
$USERR2
 40
0.0
  9
$USERR3
 40
0.0
  9
$USERR4
 40
0.0
  9
$USERR5
 40
0.0
  9
$WORLDVIEW
 70
     1
  9
$SHADEDGE
 70
     3
  9
$SHADEDIF
 70
    70
  9
$TILEMODE
 70
     1
  9
$MAXACTVP
 70
    64
  9
$PINSBASE
 10
0.0
 20
0.0
 30
0.0
  9
$PLIMCHECK
 70
     0
  9
$PEXTMIN
 10
1.000000000000000E+20
 20
1.000000000000000E+20
 30
1.000000000000000E+20
  9
$PEXTMAX
 10
-1.000000000000000E+20
 20
-1.000000000000000E+20
 30
-1.000000000000000E+20
  9
$PLIMMIN
 10
0.0
 20
0.0
  9
$PLIMMAX
 10
12.0
 20
9.0
  9
$UNITMODE
 70
     0
  9
$VISRETAIN
 70
     1
  9
$PLINEGEN
 70
     0
  9
$PSLTSCALE
 70
     1
  9
$TREEDEPTH
 70
  3020
  9
$CMLSTYLE
  2
Standard
  9
$CMLJUST
 70
     0
  9
$CMLSCALE
 40
1.0
  9
$PROXYGRAPHICS
 70
     1
  9
$MEASUREMENT
 70
     0
  9
$CELWEIGHT
370
    -1
  9
$ENDCAPS
280
     0
  9
$JOINSTYLE
280
     0
  9
$LWDISPLAY
290
     1
  9
$INSUNITS
 70
     0
  9
$HYPERLINKBASE
  1

  9
$STYLESHEET
  1

  9
$XEDIT
290
     1
  9
$CEPSNTYPE
380
     0
  9
$PSTYLEMODE
290
     1
  9
$FINGERPRINTGUID
  2
{1A762851-AFBA-E948-8DEE-69904075A8C0}
  9
$VERSIONGUID
  2
{6E0C4D15-3610-6A47-9CEF-80FB4677B975}
  9
$EXTNAMES
290
     1
  9
$PSVPSCALE
 40
0.0
  9
$OLESTARTUP
290
     0
  9
$SORTENTS
280
   127
  9
$INDEXCTL
280
     0
  9
$HIDETEXT
280
     1
  9
$XCLIPFRAME
280
     2
  9
$HALOGAP
280
     0
  9
$OBSCOLOR
 70
   257
  9
$OBSLTYPE
280
     0
  9
$INTERSECTIONDISPLAY
280
     0
  9
$INTERSECTIONCOLOR
 70
   257
  9
$DIMASSOC
280
     2
  9
$PROJECTNAME
  1

  9
$CAMERADISPLAY
290
     0
  9
$LENSLENGTH
 40
50.0
  9
$CAMERAHEIGHT
 40
0.0
  9
$STEPSPERSEC
 40
2.0
  9
$STEPSIZE
 40
6.0
  9
$3DDWFPREC
 40
2.0
  9
$PSOLWIDTH
 40
0.25
  9
$PSOLHEIGHT
 40
4.0
  9
$LOFTANG1
 40
1.570796326794896
  9
$LOFTANG2
 40
1.570796326794896
  9
$LOFTMAG1
 40
0.0
  9
$LOFTMAG2
 40
0.0
  9
$LOFTPARAM
 70
     7
  9
$LOFTNORMALS
280
     1
  9
$LATITUDE
 40
37.795
  9
$LONGITUDE
 40
-122.394
  9
$NORTHDIRECTION
 40
0.0
  9
$TIMEZONE
 70
 -8000
  9
$LIGHTGLYPHDISPLAY
280
     1
  9
$TILEMODELIGHTSYNCH
280
     1
  9
$CMATERIAL
347
11
  9
$SOLIDHIST
280
     0
  9
$SHOWHIST
280
     1
  9
$DWFFRAME
280
     2
  9
$DGNFRAME
280
     0
  9
$REALWORLDSCALE
290
     1
  9
$INTERFERECOLOR
 62
     1
  9
$INTERFEREOBJVS
345
33
  9
$INTERFEREVPVS
346
30
  9
$CSHADOW
280
     0
  9
$SHADOWPLANELOCATION
 40
0.0
  0
ENDSEC
  0
SECTION
  2
CLASSES
  0
CLASS
  1
ACDBDICTIONARYWDFLT
  2
AcDbDictionaryWithDefault
  3
ObjectDBX Classes
 90
        0
 91
        1
280
     0
281
     0
  0
CLASS
  1
MATERIAL
  2
AcDbMaterial
  3
ObjectDBX Classes
 90
     1153
 91
        3
280
     0
281
     0
  0
CLASS
  1
VISUALSTYLE
  2
AcDbVisualStyle
  3
ObjectDBX Classes
 90
     4095
 91
       24
280
     0
281
     0
  0
CLASS
  1
SCALE
  2
AcDbScale
  3
ObjectDBX Classes
 90
     1153
 91
       17
280
     0
281
     0
  0
CLASS
  1
TABLESTYLE
  2
AcDbTableStyle
  3
ObjectDBX Classes
 90
     4095
 91
        1
280
     0
281
     0
  0
CLASS
  1
MLEADERSTYLE
  2
AcDbMLeaderStyle
  3
ACDB_MLEADERSTYLE_CLASS
 90
     4095
 91
        1
280
     0
281
     0
  0
CLASS
  1
ACDBSECTIONVIEWSTYLE
  2
AcDbSectionViewStyle
  3
ObjectDBX Classes
 90
     1025
 91
        1
280
     0
281
     0
  0
CLASS
  1
ACDBDETAILVIEWSTYLE
  2
AcDbDetailViewStyle
  3
ObjectDBX Classes
 90
     1025
 91
        1
280
     0
281
     0
  0
CLASS
  1
DICTIONARYVAR
  2
AcDbDictionaryVar
  3
ObjectDBX Classes
 90
        0
 91
        5
280
     0
281
     0
  0
CLASS
  1
CELLSTYLEMAP
  2
AcDbCellStyleMap
  3
ObjectDBX Classes
 90
     1152
 91
        1
280
     0
281
     0
  0
ENDSEC
  0
SECTION
  2
TABLES
  0
TABLE
  2
VPORT
  5
8
330
0
100
AcDbSymbolTable
 70
     1
  0
VPORT
  5
57
330
8
100
AcDbSymbolTableRecord
100
AcDbViewportTableRecord
  2
*Active
 70
     0
 10
0.0
 20
0.0
 11
1.0
 21
1.0
 12
0.0
 22
0.0
 13
0.0
 23
0.0
 14
1.0
 24
1.0
 15
0.0
 25
0.0
 16
0.0
 26
0.0
 36
1.0
 17
187.5
 27
187.5
 37
0.0
 40
382.5
 41
1.0
 42
50.0
 43
0.0
 44
0.0
 50
0.0
 51
0.0
 71
     0
 72
   100
 73
     1
 74
     0
 75
     1
 76
     0
 77
     0
 78
     0
281
     0
 65
     1
110
0.0
120
0.0
130
0.0
111
1.0
121
0.0
131
0.0
112
0.0
122
1.0
132
0.0
 79
     0
146
0.0
 60
     3
 61
     5
292
     1
282
     1
141
0.0
142
0.0
 63
   250
421
  3355443
  0
ENDTAB
  0
TABLE
  2
LTYPE
  5
5
330
0
100
AcDbSymbolTable
 70
     1
  0
LTYPE
  5
5B
330
5
100
AcDbSymbolTableRecord
100
AcDbLinetypeTableRecord
  2
ByBlock
 70
     0
  3

 72
    65
 73
     0
 40
0.0
  0
LTYPE
  5
5C
330
5
100
AcDbSymbolTableRecord
100
AcDbLinetypeTableRecord
  2
ByLayer
 70
     0
  3

 72
    65
 73
     0
 40
0.0
  0
LTYPE
  5
5D
330
5
100
AcDbSymbolTableRecord
100
AcDbLinetypeTableRecord
  2
Continuous
 70
     0
  3
Solid line
 72
    65
 73
     0
 40
0.0
  0
ENDTAB
  0
TABLE
  2
LAYER
  5
2
330
0
100
AcDbSymbolTable
 70
     3
  0
LAYER
  5
54
330
2
100
AcDbSymbolTableRecord
100
AcDbLayerTableRecord
  2
0
 70
     0
 62
     7
  6
Continuous
370
    -3
390
F
347
21
348
0
  0
LAYER
  5
78
330
2
100
AcDbSymbolTableRecord
100
AcDbLayerTableRecord
  2
Graphic
 70
     0
 62
     7
  6
Continuous
370
     0
390
F
347
21
348
0
  0
LAYER
  5
9A
330
2
100
AcDbSymbolTableRecord
100
AcDbLayerTableRecord
  2
Text on Circle Paths
 70
     0
 62
     7
  6
Continuous
370
     0
390
F
347
21
348
0
  0
ENDTAB
  0
TABLE
  2
STYLE
  5
3
330
0
100
AcDbSymbolTable
 70
    26
  0
STYLE
  5
55
330
3
100
AcDbSymbolTableRecord
100
AcDbTextStyleTableRecord
  2
Standard
 70
     0
 40
0.0
 41
1.0
 50
0.0
 71
     0
 42
0.2
  3
txt
  4

  0
STYLE
  5
5A
330
3
100
AcDbSymbolTableRecord
100
AcDbTextStyleTableRecord
  2
Annotative
 70
     0
 40
0.0
 41
1.0
 50
0.0
 71
     0
 42
0.2
  3
txt
  4

1001
AcadAnnotative
1000
AnnotativeData
1002
{
1070
     1
1070
     1
1002
}
  0
STYLE
  5
9B
330
3
100
AcDbSymbolTableRecord
100
AcDbTextStyleTableRecord
  2
Style0
 70
     0
 40
36.10799968447205
 41
0.99999999126155
 50
0.0
 71
     0
 42
36.10799968447205
  3

  4

  0
STYLE
  5
9D
330
3
100
AcDbSymbolTableRecord
100
AcDbTextStyleTableRecord
  2
Style1
 70
     0
 40
36.1079989986137
 41
0.999999972266913
 50
0.0
 71
     0
 42
36.1079989986137
  3

  4

  0
STYLE
  5
9F
330
3
100
AcDbSymbolTableRecord
100
AcDbTextStyleTableRecord
  2
Style2
 70
     0
 40
36.10800044848971
 41
1.000000012420785
 50
0.0
 71
     0
 42
36.10800044848971
  3

  4

  0
STYLE
  5
A1
330
3
100
AcDbSymbolTableRecord
100
AcDbTextStyleTableRecord
  2
Style3
 70
     0
 40
36.10799950959883
 41
0.99999998641849
 50
0.0
 71
     0
 42
36.10799950959883
  3

  4

  0
STYLE
  5
A3
330
3
100
AcDbSymbolTableRecord
100
AcDbTextStyleTableRecord
  2
Style4
 70
     0
 40
36.10799977129177
 41
0.9999999936659957
 50
0.0
 71
     0
 42
36.10799977129177
  3

  4

  0
STYLE
  5
A5
330
3
100
AcDbSymbolTableRecord
100
AcDbTextStyleTableRecord
  2
Style5
 70
     0
 40
36.10800044219293
 41
1.000000012246398
 50
0.0
 71
     0
 42
36.10800044219293
  3

  4

  0
STYLE
  5
A7
330
3
100
AcDbSymbolTableRecord
100
AcDbTextStyleTableRecord
  2
Style6
 70
     0
 40
36.10799900532186
 41
0.9999999724526935
 50
0.0
 71
     0
 42
36.10799900532186
  3

  4

  0
STYLE
  5
A9
330
3
100
AcDbSymbolTableRecord
100
AcDbTextStyleTableRecord
  2
Style7
 70
     0
 40
36.10800006786508
 41
1.000000001879502
 50
0.0
 71
     0
 42
36.10800006786508
  3

  4

  0
STYLE
  5
AB
330
3
100
AcDbSymbolTableRecord
100
AcDbTextStyleTableRecord
  2
Style8
 70
     0
 40
36.10799981388994
 41
0.9999999948457391
 50
0.0
 71
     0
 42
36.10799981388994
  3

  4

  0
STYLE
  5
AD
330
3
100
AcDbSymbolTableRecord
100
AcDbTextStyleTableRecord
  2
Style9
 70
     0
 40
36.1079996653154
 41
0.9999999907310128
 50
0.0
 71
     0
 42
36.1079996653154
  3

  4

  0
STYLE
  5
AF
330
3
100
AcDbSymbolTableRecord
100
AcDbTextStyleTableRecord
  2
Style10
 70
     0
 40
36.10799982579401
 41
0.9999999951754183
 50
0.0
 71
     0
 42
36.10799982579401
  3

  4

  0
STYLE
  5
B1
330
3
100
AcDbSymbolTableRecord
100
AcDbTextStyleTableRecord
  2
Style11
 70
     0
 40
36.10800006828585
 41
1.000000001891155
 50
0.0
 71
     0
 42
36.10800006828585
  3

  4

  0
STYLE
  5
B3
330
3
100
AcDbSymbolTableRecord
100
AcDbTextStyleTableRecord
  2
Style12
 70
     0
 40
36.10800014007424
 41
1.000000003879313
 50
0.0
 71
     0
 42
36.10800014007424
  3

  4

  0
STYLE
  5
B5
330
3
100
AcDbSymbolTableRecord
100
AcDbTextStyleTableRecord
  2
Style13
 70
     0
 40
36.10800065396926
 41
1.000000018111478
 50
0.0
 71
     0
 42
36.10800065396926
  3

  4

  0
STYLE
  5
B7
330
3
100
AcDbSymbolTableRecord
100
AcDbTextStyleTableRecord
  2
Style14
 70
     0
 40
36.10799975378917
 41
0.9999999931812666
 50
0.0
 71
     0
 42
36.10799975378917
  3

  4

  0
STYLE
  5
B9
330
3
100
AcDbSymbolTableRecord
100
AcDbTextStyleTableRecord
  2
Style15
 70
     0
 40
50.10305699157102
 41
1.000000011877252
 50
0.0
 71
     0
 42
50.10305699157102
  3

  4

  0
STYLE
  5
BB
330
3
100
AcDbSymbolTableRecord
100
AcDbTextStyleTableRecord
  2
Style16
 70
     0
 40
50.10305695368907
 41
1.000000011121171
 50
0.0
 71
     0
 42
50.10305695368907
  3

  4

  0
STYLE
  5
BD
330
3
100
AcDbSymbolTableRecord
100
AcDbTextStyleTableRecord
  2
Style17
 70
     0
 40
50.10305536126864
 41
0.9999999793382718
 50
0.0
 71
     0
 42
50.10305536126864
  3

  4

  0
STYLE
  5
BF
330
3
100
AcDbSymbolTableRecord
100
AcDbTextStyleTableRecord
  2
Style18
 70
     0
 40
50.1030571125473
 41
1.000000014291801
 50
0.0
 71
     0
 42
50.1030571125473
  3

  4

  0
STYLE
  5
C1
330
3
100
AcDbSymbolTableRecord
100
AcDbTextStyleTableRecord
  2
Style19
 70
     0
 40
50.10305527680399
 41
0.9999999776524537
 50
0.0
 71
     0
 42
50.10305527680399
  3

  4

  0
STYLE
  5
C3
330
3
100
AcDbSymbolTableRecord
100
AcDbTextStyleTableRecord
  2
Style20
 70
     0
 40
50.10305550019488
 41
0.9999999821110815
 50
0.0
 71
     0
 42
50.10305550019488
  3

  4

  0
STYLE
  5
C5
330
3
100
AcDbSymbolTableRecord
100
AcDbTextStyleTableRecord
  2
Style21
 70
     0
 40
50.10305696486049
 41
1.00000001134414
 50
0.0
 71
     0
 42
50.10305696486049
  3

  4

  0
STYLE
  5
C7
330
3
100
AcDbSymbolTableRecord
100
AcDbTextStyleTableRecord
  2
Style22
 70
     0
 40
50.10305573891543
 41
0.999999986875672
 50
0.0
 71
     0
 42
50.10305573891543
  3

  4

  0
STYLE
  5
C9
330
3
100
AcDbSymbolTableRecord
100
AcDbTextStyleTableRecord
  2
Style23
 70
     0
 40
50.10305700676518
 41
1.00000001218051
 50
0.0
 71
     0
 42
50.10305700676518
  3

  4

  0
ENDTAB
  0
TABLE
  2
VIEW
  5
6
330
0
100
AcDbSymbolTable
 70
     0
  0
ENDTAB
  0
TABLE
  2
UCS
  5
7
330
0
100
AcDbSymbolTable
 70
     0
  0
ENDTAB
  0
TABLE
  2
APPID
  5
9
330
0
100
AcDbSymbolTable
 70
     2
  0
APPID
  5
56
330
9
100
AcDbSymbolTableRecord
100
AcDbRegAppTableRecord
  2
ACAD
 70
     0
  0
APPID
  5
5E
330
9
100
AcDbSymbolTableRecord
100
AcDbRegAppTableRecord
  2
AcadAnnotative
 70
     0
  0
ENDTAB
  0
TABLE
  2
DIMSTYLE
  5
A
330
0
100
AcDbSymbolTable
 70
     2
100
AcDbDimStyleTable
 71
     0
  0
DIMSTYLE
105
58
330
A
100
AcDbSymbolTableRecord
100
AcDbDimStyleTableRecord
  2
Standard
 70
     0
340
55
  0
DIMSTYLE
105
59
330
A
100
AcDbSymbolTableRecord
100
AcDbDimStyleTableRecord
  2
Annotative
 70
     0
340
55
1001
AcadAnnotative
1000
AnnotativeData
1002
{
1070
     1
1070
     1
1002
}
  0
ENDTAB
  0
TABLE
  2
BLOCK_RECORD
  5
1
330
0
100
AcDbSymbolTable
 70
     4
  0
BLOCK_RECORD
  5
70
330
1
100
AcDbSymbolTableRecord
100
AcDbBlockTableRecord
  2
*Model_Space
340
73
 70
     0
280
     1
281
     0
  0
BLOCK_RECORD
  5
6C
330
1
100
AcDbSymbolTableRecord
100
AcDbBlockTableRecord
  2
*Paper_Space
340
6F
 70
     0
280
     1
281
     0
  0
BLOCK_RECORD
  5
74
330
1
100
AcDbSymbolTableRecord
100
AcDbBlockTableRecord
  2
*Paper_Space0
340
77
 70
     0
280
     1
281
     0
  0
BLOCK_RECORD
  5
79
330
1
100
AcDbSymbolTableRecord
100
AcDbBlockTableRecord
  2
Block_0
340
0
102
{BLKREFS
331
7A
102
}
 70
     0
280
     1
281
     0
  0
BLOCK_RECORD
  5
81
330
1
100
AcDbSymbolTableRecord
100
AcDbBlockTableRecord
  2
Block_1
340
0
102
{BLKREFS
331
82
102
}
 70
     0
280
     1
281
     0
  0
BLOCK_RECORD
  5
90
330
1
100
AcDbSymbolTableRecord
100
AcDbBlockTableRecord
  2
Block_2
340
0
102
{BLKREFS
331
91
102
}
 70
     0
280
     1
281
     0
  0
ENDTAB
  0
ENDSEC
  0
SECTION
  2
BLOCKS
  0
BLOCK
  5
71
330
70
100
AcDbEntity
  8
0
100
AcDbBlockBegin
  2
*Model_Space
 70
     0
 10
0.0
 20
0.0
 30
0.0
  3
*Model_Space
  1

  0
ENDBLK
  5
72
330
70
100
AcDbEntity
  8
0
100
AcDbBlockEnd
  0
BLOCK
  5
6D
330
6C
100
AcDbEntity
 67
     1
  8
0
100
AcDbBlockBegin
  2
*Paper_Space
 70
     0
 10
0.0
 20
0.0
 30
0.0
  3
*Paper_Space
  1

  0
ENDBLK
  5
6E
330
6C
100
AcDbEntity
 67
     1
  8
0
100
AcDbBlockEnd
  0
BLOCK
  5
75
330
74
100
AcDbEntity
 67
     1
  8
0
100
AcDbBlockBegin
  2
*Paper_Space0
 70
     0
 10
0.0
 20
0.0
 30
0.0
  3
*Paper_Space0
  1

  0
ENDBLK
  5
76
330
74
100
AcDbEntity
 67
     1
  8
0
100
AcDbBlockEnd
  0
BLOCK
  5
7B
330
79
100
AcDbEntity
  8
0
100
AcDbBlockBegin
  2
Block_0
 70
     0
 10
0.0
 20
0.0
 30
0.0
  3
Block_0
  1

  0
SPLINE
  5
7D
330
79
100
AcDbEntity
  8
Graphic
100
AcDbSpline
210
0.0
220
0.0
230
1.0
 70
    11
 71
     3
 72
   389
 73
   385
 74
     0
 42
0.0000000001
 43
0.0000000001
 40
0.0
 40
0.0
 40
0.0
 40
0.0
 40
1.0
 40
1.0
 40
1.0
 40
2.0
 40
2.0
 40
2.0
 40
3.0
 40
3.0
 40
3.0
 40
4.0
 40
4.0
 40
4.0
 40
5.0
 40
5.0
 40
5.0
 40
6.0
 40
6.0
 40
6.0
 40
7.0
 40
7.0
 40
7.0
 40
8.0
 40
8.0
 40
8.0
 40
9.0
 40
9.0
 40
9.0
 40
10.0
 40
10.0
 40
10.0
 40
11.0
 40
11.0
 40
11.0
 40
12.0
 40
12.0
 40
12.0
 40
13.0
 40
13.0
 40
13.0
 40
14.0
 40
14.0
 40
14.0
 40
15.0
 40
15.0
 40
15.0
 40
16.0
 40
16.0
 40
16.0
 40
17.0
 40
17.0
 40
17.0
 40
18.0
 40
18.0
 40
18.0
 40
19.0
 40
19.0
 40
19.0
 40
20.0
 40
20.0
 40
20.0
 40
21.0
 40
21.0
 40
21.0
 40
22.0
 40
22.0
 40
22.0
 40
23.0
 40
23.0
 40
23.0
 40
24.0
 40
24.0
 40
24.0
 40
25.0
 40
25.0
 40
25.0
 40
26.0
 40
26.0
 40
26.0
 40
27.0
 40
27.0
 40
27.0
 40
28.0
 40
28.0
 40
28.0
 40
29.0
 40
29.0
 40
29.0
 40
30.0
 40
30.0
 40
30.0
 40
31.0
 40
31.0
 40
31.0
 40
32.0
 40
32.0
 40
32.0
 40
33.0
 40
33.0
 40
33.0
 40
34.0
 40
34.0
 40
34.0
 40
35.0
 40
35.0
 40
35.0
 40
36.0
 40
36.0
 40
36.0
 40
37.0
 40
37.0
 40
37.0
 40
38.0
 40
38.0
 40
38.0
 40
39.0
 40
39.0
 40
39.0
 40
40.0
 40
40.0
 40
40.0
 40
41.0
 40
41.0
 40
41.0
 40
42.0
 40
42.0
 40
42.0
 40
43.0
 40
43.0
 40
43.0
 40
44.0
 40
44.0
 40
44.0
 40
45.0
 40
45.0
 40
45.0
 40
46.0
 40
46.0
 40
46.0
 40
47.0
 40
47.0
 40
47.0
 40
48.0
 40
48.0
 40
48.0
 40
49.0
 40
49.0
 40
49.0
 40
50.0
 40
50.0
 40
50.0
 40
51.0
 40
51.0
 40
51.0
 40
52.0
 40
52.0
 40
52.0
 40
53.0
 40
53.0
 40
53.0
 40
54.0
 40
54.0
 40
54.0
 40
55.0
 40
55.0
 40
55.0
 40
56.0
 40
56.0
 40
56.0
 40
57.0
 40
57.0
 40
57.0
 40
58.0
 40
58.0
 40
58.0
 40
59.0
 40
59.0
 40
59.0
 40
60.0
 40
60.0
 40
60.0
 40
61.0
 40
61.0
 40
61.0
 40
62.0
 40
62.0
 40
62.0
 40
63.0
 40
63.0
 40
63.0
 40
64.0
 40
64.0
 40
64.0
 40
65.0
 40
65.0
 40
65.0
 40
66.0
 40
66.0
 40
66.0
 40
67.0
 40
67.0
 40
67.0
 40
68.0
 40
68.0
 40
68.0
 40
69.0
 40
69.0
 40
69.0
 40
70.0
 40
70.0
 40
70.0
 40
71.0
 40
71.0
 40
71.0
 40
72.0
 40
72.0
 40
72.0
 40
73.0
 40
73.0
 40
73.0
 40
74.0
 40
74.0
 40
74.0
 40
75.0
 40
75.0
 40
75.0
 40
76.0
 40
76.0
 40
76.0
 40
77.0
 40
77.0
 40
77.0
 40
78.0
 40
78.0
 40
78.0
 40
79.0
 40
79.0
 40
79.0
 40
80.0
 40
80.0
 40
80.0
 40
81.0
 40
81.0
 40
81.0
 40
82.0
 40
82.0
 40
82.0
 40
83.0
 40
83.0
 40
83.0
 40
84.0
 40
84.0
 40
84.0
 40
85.0
 40
85.0
 40
85.0
 40
86.0
 40
86.0
 40
86.0
 40
87.0
 40
87.0
 40
87.0
 40
88.0
 40
88.0
 40
88.0
 40
89.0
 40
89.0
 40
89.0
 40
90.0
 40
90.0
 40
90.0
 40
91.0
 40
91.0
 40
91.0
 40
92.0
 40
92.0
 40
92.0
 40
93.0
 40
93.0
 40
93.0
 40
94.0
 40
94.0
 40
94.0
 40
95.0
 40
95.0
 40
95.0
 40
96.0
 40
96.0
 40
96.0
 40
97.0
 40
97.0
 40
97.0
 40
98.0
 40
98.0
 40
98.0
 40
99.0
 40
99.0
 40
99.0
 40
100.0
 40
100.0
 40
100.0
 40
101.0
 40
101.0
 40
101.0
 40
102.0
 40
102.0
 40
102.0
 40
103.0
 40
103.0
 40
103.0
 40
104.0
 40
104.0
 40
104.0
 40
105.0
 40
105.0
 40
105.0
 40
106.0
 40
106.0
 40
106.0
 40
107.0
 40
107.0
 40
107.0
 40
108.0
 40
108.0
 40
108.0
 40
109.0
 40
109.0
 40
109.0
 40
110.0
 40
110.0
 40
110.0
 40
111.0
 40
111.0
 40
111.0
 40
112.0
 40
112.0
 40
112.0
 40
113.0
 40
113.0
 40
113.0
 40
114.0
 40
114.0
 40
114.0
 40
115.0
 40
115.0
 40
115.0
 40
116.0
 40
116.0
 40
116.0
 40
117.0
 40
117.0
 40
117.0
 40
118.0
 40
118.0
 40
118.0
 40
119.0
 40
119.0
 40
119.0
 40
120.0
 40
120.0
 40
120.0
 40
121.0
 40
121.0
 40
121.0
 40
122.0
 40
122.0
 40
122.0
 40
123.0
 40
123.0
 40
123.0
 40
124.0
 40
124.0
 40
124.0
 40
125.0
 40
125.0
 40
125.0
 40
126.0
 40
126.0
 40
126.0
 40
127.0
 40
127.0
 40
127.0
 40
128.0
 40
128.0
 40
128.0
 40
128.0
 10
187.5
 20
375.0
 30
0.0
 10
184.4296875
 20
375.0
 30
0.0
 10
181.36328125
 20
374.925781197846
 30
0.0
 10
178.30078125
 20
374.7734380066395
 30
0.0
 10
175.234375
 20
374.625
 30
0.0
 10
172.17578125
 20
374.3984379768372
 30
0.0
 10
169.12109375
 20
374.0976560115814
 30
0.0
 10
166.06640625
 20
373.796875
 30
0.0
 10
163.0234375
 20
373.421875
 30
0.0
 10
159.98828125
 20
372.96875
 30
0.0
 10
156.953125
 20
372.5195310115814
 30
0.0
 10
153.9296875
 20
371.9960939884186
 30
0.0
 10
150.921875
 20
371.3984379768372
 30
0.0
 10
147.91015625
 20
370.796875
 30
0.0
 10
144.91796875
 20
370.125
 30
0.0
 10
141.94140625
 20
369.3828120231628
 30
0.0
 10
138.96484375
 20
368.6367192268372
 30
0.0
 10
136.0078125
 20
367.8164057731629
 30
0.0
 10
133.0703125
 20
366.92578125
 30
0.0
 10
130.13671875
 20
366.03515625
 30
0.0
 10
127.22265625
 20
365.07421875
 30
0.0
 10
124.33203125
 20
364.0390615463257
 30
0.0
 10
121.4453125
 20
363.00390625
 30
0.0
 10
118.58203125
 20
361.90234375
 30
0.0
 10
115.74609375
 20
360.7265615463257
 30
0.0
 10
112.91015625
 20
359.5546884536743
 30
0.0
 10
110.10546875
 20
358.30859375
 30
0.0
 10
107.33203125
 20
356.99609375
 30
0.0
 10
104.55859375
 20
355.6875
 30
0.0
 10
101.8203125
 20
354.30859375
 30
0.0
 10
99.11328125
 20
352.859375
 30
0.0
 10
96.40625
 20
351.4140625
 30
0.0
 10
93.73828125000001
 20
349.90234375
 30
0.0
 10
91.10546875
 20
348.32421875
 30
0.0
 10
88.47265625
 20
346.74609375
 30
0.0
 10
85.88281249999999
 20
345.10546875
 30
0.0
 10
83.33203125
 20
343.40234375
 30
0.0
 10
80.77734375
 20
341.6953125
 30
0.0
 10
78.26953125
 20
339.9296875
 30
0.0
 10
75.8046875
 20
338.1015625
 30
0.0
 10
73.33984375
 20
336.2734375
 30
0.0
 10
70.921875
 20
334.38671875
 30
0.0
 10
68.55078125
 20
332.44140625
 30
0.0
 10
66.1796875
 20
330.4921875
 30
0.0
 10
63.85546875
 20
328.48828125
 30
0.0
 10
61.58203125
 20
326.4296875
 30
0.0
 10
59.30859375
 20
324.3671875
 30
0.0
 10
57.0859375
 20
322.25390625
 30
0.0
 10
54.91796875
 20
320.08203125
 30
0.0
 10
52.74609375
 20
317.9140625
 30
0.0
 10
50.6328125
 20
315.69140625
 30
0.0
 10
48.5703125
 20
313.41796875
 30
0.0
 10
46.51171875
 20
311.14453125
 30
0.0
 10
44.5078125
 20
308.8203125
 30
0.0
 10
42.55859375
 20
306.44921875
 30
0.0
 10
40.61328125
 20
304.078125
 30
0.0
 10
38.7265625
 20
301.66015625
 30
0.0
 10
36.8984375
 20
299.1953125
 30
0.0
 10
35.0703125
 20
296.73046875
 30
0.0
 10
33.3046875
 20
294.22265625
 30
0.0
 10
31.59765625
 20
291.66796875
 30
0.0
 10
29.89453125
 20
289.1171875
 30
0.0
 10
28.25390625
 20
286.52734375
 30
0.0
 10
26.67578125
 20
283.89453125
 30
0.0
 10
25.09765625
 20
281.26171875
 30
0.0
 10
23.5859375
 20
278.59375
 30
0.0
 10
22.140625
 20
275.88671875
 30
0.0
 10
20.69140625
 20
273.1796875
 30
0.0
 10
19.3125
 20
270.44140625
 30
0.0
 10
18.00390625
 20
267.66796875
 30
0.0
 10
16.69140625
 20
264.89453125
 30
0.0
 10
15.44531154632568
 20
262.08984375
 30
0.0
 10
14.27343845367431
 20
259.25390625
 30
0.0
 10
13.09765625
 20
256.41796875
 30
0.0
 10
11.99609375
 20
253.5546875
 30
0.0
 10
10.96093845367431
 20
250.66796875
 30
0.0
 10
9.92578125
 20
247.77734375
 30
0.0
 10
8.96484375
 20
244.86328125
 30
0.0
 10
8.07421875
 20
241.9296875
 30
0.0
 10
7.183594226837158
 20
238.9921875
 30
0.0
 10
6.363280773162841
 20
236.03515625
 30
0.0
 10
5.621094226837158
 20
233.05859375
 30
0.0
 10
4.875
 20
230.08203125
 30
0.0
 10
4.203125
 20
227.08984375
 30
0.0
 10
3.601562023162841
 20
224.078125
 30
0.0
 10
3.00390601158142
 20
221.0703125
 30
0.0
 10
2.480468988418579
 20
218.046875
 30
0.0
 10
2.03125
 20
215.01171875
 30
0.0
 10
1.578125
 20
211.9765625
 30
0.0
 10
1.203125
 20
208.93359375
 30
0.0
 10
0.9023439884185791
 20
205.87890625
 30
0.0
 10
0.6015620231628418
 20
202.82421875
 30
0.0
 10
0.375
 20
199.765625
 30
0.0
 10
0.2265619933605194
 20
196.69921875
 30
0.0
 10
0.0742188021540642
 20
193.63671875
 30
0.0
 10
0.0
 20
190.5703125
 30
0.0
 10
0.0
 20
187.5
 30
0.0
 10
0.0
 20
184.4296875
 30
0.0
 10
0.0742188021540642
 20
181.36328125
 30
0.0
 10
0.2265619933605194
 20
178.30078125
 30
0.0
 10
0.375
 20
175.234375
 30
0.0
 10
0.6015620231628418
 20
172.17578125
 30
0.0
 10
0.9023439884185791
 20
169.12109375
 30
0.0
 10
1.203125
 20
166.06640625
 30
0.0
 10
1.578125
 20
163.0234375
 30
0.0
 10
2.03125
 20
159.98828125
 30
0.0
 10
2.480468988418579
 20
156.953125
 30
0.0
 10
3.00390601158142
 20
153.9296875
 30
0.0
 10
3.601562023162841
 20
150.921875
 30
0.0
 10
4.203125
 20
147.91015625
 30
0.0
 10
4.875
 20
144.91796875
 30
0.0
 10
5.621094226837158
 20
141.94140625
 30
0.0
 10
6.363280773162841
 20
138.96484375
 30
0.0
 10
7.183594226837158
 20
136.0078125
 30
0.0
 10
8.07421875
 20
133.0703125
 30
0.0
 10
8.96484375
 20
130.13671875
 30
0.0
 10
9.92578125
 20
127.22265625
 30
0.0
 10
10.96093845367431
 20
124.33203125
 30
0.0
 10
11.99609375
 20
121.4453125
 30
0.0
 10
13.09765625
 20
118.58203125
 30
0.0
 10
14.27343845367431
 20
115.74609375
 30
0.0
 10
15.44531154632568
 20
112.91015625
 30
0.0
 10
16.69140625
 20
110.109375
 30
0.0
 10
18.00390625
 20
107.33203125
 30
0.0
 10
19.3125
 20
104.55859375
 30
0.0
 10
20.69140625
 20
101.8203125
 30
0.0
 10
22.140625
 20
99.11328125
 30
0.0
 10
23.5859375
 20
96.40625
 30
0.0
 10
25.09765625
 20
93.73828125000001
 30
0.0
 10
26.67578125
 20
91.10546875
 30
0.0
 10
28.25390625
 20
88.47265625
 30
0.0
 10
29.89453125
 20
85.88281249999999
 30
0.0
 10
31.59765625
 20
83.33203125
 30
0.0
 10
33.3046875
 20
80.77734375
 30
0.0
 10
35.0703125
 20
78.26953125
 30
0.0
 10
36.8984375
 20
75.8046875
 30
0.0
 10
38.7265625
 20
73.33984375
 30
0.0
 10
40.61328125
 20
70.921875
 30
0.0
 10
42.55859375
 20
68.55078125
 30
0.0
 10
44.5078125
 20
66.1796875
 30
0.0
 10
46.51171875
 20
63.85546875
 30
0.0
 10
48.5703125
 20
61.58203125
 30
0.0
 10
50.6328125
 20
59.30859375
 30
0.0
 10
52.74609375
 20
57.0859375
 30
0.0
 10
54.91796875
 20
54.91796875
 30
0.0
 10
57.0859375
 20
52.74609375
 30
0.0
 10
59.30859375
 20
50.6328125
 30
0.0
 10
61.58203125
 20
48.5703125
 30
0.0
 10
63.85546875
 20
46.51171875
 30
0.0
 10
66.1796875
 20
44.5078125
 30
0.0
 10
68.55078125
 20
42.5625
 30
0.0
 10
70.921875
 20
40.61328125
 30
0.0
 10
73.33984375
 20
38.7265625
 30
0.0
 10
75.8046875
 20
36.8984375
 30
0.0
 10
78.26953125
 20
35.0703125
 30
0.0
 10
80.77734375
 20
33.3046875
 30
0.0
 10
83.33203125
 20
31.59765625
 30
0.0
 10
85.88281249999999
 20
29.89453125
 30
0.0
 10
88.47265625
 20
28.25390625
 30
0.0
 10
91.10546875
 20
26.67578125
 30
0.0
 10
93.73828125000001
 20
25.09765625
 30
0.0
 10
96.40625
 20
23.5859375
 30
0.0
 10
99.11328125
 20
22.140625
 30
0.0
 10
101.8203125
 20
20.69140625
 30
0.0
 10
104.55859375
 20
19.3125
 30
0.0
 10
107.33203125
 20
18.00390625
 30
0.0
 10
110.10546875
 20
16.69140625
 30
0.0
 10
112.91015625
 20
15.4453125
 30
0.0
 10
115.74609375
 20
14.2734375
 30
0.0
 10
118.58203125
 20
13.09765625
 30
0.0
 10
121.4453125
 20
11.99609375
 30
0.0
 10
124.33203125
 20
10.9609375
 30
0.0
 10
127.22265625
 20
9.92578125
 30
0.0
 10
130.13671875
 20
8.96484375
 30
0.0
 10
133.0703125
 20
8.07421875
 30
0.0
 10
136.0078125
 20
7.18359375
 30
0.0
 10
138.96484375
 20
6.36328125
 30
0.0
 10
141.94140625
 20
5.62109375
 30
0.0
 10
144.91796875
 20
4.875
 30
0.0
 10
147.91015625
 20
4.203125
 30
0.0
 10
150.921875
 20
3.6015625
 30
0.0
 10
153.9296875
 20
3.00390625
 30
0.0
 10
156.953125
 20
2.48046875
 30
0.0
 10
159.98828125
 20
2.03125
 30
0.0
 10
163.0234375
 20
1.578125
 30
0.0
 10
166.06640625
 20
1.203125
 30
0.0
 10
169.12109375
 20
0.90234375
 30
0.0
 10
172.17578125
 20
0.6015625
 30
0.0
 10
175.234375
 20
0.375
 30
0.0
 10
178.30078125
 20
0.2265625
 30
0.0
 10
181.36328125
 20
0.07421875
 30
0.0
 10
184.4296875
 20
0.0
 30
0.0
 10
187.5
 20
0.0
 30
0.0
 10
190.5703125
 20
0.0
 30
0.0
 10
193.63671875
 20
0.07421875
 30
0.0
 10
196.69921875
 20
0.2265625
 30
0.0
 10
199.765625
 20
0.375
 30
0.0
 10
202.82421875
 20
0.6015625
 30
0.0
 10
205.87890625
 20
0.90234375
 30
0.0
 10
208.93359375
 20
1.203125
 30
0.0
 10
211.9765625
 20
1.578125
 30
0.0
 10
215.01171875
 20
2.03125
 30
0.0
 10
218.046875
 20
2.48046875
 30
0.0
 10
221.0703125
 20
3.00390625
 30
0.0
 10
224.078125
 20
3.6015625
 30
0.0
 10
227.08984375
 20
4.203125
 30
0.0
 10
230.08203125
 20
4.875
 30
0.0
 10
233.05859375
 20
5.62109375
 30
0.0
 10
236.03515625
 20
6.36328125
 30
0.0
 10
238.9921875
 20
7.18359375
 30
0.0
 10
241.9296875
 20
8.07421875
 30
0.0
 10
244.86328125
 20
8.96484375
 30
0.0
 10
247.77734375
 20
9.92578125
 30
0.0
 10
250.66796875
 20
10.9609375
 30
0.0
 10
253.5546875
 20
11.99609375
 30
0.0
 10
256.41796875
 20
13.09765625
 30
0.0
 10
259.25390625
 20
14.2734375
 30
0.0
 10
262.08984375
 20
15.4453125
 30
0.0
 10
264.890625
 20
16.69140625
 30
0.0
 10
267.66796875
 20
18.00390625
 30
0.0
 10
270.44140625
 20
19.3125
 30
0.0
 10
273.1796875
 20
20.69140625
 30
0.0
 10
275.88671875
 20
22.140625
 30
0.0
 10
278.59375
 20
23.5859375
 30
0.0
 10
281.26171875
 20
25.09765625
 30
0.0
 10
283.89453125
 20
26.67578125
 30
0.0
 10
286.52734375
 20
28.25390625
 30
0.0
 10
289.1171875
 20
29.89453125
 30
0.0
 10
291.66796875
 20
31.59765625
 30
0.0
 10
294.22265625
 20
33.3046875
 30
0.0
 10
296.73046875
 20
35.0703125
 30
0.0
 10
299.1953125
 20
36.8984375
 30
0.0
 10
301.66015625
 20
38.7265625
 30
0.0
 10
304.078125
 20
40.61328125
 30
0.0
 10
306.44921875
 20
42.5625
 30
0.0
 10
308.8203125
 20
44.5078125
 30
0.0
 10
311.14453125
 20
46.51171875
 30
0.0
 10
313.41796875
 20
48.5703125
 30
0.0
 10
315.69140625
 20
50.6328125
 30
0.0
 10
317.9140625
 20
52.74609375
 30
0.0
 10
320.08203125
 20
54.91796875
 30
0.0
 10
322.25390625
 20
57.0859375
 30
0.0
 10
324.3671875
 20
59.30859375
 30
0.0
 10
326.4296875
 20
61.58203125
 30
0.0
 10
328.48828125
 20
63.85546875
 30
0.0
 10
330.4921875
 20
66.1796875
 30
0.0
 10
332.4375
 20
68.55078125
 30
0.0
 10
334.38671875
 20
70.921875
 30
0.0
 10
336.2734375
 20
73.33984375
 30
0.0
 10
338.1015625
 20
75.8046875
 30
0.0
 10
339.9296875
 20
78.26953125
 30
0.0
 10
341.6953125
 20
80.77734375
 30
0.0
 10
343.40234375
 20
83.33203125
 30
0.0
 10
345.10546875
 20
85.88281249999999
 30
0.0
 10
346.74609375
 20
88.47265625
 30
0.0
 10
348.32421875
 20
91.10546875
 30
0.0
 10
349.90234375
 20
93.73828125000001
 30
0.0
 10
351.4140625
 20
96.40625
 30
0.0
 10
352.859375
 20
99.11328125
 30
0.0
 10
354.30859375
 20
101.8203125
 30
0.0
 10
355.6875
 20
104.55859375
 30
0.0
 10
356.99609375
 20
107.33203125
 30
0.0
 10
358.30859375
 20
110.109375
 30
0.0
 10
359.5546875
 20
112.91015625
 30
0.0
 10
360.7265625
 20
115.74609375
 30
0.0
 10
361.90234375
 20
118.58203125
 30
0.0
 10
363.00390625
 20
121.4453125
 30
0.0
 10
364.0390625
 20
124.33203125
 30
0.0
 10
365.07421875
 20
127.22265625
 30
0.0
 10
366.03515625
 20
130.13671875
 30
0.0
 10
366.92578125
 20
133.0703125
 30
0.0
 10
367.81640625
 20
136.0078125
 30
0.0
 10
368.63671875
 20
138.96484375
 30
0.0
 10
369.37890625
 20
141.94140625
 30
0.0
 10
370.125
 20
144.91796875
 30
0.0
 10
370.796875
 20
147.91015625
 30
0.0
 10
371.3984375
 20
150.921875
 30
0.0
 10
371.99609375
 20
153.9296875
 30
0.0
 10
372.51953125
 20
156.953125
 30
0.0
 10
372.96875
 20
159.98828125
 30
0.0
 10
373.421875
 20
163.0234375
 30
0.0
 10
373.796875
 20
166.06640625
 30
0.0
 10
374.09765625
 20
169.12109375
 30
0.0
 10
374.3984375
 20
172.17578125
 30
0.0
 10
374.625
 20
175.234375
 30
0.0
 10
374.7734375
 20
178.30078125
 30
0.0
 10
374.92578125
 20
181.36328125
 30
0.0
 10
375.0
 20
184.4296875
 30
0.0
 10
375.0
 20
187.5
 30
0.0
 10
375.0
 20
190.5703125
 30
0.0
 10
374.92578125
 20
193.63671875
 30
0.0
 10
374.7734375
 20
196.69921875
 30
0.0
 10
374.625
 20
199.765625
 30
0.0
 10
374.3984375
 20
202.82421875
 30
0.0
 10
374.09765625
 20
205.87890625
 30
0.0
 10
373.796875
 20
208.93359375
 30
0.0
 10
373.421875
 20
211.9765625
 30
0.0
 10
372.96875
 20
215.01171875
 30
0.0
 10
372.51953125
 20
218.046875
 30
0.0
 10
371.99609375
 20
221.0703125
 30
0.0
 10
371.3984375
 20
224.078125
 30
0.0
 10
370.796875
 20
227.08984375
 30
0.0
 10
370.125
 20
230.08203125
 30
0.0
 10
369.37890625
 20
233.05859375
 30
0.0
 10
368.63671875
 20
236.03515625
 30
0.0
 10
367.81640625
 20
238.9921875
 30
0.0
 10
366.92578125
 20
241.9296875
 30
0.0
 10
366.03515625
 20
244.86328125
 30
0.0
 10
365.07421875
 20
247.77734375
 30
0.0
 10
364.0390625
 20
250.66796875
 30
0.0
 10
363.00390625
 20
253.5546875
 30
0.0
 10
361.90234375
 20
256.41796875
 30
0.0
 10
360.7265625
 20
259.25390625
 30
0.0
 10
359.5546875
 20
262.08984375
 30
0.0
 10
358.30859375
 20
264.89453125
 30
0.0
 10
356.99609375
 20
267.66796875
 30
0.0
 10
355.6875
 20
270.44140625
 30
0.0
 10
354.30859375
 20
273.1796875
 30
0.0
 10
352.859375
 20
275.88671875
 30
0.0
 10
351.4140625
 20
278.59375
 30
0.0
 10
349.90234375
 20
281.26171875
 30
0.0
 10
348.32421875
 20
283.89453125
 30
0.0
 10
346.74609375
 20
286.52734375
 30
0.0
 10
345.10546875
 20
289.1171875
 30
0.0
 10
343.40234375
 20
291.66796875
 30
0.0
 10
341.6953125
 20
294.22265625
 30
0.0
 10
339.9296875
 20
296.73046875
 30
0.0
 10
338.1015625
 20
299.1953125
 30
0.0
 10
336.2734375
 20
301.66015625
 30
0.0
 10
334.38671875
 20
304.078125
 30
0.0
 10
332.4375
 20
306.44921875
 30
0.0
 10
330.4921875
 20
308.8203125
 30
0.0
 10
328.48828125
 20
311.14453125
 30
0.0
 10
326.4296875
 20
313.41796875
 30
0.0
 10
324.3671875
 20
315.69140625
 30
0.0
 10
322.25390625
 20
317.9140625
 30
0.0
 10
320.08203125
 20
320.08203125
 30
0.0
 10
317.9140625
 20
322.25390625
 30
0.0
 10
315.69140625
 20
324.3671875
 30
0.0
 10
313.41796875
 20
326.4296875
 30
0.0
 10
311.14453125
 20
328.48828125
 30
0.0
 10
308.8203125
 20
330.4921875
 30
0.0
 10
306.44921875
 20
332.44140625
 30
0.0
 10
304.078125
 20
334.38671875
 30
0.0
 10
301.66015625
 20
336.2734375
 30
0.0
 10
299.1953125
 20
338.1015625
 30
0.0
 10
296.73046875
 20
339.9296875
 30
0.0
 10
294.22265625
 20
341.6953125
 30
0.0
 10
291.66796875
 20
343.40234375
 30
0.0
 10
289.1171875
 20
345.10546875
 30
0.0
 10
286.52734375
 20
346.74609375
 30
0.0
 10
283.89453125
 20
348.32421875
 30
0.0
 10
281.26171875
 20
349.90234375
 30
0.0
 10
278.59375
 20
351.4140625
 30
0.0
 10
275.88671875
 20
352.859375
 30
0.0
 10
273.1796875
 20
354.30859375
 30
0.0
 10
270.44140625
 20
355.6875
 30
0.0
 10
267.66796875
 20
356.99609375
 30
0.0
 10
264.890625
 20
358.30859375
 30
0.0
 10
262.08984375
 20
359.5546884536743
 30
0.0
 10
259.25390625
 20
360.7265615463257
 30
0.0
 10
256.41796875
 20
361.90234375
 30
0.0
 10
253.5546875
 20
363.00390625
 30
0.0
 10
250.66796875
 20
364.0390615463257
 30
0.0
 10
247.77734375
 20
365.07421875
 30
0.0
 10
244.86328125
 20
366.03515625
 30
0.0
 10
241.9296875
 20
366.92578125
 30
0.0
 10
238.9921875
 20
367.8164057731629
 30
0.0
 10
236.03515625
 20
368.6367192268372
 30
0.0
 10
233.05859375
 20
369.3828120231628
 30
0.0
 10
230.08203125
 20
370.125
 30
0.0
 10
227.08984375
 20
370.796875
 30
0.0
 10
224.078125
 20
371.3984379768372
 30
0.0
 10
221.0703125
 20
371.9960939884186
 30
0.0
 10
218.046875
 20
372.5195310115814
 30
0.0
 10
215.01171875
 20
372.96875
 30
0.0
 10
211.9765625
 20
373.421875
 30
0.0
 10
208.93359375
 20
373.796875
 30
0.0
 10
205.87890625
 20
374.0976560115814
 30
0.0
 10
202.82421875
 20
374.3984379768372
 30
0.0
 10
199.765625
 20
374.625
 30
0.0
 10
196.69921875
 20
374.7734380066395
 30
0.0
 10
193.63671875
 20
374.925781197846
 30
0.0
 10
190.5703125
 20
375.0
 30
0.0
 10
187.5
 20
375.0
 30
0.0
  0
HATCH
  5
7E
330
79
100
AcDbEntity
  8
Graphic
 62
    20
420
 16725043
440
 33554687
100
AcDbHatch
 10
0.0
 20
0.0
 30
0.0
210
0.0
220
0.0
230
1.0
  2
SOLID
 70
     1
 71
     1
 91
        1
 92
        1
 93
        1
 72
     4
 94
        3
 73
     0
 74
     0
 95
      389
 96
      385
 40
0.0
 40
0.0
 40
0.0
 40
0.0
 40
1.0
 40
1.0
 40
1.0
 40
2.0
 40
2.0
 40
2.0
 40
3.0
 40
3.0
 40
3.0
 40
4.0
 40
4.0
 40
4.0
 40
5.0
 40
5.0
 40
5.0
 40
6.0
 40
6.0
 40
6.0
 40
7.0
 40
7.0
 40
7.0
 40
8.0
 40
8.0
 40
8.0
 40
9.0
 40
9.0
 40
9.0
 40
10.0
 40
10.0
 40
10.0
 40
11.0
 40
11.0
 40
11.0
 40
12.0
 40
12.0
 40
12.0
 40
13.0
 40
13.0
 40
13.0
 40
14.0
 40
14.0
 40
14.0
 40
15.0
 40
15.0
 40
15.0
 40
16.0
 40
16.0
 40
16.0
 40
17.0
 40
17.0
 40
17.0
 40
18.0
 40
18.0
 40
18.0
 40
19.0
 40
19.0
 40
19.0
 40
20.0
 40
20.0
 40
20.0
 40
21.0
 40
21.0
 40
21.0
 40
22.0
 40
22.0
 40
22.0
 40
23.0
 40
23.0
 40
23.0
 40
24.0
 40
24.0
 40
24.0
 40
25.0
 40
25.0
 40
25.0
 40
26.0
 40
26.0
 40
26.0
 40
27.0
 40
27.0
 40
27.0
 40
28.0
 40
28.0
 40
28.0
 40
29.0
 40
29.0
 40
29.0
 40
30.0
 40
30.0
 40
30.0
 40
31.0
 40
31.0
 40
31.0
 40
32.0
 40
32.0
 40
32.0
 40
33.0
 40
33.0
 40
33.0
 40
34.0
 40
34.0
 40
34.0
 40
35.0
 40
35.0
 40
35.0
 40
36.0
 40
36.0
 40
36.0
 40
37.0
 40
37.0
 40
37.0
 40
38.0
 40
38.0
 40
38.0
 40
39.0
 40
39.0
 40
39.0
 40
40.0
 40
40.0
 40
40.0
 40
41.0
 40
41.0
 40
41.0
 40
42.0
 40
42.0
 40
42.0
 40
43.0
 40
43.0
 40
43.0
 40
44.0
 40
44.0
 40
44.0
 40
45.0
 40
45.0
 40
45.0
 40
46.0
 40
46.0
 40
46.0
 40
47.0
 40
47.0
 40
47.0
 40
48.0
 40
48.0
 40
48.0
 40
49.0
 40
49.0
 40
49.0
 40
50.0
 40
50.0
 40
50.0
 40
51.0
 40
51.0
 40
51.0
 40
52.0
 40
52.0
 40
52.0
 40
53.0
 40
53.0
 40
53.0
 40
54.0
 40
54.0
 40
54.0
 40
55.0
 40
55.0
 40
55.0
 40
56.0
 40
56.0
 40
56.0
 40
57.0
 40
57.0
 40
57.0
 40
58.0
 40
58.0
 40
58.0
 40
59.0
 40
59.0
 40
59.0
 40
60.0
 40
60.0
 40
60.0
 40
61.0
 40
61.0
 40
61.0
 40
62.0
 40
62.0
 40
62.0
 40
63.0
 40
63.0
 40
63.0
 40
64.0
 40
64.0
 40
64.0
 40
65.0
 40
65.0
 40
65.0
 40
66.0
 40
66.0
 40
66.0
 40
67.0
 40
67.0
 40
67.0
 40
68.0
 40
68.0
 40
68.0
 40
69.0
 40
69.0
 40
69.0
 40
70.0
 40
70.0
 40
70.0
 40
71.0
 40
71.0
 40
71.0
 40
72.0
 40
72.0
 40
72.0
 40
73.0
 40
73.0
 40
73.0
 40
74.0
 40
74.0
 40
74.0
 40
75.0
 40
75.0
 40
75.0
 40
76.0
 40
76.0
 40
76.0
 40
77.0
 40
77.0
 40
77.0
 40
78.0
 40
78.0
 40
78.0
 40
79.0
 40
79.0
 40
79.0
 40
80.0
 40
80.0
 40
80.0
 40
81.0
 40
81.0
 40
81.0
 40
82.0
 40
82.0
 40
82.0
 40
83.0
 40
83.0
 40
83.0
 40
84.0
 40
84.0
 40
84.0
 40
85.0
 40
85.0
 40
85.0
 40
86.0
 40
86.0
 40
86.0
 40
87.0
 40
87.0
 40
87.0
 40
88.0
 40
88.0
 40
88.0
 40
89.0
 40
89.0
 40
89.0
 40
90.0
 40
90.0
 40
90.0
 40
91.0
 40
91.0
 40
91.0
 40
92.0
 40
92.0
 40
92.0
 40
93.0
 40
93.0
 40
93.0
 40
94.0
 40
94.0
 40
94.0
 40
95.0
 40
95.0
 40
95.0
 40
96.0
 40
96.0
 40
96.0
 40
97.0
 40
97.0
 40
97.0
 40
98.0
 40
98.0
 40
98.0
 40
99.0
 40
99.0
 40
99.0
 40
100.0
 40
100.0
 40
100.0
 40
101.0
 40
101.0
 40
101.0
 40
102.0
 40
102.0
 40
102.0
 40
103.0
 40
103.0
 40
103.0
 40
104.0
 40
104.0
 40
104.0
 40
105.0
 40
105.0
 40
105.0
 40
106.0
 40
106.0
 40
106.0
 40
107.0
 40
107.0
 40
107.0
 40
108.0
 40
108.0
 40
108.0
 40
109.0
 40
109.0
 40
109.0
 40
110.0
 40
110.0
 40
110.0
 40
111.0
 40
111.0
 40
111.0
 40
112.0
 40
112.0
 40
112.0
 40
113.0
 40
113.0
 40
113.0
 40
114.0
 40
114.0
 40
114.0
 40
115.0
 40
115.0
 40
115.0
 40
116.0
 40
116.0
 40
116.0
 40
117.0
 40
117.0
 40
117.0
 40
118.0
 40
118.0
 40
118.0
 40
119.0
 40
119.0
 40
119.0
 40
120.0
 40
120.0
 40
120.0
 40
121.0
 40
121.0
 40
121.0
 40
122.0
 40
122.0
 40
122.0
 40
123.0
 40
123.0
 40
123.0
 40
124.0
 40
124.0
 40
124.0
 40
125.0
 40
125.0
 40
125.0
 40
126.0
 40
126.0
 40
126.0
 40
127.0
 40
127.0
 40
127.0
 40
128.0
 40
128.0
 40
128.0
 40
128.0
 10
187.5
 20
375.0
 10
184.4296875
 20
375.0
 10
181.36328125
 20
374.925781197846
 10
178.30078125
 20
374.7734380066395
 10
175.234375
 20
374.625
 10
172.17578125
 20
374.3984379768372
 10
169.12109375
 20
374.0976560115814
 10
166.06640625
 20
373.796875
 10
163.0234375
 20
373.421875
 10
159.98828125
 20
372.96875
 10
156.953125
 20
372.5195310115814
 10
153.9296875
 20
371.9960939884186
 10
150.921875
 20
371.3984379768372
 10
147.91015625
 20
370.796875
 10
144.91796875
 20
370.125
 10
141.94140625
 20
369.3828120231628
 10
138.96484375
 20
368.6367192268372
 10
136.0078125
 20
367.8164057731629
 10
133.0703125
 20
366.92578125
 10
130.13671875
 20
366.03515625
 10
127.22265625
 20
365.07421875
 10
124.33203125
 20
364.0390615463257
 10
121.4453125
 20
363.00390625
 10
118.58203125
 20
361.90234375
 10
115.74609375
 20
360.7265615463257
 10
112.91015625
 20
359.5546884536743
 10
110.10546875
 20
358.30859375
 10
107.33203125
 20
356.99609375
 10
104.55859375
 20
355.6875
 10
101.8203125
 20
354.30859375
 10
99.11328125
 20
352.859375
 10
96.40625
 20
351.4140625
 10
93.73828125000001
 20
349.90234375
 10
91.10546875
 20
348.32421875
 10
88.47265625
 20
346.74609375
 10
85.88281249999999
 20
345.10546875
 10
83.33203125
 20
343.40234375
 10
80.77734375
 20
341.6953125
 10
78.26953125
 20
339.9296875
 10
75.8046875
 20
338.1015625
 10
73.33984375
 20
336.2734375
 10
70.921875
 20
334.38671875
 10
68.55078125
 20
332.44140625
 10
66.1796875
 20
330.4921875
 10
63.85546875
 20
328.48828125
 10
61.58203125
 20
326.4296875
 10
59.30859375
 20
324.3671875
 10
57.0859375
 20
322.25390625
 10
54.91796875
 20
320.08203125
 10
52.74609375
 20
317.9140625
 10
50.6328125
 20
315.69140625
 10
48.5703125
 20
313.41796875
 10
46.51171875
 20
311.14453125
 10
44.5078125
 20
308.8203125
 10
42.55859375
 20
306.44921875
 10
40.61328125
 20
304.078125
 10
38.7265625
 20
301.66015625
 10
36.8984375
 20
299.1953125
 10
35.0703125
 20
296.73046875
 10
33.3046875
 20
294.22265625
 10
31.59765625
 20
291.66796875
 10
29.89453125
 20
289.1171875
 10
28.25390625
 20
286.52734375
 10
26.67578125
 20
283.89453125
 10
25.09765625
 20
281.26171875
 10
23.5859375
 20
278.59375
 10
22.140625
 20
275.88671875
 10
20.69140625
 20
273.1796875
 10
19.3125
 20
270.44140625
 10
18.00390625
 20
267.66796875
 10
16.69140625
 20
264.89453125
 10
15.44531154632568
 20
262.08984375
 10
14.27343845367431
 20
259.25390625
 10
13.09765625
 20
256.41796875
 10
11.99609375
 20
253.5546875
 10
10.96093845367431
 20
250.66796875
 10
9.92578125
 20
247.77734375
 10
8.96484375
 20
244.86328125
 10
8.07421875
 20
241.9296875
 10
7.183594226837158
 20
238.9921875
 10
6.363280773162841
 20
236.03515625
 10
5.621094226837158
 20
233.05859375
 10
4.875
 20
230.08203125
 10
4.203125
 20
227.08984375
 10
3.601562023162841
 20
224.078125
 10
3.00390601158142
 20
221.0703125
 10
2.480468988418579
 20
218.046875
 10
2.03125
 20
215.01171875
 10
1.578125
 20
211.9765625
 10
1.203125
 20
208.93359375
 10
0.9023439884185791
 20
205.87890625
 10
0.6015620231628418
 20
202.82421875
 10
0.375
 20
199.765625
 10
0.2265619933605194
 20
196.69921875
 10
0.0742188021540642
 20
193.63671875
 10
0.0
 20
190.5703125
 10
0.0
 20
187.5
 10
0.0
 20
184.4296875
 10
0.0742188021540642
 20
181.36328125
 10
0.2265619933605194
 20
178.30078125
 10
0.375
 20
175.234375
 10
0.6015620231628418
 20
172.17578125
 10
0.9023439884185791
 20
169.12109375
 10
1.203125
 20
166.06640625
 10
1.578125
 20
163.0234375
 10
2.03125
 20
159.98828125
 10
2.480468988418579
 20
156.953125
 10
3.00390601158142
 20
153.9296875
 10
3.601562023162841
 20
150.921875
 10
4.203125
 20
147.91015625
 10
4.875
 20
144.91796875
 10
5.621094226837158
 20
141.94140625
 10
6.363280773162841
 20
138.96484375
 10
7.183594226837158
 20
136.0078125
 10
8.07421875
 20
133.0703125
 10
8.96484375
 20
130.13671875
 10
9.92578125
 20
127.22265625
 10
10.96093845367431
 20
124.33203125
 10
11.99609375
 20
121.4453125
 10
13.09765625
 20
118.58203125
 10
14.27343845367431
 20
115.74609375
 10
15.44531154632568
 20
112.91015625
 10
16.69140625
 20
110.109375
 10
18.00390625
 20
107.33203125
 10
19.3125
 20
104.55859375
 10
20.69140625
 20
101.8203125
 10
22.140625
 20
99.11328125
 10
23.5859375
 20
96.40625
 10
25.09765625
 20
93.73828125000001
 10
26.67578125
 20
91.10546875
 10
28.25390625
 20
88.47265625
 10
29.89453125
 20
85.88281249999999
 10
31.59765625
 20
83.33203125
 10
33.3046875
 20
80.77734375
 10
35.0703125
 20
78.26953125
 10
36.8984375
 20
75.8046875
 10
38.7265625
 20
73.33984375
 10
40.61328125
 20
70.921875
 10
42.55859375
 20
68.55078125
 10
44.5078125
 20
66.1796875
 10
46.51171875
 20
63.85546875
 10
48.5703125
 20
61.58203125
 10
50.6328125
 20
59.30859375
 10
52.74609375
 20
57.0859375
 10
54.91796875
 20
54.91796875
 10
57.0859375
 20
52.74609375
 10
59.30859375
 20
50.6328125
 10
61.58203125
 20
48.5703125
 10
63.85546875
 20
46.51171875
 10
66.1796875
 20
44.5078125
 10
68.55078125
 20
42.5625
 10
70.921875
 20
40.61328125
 10
73.33984375
 20
38.7265625
 10
75.8046875
 20
36.8984375
 10
78.26953125
 20
35.0703125
 10
80.77734375
 20
33.3046875
 10
83.33203125
 20
31.59765625
 10
85.88281249999999
 20
29.89453125
 10
88.47265625
 20
28.25390625
 10
91.10546875
 20
26.67578125
 10
93.73828125000001
 20
25.09765625
 10
96.40625
 20
23.5859375
 10
99.11328125
 20
22.140625
 10
101.8203125
 20
20.69140625
 10
104.55859375
 20
19.3125
 10
107.33203125
 20
18.00390625
 10
110.10546875
 20
16.69140625
 10
112.91015625
 20
15.4453125
 10
115.74609375
 20
14.2734375
 10
118.58203125
 20
13.09765625
 10
121.4453125
 20
11.99609375
 10
124.33203125
 20
10.9609375
 10
127.22265625
 20
9.92578125
 10
130.13671875
 20
8.96484375
 10
133.0703125
 20
8.07421875
 10
136.0078125
 20
7.18359375
 10
138.96484375
 20
6.36328125
 10
141.94140625
 20
5.62109375
 10
144.91796875
 20
4.875
 10
147.91015625
 20
4.203125
 10
150.921875
 20
3.6015625
 10
153.9296875
 20
3.00390625
 10
156.953125
 20
2.48046875
 10
159.98828125
 20
2.03125
 10
163.0234375
 20
1.578125
 10
166.06640625
 20
1.203125
 10
169.12109375
 20
0.90234375
 10
172.17578125
 20
0.6015625
 10
175.234375
 20
0.375
 10
178.30078125
 20
0.2265625
 10
181.36328125
 20
0.07421875
 10
184.4296875
 20
0.0
 10
187.5
 20
0.0
 10
190.5703125
 20
0.0
 10
193.63671875
 20
0.07421875
 10
196.69921875
 20
0.2265625
 10
199.765625
 20
0.375
 10
202.82421875
 20
0.6015625
 10
205.87890625
 20
0.90234375
 10
208.93359375
 20
1.203125
 10
211.9765625
 20
1.578125
 10
215.01171875
 20
2.03125
 10
218.046875
 20
2.48046875
 10
221.0703125
 20
3.00390625
 10
224.078125
 20
3.6015625
 10
227.08984375
 20
4.203125
 10
230.08203125
 20
4.875
 10
233.05859375
 20
5.62109375
 10
236.03515625
 20
6.36328125
 10
238.9921875
 20
7.18359375
 10
241.9296875
 20
8.07421875
 10
244.86328125
 20
8.96484375
 10
247.77734375
 20
9.92578125
 10
250.66796875
 20
10.9609375
 10
253.5546875
 20
11.99609375
 10
256.41796875
 20
13.09765625
 10
259.25390625
 20
14.2734375
 10
262.08984375
 20
15.4453125
 10
264.890625
 20
16.69140625
 10
267.66796875
 20
18.00390625
 10
270.44140625
 20
19.3125
 10
273.1796875
 20
20.69140625
 10
275.88671875
 20
22.140625
 10
278.59375
 20
23.5859375
 10
281.26171875
 20
25.09765625
 10
283.89453125
 20
26.67578125
 10
286.52734375
 20
28.25390625
 10
289.1171875
 20
29.89453125
 10
291.66796875
 20
31.59765625
 10
294.22265625
 20
33.3046875
 10
296.73046875
 20
35.0703125
 10
299.1953125
 20
36.8984375
 10
301.66015625
 20
38.7265625
 10
304.078125
 20
40.61328125
 10
306.44921875
 20
42.5625
 10
308.8203125
 20
44.5078125
 10
311.14453125
 20
46.51171875
 10
313.41796875
 20
48.5703125
 10
315.69140625
 20
50.6328125
 10
317.9140625
 20
52.74609375
 10
320.08203125
 20
54.91796875
 10
322.25390625
 20
57.0859375
 10
324.3671875
 20
59.30859375
 10
326.4296875
 20
61.58203125
 10
328.48828125
 20
63.85546875
 10
330.4921875
 20
66.1796875
 10
332.4375
 20
68.55078125
 10
334.38671875
 20
70.921875
 10
336.2734375
 20
73.33984375
 10
338.1015625
 20
75.8046875
 10
339.9296875
 20
78.26953125
 10
341.6953125
 20
80.77734375
 10
343.40234375
 20
83.33203125
 10
345.10546875
 20
85.88281249999999
 10
346.74609375
 20
88.47265625
 10
348.32421875
 20
91.10546875
 10
349.90234375
 20
93.73828125000001
 10
351.4140625
 20
96.40625
 10
352.859375
 20
99.11328125
 10
354.30859375
 20
101.8203125
 10
355.6875
 20
104.55859375
 10
356.99609375
 20
107.33203125
 10
358.30859375
 20
110.109375
 10
359.5546875
 20
112.91015625
 10
360.7265625
 20
115.74609375
 10
361.90234375
 20
118.58203125
 10
363.00390625
 20
121.4453125
 10
364.0390625
 20
124.33203125
 10
365.07421875
 20
127.22265625
 10
366.03515625
 20
130.13671875
 10
366.92578125
 20
133.0703125
 10
367.81640625
 20
136.0078125
 10
368.63671875
 20
138.96484375
 10
369.37890625
 20
141.94140625
 10
370.125
 20
144.91796875
 10
370.796875
 20
147.91015625
 10
371.3984375
 20
150.921875
 10
371.99609375
 20
153.9296875
 10
372.51953125
 20
156.953125
 10
372.96875
 20
159.98828125
 10
373.421875
 20
163.0234375
 10
373.796875
 20
166.06640625
 10
374.09765625
 20
169.12109375
 10
374.3984375
 20
172.17578125
 10
374.625
 20
175.234375
 10
374.7734375
 20
178.30078125
 10
374.92578125
 20
181.36328125
 10
375.0
 20
184.4296875
 10
375.0
 20
187.5
 10
375.0
 20
190.5703125
 10
374.92578125
 20
193.63671875
 10
374.7734375
 20
196.69921875
 10
374.625
 20
199.765625
 10
374.3984375
 20
202.82421875
 10
374.09765625
 20
205.87890625
 10
373.796875
 20
208.93359375
 10
373.421875
 20
211.9765625
 10
372.96875
 20
215.01171875
 10
372.51953125
 20
218.046875
 10
371.99609375
 20
221.0703125
 10
371.3984375
 20
224.078125
 10
370.796875
 20
227.08984375
 10
370.125
 20
230.08203125
 10
369.37890625
 20
233.05859375
 10
368.63671875
 20
236.03515625
 10
367.81640625
 20
238.9921875
 10
366.92578125
 20
241.9296875
 10
366.03515625
 20
244.86328125
 10
365.07421875
 20
247.77734375
 10
364.0390625
 20
250.66796875
 10
363.00390625
 20
253.5546875
 10
361.90234375
 20
256.41796875
 10
360.7265625
 20
259.25390625
 10
359.5546875
 20
262.08984375
 10
358.30859375
 20
264.89453125
 10
356.99609375
 20
267.66796875
 10
355.6875
 20
270.44140625
 10
354.30859375
 20
273.1796875
 10
352.859375
 20
275.88671875
 10
351.4140625
 20
278.59375
 10
349.90234375
 20
281.26171875
 10
348.32421875
 20
283.89453125
 10
346.74609375
 20
286.52734375
 10
345.10546875
 20
289.1171875
 10
343.40234375
 20
291.66796875
 10
341.6953125
 20
294.22265625
 10
339.9296875
 20
296.73046875
 10
338.1015625
 20
299.1953125
 10
336.2734375
 20
301.66015625
 10
334.38671875
 20
304.078125
 10
332.4375
 20
306.44921875
 10
330.4921875
 20
308.8203125
 10
328.48828125
 20
311.14453125
 10
326.4296875
 20
313.41796875
 10
324.3671875
 20
315.69140625
 10
322.25390625
 20
317.9140625
 10
320.08203125
 20
320.08203125
 10
317.9140625
 20
322.25390625
 10
315.69140625
 20
324.3671875
 10
313.41796875
 20
326.4296875
 10
311.14453125
 20
328.48828125
 10
308.8203125
 20
330.4921875
 10
306.44921875
 20
332.44140625
 10
304.078125
 20
334.38671875
 10
301.66015625
 20
336.2734375
 10
299.1953125
 20
338.1015625
 10
296.73046875
 20
339.9296875
 10
294.22265625
 20
341.6953125
 10
291.66796875
 20
343.40234375
 10
289.1171875
 20
345.10546875
 10
286.52734375
 20
346.74609375
 10
283.89453125
 20
348.32421875
 10
281.26171875
 20
349.90234375
 10
278.59375
 20
351.4140625
 10
275.88671875
 20
352.859375
 10
273.1796875
 20
354.30859375
 10
270.44140625
 20
355.6875
 10
267.66796875
 20
356.99609375
 10
264.890625
 20
358.30859375
 10
262.08984375
 20
359.5546884536743
 10
259.25390625
 20
360.7265615463257
 10
256.41796875
 20
361.90234375
 10
253.5546875
 20
363.00390625
 10
250.66796875
 20
364.0390615463257
 10
247.77734375
 20
365.07421875
 10
244.86328125
 20
366.03515625
 10
241.9296875
 20
366.92578125
 10
238.9921875
 20
367.8164057731629
 10
236.03515625
 20
368.6367192268372
 10
233.05859375
 20
369.3828120231628
 10
230.08203125
 20
370.125
 10
227.08984375
 20
370.796875
 10
224.078125
 20
371.3984379768372
 10
221.0703125
 20
371.9960939884186
 10
218.046875
 20
372.5195310115814
 10
215.01171875
 20
372.96875
 10
211.9765625
 20
373.421875
 10
208.93359375
 20
373.796875
 10
205.87890625
 20
374.0976560115814
 10
202.82421875
 20
374.3984379768372
 10
199.765625
 20
374.625
 10
196.69921875
 20
374.7734380066395
 10
193.63671875
 20
374.925781197846
 10
190.5703125
 20
375.0
 10
187.5
 20
375.0
 97
        0
 97
        1
330
7D
 75
     2
 76
     1
 98
        1
 10
0.0
 20
0.0
450
        0
451
        0
460
0.0
461
0.0
452
        0
462
0.0
453
        0
470

  0
SPLINE
  5
7F
330
79
100
AcDbEntity
  8
Graphic
100
AcDbSpline
210
0.0
220
0.0
230
1.0
 70
    11
 71
     3
 72
   389
 73
   385
 74
     0
 42
0.0000000001
 43
0.0000000001
 40
0.0
 40
0.0
 40
0.0
 40
0.0
 40
1.0
 40
1.0
 40
1.0
 40
2.0
 40
2.0
 40
2.0
 40
3.0
 40
3.0
 40
3.0
 40
4.0
 40
4.0
 40
4.0
 40
5.0
 40
5.0
 40
5.0
 40
6.0
 40
6.0
 40
6.0
 40
7.0
 40
7.0
 40
7.0
 40
8.0
 40
8.0
 40
8.0
 40
9.0
 40
9.0
 40
9.0
 40
10.0
 40
10.0
 40
10.0
 40
11.0
 40
11.0
 40
11.0
 40
12.0
 40
12.0
 40
12.0
 40
13.0
 40
13.0
 40
13.0
 40
14.0
 40
14.0
 40
14.0
 40
15.0
 40
15.0
 40
15.0
 40
16.0
 40
16.0
 40
16.0
 40
17.0
 40
17.0
 40
17.0
 40
18.0
 40
18.0
 40
18.0
 40
19.0
 40
19.0
 40
19.0
 40
20.0
 40
20.0
 40
20.0
 40
21.0
 40
21.0
 40
21.0
 40
22.0
 40
22.0
 40
22.0
 40
23.0
 40
23.0
 40
23.0
 40
24.0
 40
24.0
 40
24.0
 40
25.0
 40
25.0
 40
25.0
 40
26.0
 40
26.0
 40
26.0
 40
27.0
 40
27.0
 40
27.0
 40
28.0
 40
28.0
 40
28.0
 40
29.0
 40
29.0
 40
29.0
 40
30.0
 40
30.0
 40
30.0
 40
31.0
 40
31.0
 40
31.0
 40
32.0
 40
32.0
 40
32.0
 40
33.0
 40
33.0
 40
33.0
 40
34.0
 40
34.0
 40
34.0
 40
35.0
 40
35.0
 40
35.0
 40
36.0
 40
36.0
 40
36.0
 40
37.0
 40
37.0
 40
37.0
 40
38.0
 40
38.0
 40
38.0
 40
39.0
 40
39.0
 40
39.0
 40
40.0
 40
40.0
 40
40.0
 40
41.0
 40
41.0
 40
41.0
 40
42.0
 40
42.0
 40
42.0
 40
43.0
 40
43.0
 40
43.0
 40
44.0
 40
44.0
 40
44.0
 40
45.0
 40
45.0
 40
45.0
 40
46.0
 40
46.0
 40
46.0
 40
47.0
 40
47.0
 40
47.0
 40
48.0
 40
48.0
 40
48.0
 40
49.0
 40
49.0
 40
49.0
 40
50.0
 40
50.0
 40
50.0
 40
51.0
 40
51.0
 40
51.0
 40
52.0
 40
52.0
 40
52.0
 40
53.0
 40
53.0
 40
53.0
 40
54.0
 40
54.0
 40
54.0
 40
55.0
 40
55.0
 40
55.0
 40
56.0
 40
56.0
 40
56.0
 40
57.0
 40
57.0
 40
57.0
 40
58.0
 40
58.0
 40
58.0
 40
59.0
 40
59.0
 40
59.0
 40
60.0
 40
60.0
 40
60.0
 40
61.0
 40
61.0
 40
61.0
 40
62.0
 40
62.0
 40
62.0
 40
63.0
 40
63.0
 40
63.0
 40
64.0
 40
64.0
 40
64.0
 40
65.0
 40
65.0
 40
65.0
 40
66.0
 40
66.0
 40
66.0
 40
67.0
 40
67.0
 40
67.0
 40
68.0
 40
68.0
 40
68.0
 40
69.0
 40
69.0
 40
69.0
 40
70.0
 40
70.0
 40
70.0
 40
71.0
 40
71.0
 40
71.0
 40
72.0
 40
72.0
 40
72.0
 40
73.0
 40
73.0
 40
73.0
 40
74.0
 40
74.0
 40
74.0
 40
75.0
 40
75.0
 40
75.0
 40
76.0
 40
76.0
 40
76.0
 40
77.0
 40
77.0
 40
77.0
 40
78.0
 40
78.0
 40
78.0
 40
79.0
 40
79.0
 40
79.0
 40
80.0
 40
80.0
 40
80.0
 40
81.0
 40
81.0
 40
81.0
 40
82.0
 40
82.0
 40
82.0
 40
83.0
 40
83.0
 40
83.0
 40
84.0
 40
84.0
 40
84.0
 40
85.0
 40
85.0
 40
85.0
 40
86.0
 40
86.0
 40
86.0
 40
87.0
 40
87.0
 40
87.0
 40
88.0
 40
88.0
 40
88.0
 40
89.0
 40
89.0
 40
89.0
 40
90.0
 40
90.0
 40
90.0
 40
91.0
 40
91.0
 40
91.0
 40
92.0
 40
92.0
 40
92.0
 40
93.0
 40
93.0
 40
93.0
 40
94.0
 40
94.0
 40
94.0
 40
95.0
 40
95.0
 40
95.0
 40
96.0
 40
96.0
 40
96.0
 40
97.0
 40
97.0
 40
97.0
 40
98.0
 40
98.0
 40
98.0
 40
99.0
 40
99.0
 40
99.0
 40
100.0
 40
100.0
 40
100.0
 40
101.0
 40
101.0
 40
101.0
 40
102.0
 40
102.0
 40
102.0
 40
103.0
 40
103.0
 40
103.0
 40
104.0
 40
104.0
 40
104.0
 40
105.0
 40
105.0
 40
105.0
 40
106.0
 40
106.0
 40
106.0
 40
107.0
 40
107.0
 40
107.0
 40
108.0
 40
108.0
 40
108.0
 40
109.0
 40
109.0
 40
109.0
 40
110.0
 40
110.0
 40
110.0
 40
111.0
 40
111.0
 40
111.0
 40
112.0
 40
112.0
 40
112.0
 40
113.0
 40
113.0
 40
113.0
 40
114.0
 40
114.0
 40
114.0
 40
115.0
 40
115.0
 40
115.0
 40
116.0
 40
116.0
 40
116.0
 40
117.0
 40
117.0
 40
117.0
 40
118.0
 40
118.0
 40
118.0
 40
119.0
 40
119.0
 40
119.0
 40
120.0
 40
120.0
 40
120.0
 40
121.0
 40
121.0
 40
121.0
 40
122.0
 40
122.0
 40
122.0
 40
123.0
 40
123.0
 40
123.0
 40
124.0
 40
124.0
 40
124.0
 40
125.0
 40
125.0
 40
125.0
 40
126.0
 40
126.0
 40
126.0
 40
127.0
 40
127.0
 40
127.0
 40
128.0
 40
128.0
 40
128.0
 40
128.0
 10
187.5
 20
293.78515625
 30
0.0
 10
185.76171875
 20
293.78515625
 30
0.0
 10
184.0234375
 20
293.7421875
 30
0.0
 10
182.28515625
 20
293.65625
 30
0.0
 10
180.546875
 20
293.5703125
 30
0.0
 10
178.8125
 20
293.4453125
 30
0.0
 10
177.08203125
 20
293.2734375
 30
0.0
 10
175.3515625
 20
293.1015625
 30
0.0
 10
173.625
 20
292.890625
 30
0.0
 10
171.90625
 20
292.6328125
 30
0.0
 10
170.18359375
 20
292.37890625
 30
0.0
 10
168.47265625
 20
292.08203125
 30
0.0
 10
166.765625
 20
291.7421875
 30
0.0
 10
165.05859375
 20
291.40234375
 30
0.0
 10
163.36328125
 20
291.0234375
 30
0.0
 10
161.67578125
 20
290.6015625
 30
0.0
 10
159.98828125
 20
290.17578125
 30
0.0
 10
158.3125
 20
289.71484375
 30
0.0
 10
156.6484375
 20
289.20703125
 30
0.0
 10
154.984375
 20
288.703125
 30
0.0
 10
153.33203125
 20
288.15625
 30
0.0
 10
151.6953125
 20
287.5703125
 30
0.0
 10
150.0546875
 20
286.984375
 30
0.0
 10
148.43359375
 20
286.359375
 30
0.0
 10
146.828125
 20
285.6953125
 30
0.0
 10
145.21875
 20
285.02734375
 30
0.0
 10
143.62890625
 20
284.32421875
 30
0.0
 10
142.05859375
 20
283.58203125
 30
0.0
 10
140.484375
 20
282.8359375
 30
0.0
 10
138.9296875
 20
282.0546875
 30
0.0
 10
137.3984375
 20
281.234375
 30
0.0
 10
135.86328125
 20
280.4140625
 30
0.0
 10
134.3515625
 20
279.55859375
 30
0.0
 10
132.859375
 20
278.6640625
 30
0.0
 10
131.3671875
 20
277.76953125
 30
0.0
 10
129.8984375
 20
276.83984375
 30
0.0
 10
128.44921875
 20
275.87109375
 30
0.0
 10
127.00390625
 20
274.90625
 30
0.0
 10
125.58203125
 20
273.90625
 30
0.0
 10
124.1875
 20
272.8671875
 30
0.0
 10
122.7890625
 20
271.83203125
 30
0.0
 10
121.41796875
 20
270.76171875
 30
0.0
 10
120.07421875
 20
269.66015625
 30
0.0
 10
118.73046875
 20
268.5546875
 30
0.0
 10
117.4140625
 20
267.421875
 30
0.0
 10
116.125
 20
266.25390625
 30
0.0
 10
114.8359375
 20
265.08203125
 30
0.0
 10
113.57421875
 20
263.88671875
 30
0.0
 10
112.34375
 20
262.65625
 30
0.0
 10
111.11328125
 20
261.42578125
 30
0.0
 10
109.91796875
 20
260.1640625
 30
0.0
 10
108.74609375
 20
258.875
 30
0.0
 10
107.578125
 20
257.58984375
 30
0.0
 10
106.4453125
 20
256.26953125
 30
0.0
 10
105.33984375
 20
254.92578125
 30
0.0
 10
104.23828125
 20
253.58203125
 30
0.0
 10
103.16796875
 20
252.2109375
 30
0.0
 10
102.1328125
 20
250.8125
 30
0.0
 10
101.09375
 20
249.41796875
 30
0.0
 10
100.09375
 20
247.99609375
 30
0.0
 10
99.12890625000001
 20
246.55078125
 30
0.0
 10
98.16015625
 20
245.1015625
 30
0.0
 10
97.23046875000001
 20
243.6328125
 30
0.0
 10
96.33593750000001
 20
242.140625
 30
0.0
 10
95.44140625
 20
240.6484375
 30
0.0
 10
94.5859375
 20
239.13671875
 30
0.0
 10
93.765625
 20
237.6015625
 30
0.0
 10
92.9453125
 20
236.0703125
 30
0.0
 10
92.1640625
 20
234.515625
 30
0.0
 10
91.41796875
 20
232.94140625
 30
0.0
 10
90.67578125
 20
231.37109375
 30
0.0
 10
89.97265625
 20
229.78125
 30
0.0
 10
89.30468750000001
 20
228.171875
 30
0.0
 10
88.64062500000001
 20
226.56640625
 30
0.0
 10
88.01562500000001
 20
224.9453125
 30
0.0
 10
87.42968750000001
 20
223.3046875
 30
0.0
 10
86.84375000000001
 20
221.66796875
 30
0.0
 10
86.29687500000001
 20
220.015625
 30
0.0
 10
85.79296875
 20
218.3515625
 30
0.0
 10
85.28515625
 20
216.6875
 30
0.0
 10
84.82421875
 20
215.01171875
 30
0.0
 10
84.39843749999999
 20
213.32421875
 30
0.0
 10
83.9765625
 20
211.63671875
 30
0.0
 10
83.59765624999999
 20
209.94140625
 30
0.0
 10
83.2578125
 20
208.234375
 30
0.0
 10
82.91796875000001
 20
206.52734375
 30
0.0
 10
82.62109374999999
 20
204.81640625
 30
0.0
 10
82.36718749999999
 20
203.09375
 30
0.0
 10
82.109375
 20
201.375
 30
0.0
 10
81.89843749999999
 20
199.6484375
 30
0.0
 10
81.72656250000001
 20
197.91796875
 30
0.0
 10
81.5546875
 20
196.1875
 30
0.0
 10
81.42968749999999
 20
194.453125
 30
0.0
 10
81.34375
 20
192.71484375
 30
0.0
 10
81.25781250000001
 20
190.9765625
 30
0.0
 10
81.21484374999999
 20
189.23828125
 30
0.0
 10
81.21484374999999
 20
187.5
 30
0.0
 10
81.21484374999999
 20
185.76171875
 30
0.0
 10
81.25781250000001
 20
184.0234375
 30
0.0
 10
81.34375
 20
182.28515625
 30
0.0
 10
81.42968749999999
 20
180.546875
 30
0.0
 10
81.5546875
 20
178.8125
 30
0.0
 10
81.72656250000001
 20
177.08203125
 30
0.0
 10
81.89843749999999
 20
175.3515625
 30
0.0
 10
82.109375
 20
173.625
 30
0.0
 10
82.36718749999999
 20
171.90625
 30
0.0
 10
82.62109374999999
 20
170.18359375
 30
0.0
 10
82.91796875000001
 20
168.47265625
 30
0.0
 10
83.2578125
 20
166.765625
 30
0.0
 10
83.59765624999999
 20
165.05859375
 30
0.0
 10
83.9765625
 20
163.36328125
 30
0.0
 10
84.39843749999999
 20
161.67578125
 30
0.0
 10
84.82421875
 20
159.98828125
 30
0.0
 10
85.28515625
 20
158.3125
 30
0.0
 10
85.79296875
 20
156.6484375
 30
0.0
 10
86.29687500000001
 20
154.984375
 30
0.0
 10
86.84375000000001
 20
153.33203125
 30
0.0
 10
87.42968750000001
 20
151.6953125
 30
0.0
 10
88.01562500000001
 20
150.0546875
 30
0.0
 10
88.64062500000001
 20
148.43359375
 30
0.0
 10
89.30468750000001
 20
146.828125
 30
0.0
 10
89.97265625
 20
145.21875
 30
0.0
 10
90.67578125
 20
143.62890625
 30
0.0
 10
91.41796875
 20
142.05859375
 30
0.0
 10
92.1640625
 20
140.484375
 30
0.0
 10
92.9453125
 20
138.9296875
 30
0.0
 10
93.765625
 20
137.3984375
 30
0.0
 10
94.5859375
 20
135.86328125
 30
0.0
 10
95.44140625
 20
134.3515625
 30
0.0
 10
96.33593750000001
 20
132.859375
 30
0.0
 10
97.23046875000001
 20
131.3671875
 30
0.0
 10
98.16015625
 20
129.8984375
 30
0.0
 10
99.12890625000001
 20
128.453125
 30
0.0
 10
100.09375
 20
127.00390625
 30
0.0
 10
101.09375
 20
125.58203125
 30
0.0
 10
102.1328125
 20
124.1875
 30
0.0
 10
103.16796875
 20
122.7890625
 30
0.0
 10
104.23828125
 20
121.41796875
 30
0.0
 10
105.33984375
 20
120.07421875
 30
0.0
 10
106.4453125
 20
118.73046875
 30
0.0
 10
107.578125
 20
117.4140625
 30
0.0
 10
108.74609375
 20
116.125
 30
0.0
 10
109.91796875
 20
114.8359375
 30
0.0
 10
111.11328125
 20
113.57421875
 30
0.0
 10
112.34375
 20
112.34375
 30
0.0
 10
113.57421875
 20
111.11328125
 30
0.0
 10
114.8359375
 20
109.91796875
 30
0.0
 10
116.125
 20
108.74609375
 30
0.0
 10
117.4140625
 20
107.578125
 30
0.0
 10
118.73046875
 20
106.4453125
 30
0.0
 10
120.07421875
 20
105.33984375
 30
0.0
 10
121.41796875
 20
104.23828125
 30
0.0
 10
122.7890625
 20
103.16796875
 30
0.0
 10
124.1875
 20
102.1328125
 30
0.0
 10
125.58203125
 20
101.09375
 30
0.0
 10
127.00390625
 20
100.09375
 30
0.0
 10
128.44921875
 20
99.12890625000001
 30
0.0
 10
129.8984375
 20
98.16015625
 30
0.0
 10
131.3671875
 20
97.23046875000001
 30
0.0
 10
132.859375
 20
96.33593750000001
 30
0.0
 10
134.3515625
 20
95.44140625
 30
0.0
 10
135.86328125
 20
94.5859375
 30
0.0
 10
137.3984375
 20
93.765625
 30
0.0
 10
138.9296875
 20
92.9453125
 30
0.0
 10
140.484375
 20
92.1640625
 30
0.0
 10
142.05859375
 20
91.41796875
 30
0.0
 10
143.62890625
 20
90.67578125
 30
0.0
 10
145.21875
 20
89.97265625
 30
0.0
 10
146.828125
 20
89.30468750000001
 30
0.0
 10
148.43359375
 20
88.64062500000001
 30
0.0
 10
150.0546875
 20
88.01562500000001
 30
0.0
 10
151.6953125
 20
87.42968750000001
 30
0.0
 10
153.33203125
 20
86.84375000000001
 30
0.0
 10
154.984375
 20
86.29687500000001
 30
0.0
 10
156.6484375
 20
85.79296875
 30
0.0
 10
158.3125
 20
85.28515625
 30
0.0
 10
159.98828125
 20
84.82421875
 30
0.0
 10
161.67578125
 20
84.39843749999999
 30
0.0
 10
163.36328125
 20
83.9765625
 30
0.0
 10
165.05859375
 20
83.59765624999999
 30
0.0
 10
166.765625
 20
83.2578125
 30
0.0
 10
168.47265625
 20
82.91796875000001
 30
0.0
 10
170.18359375
 20
82.62109374999999
 30
0.0
 10
171.90625
 20
82.36718749999999
 30
0.0
 10
173.625
 20
82.109375
 30
0.0
 10
175.3515625
 20
81.89843749999999
 30
0.0
 10
177.08203125
 20
81.72656250000001
 30
0.0
 10
178.8125
 20
81.5546875
 30
0.0
 10
180.546875
 20
81.42968749999999
 30
0.0
 10
182.28515625
 20
81.34375
 30
0.0
 10
184.0234375
 20
81.25781250000001
 30
0.0
 10
185.76171875
 20
81.21484374999999
 30
0.0
 10
187.5
 20
81.21484374999999
 30
0.0
 10
189.23828125
 20
81.21484374999999
 30
0.0
 10
190.9765625
 20
81.25781250000001
 30
0.0
 10
192.71484375
 20
81.34375
 30
0.0
 10
194.453125
 20
81.42968749999999
 30
0.0
 10
196.1875
 20
81.5546875
 30
0.0
 10
197.91796875
 20
81.72656250000001
 30
0.0
 10
199.6484375
 20
81.89843749999999
 30
0.0
 10
201.375
 20
82.109375
 30
0.0
 10
203.09375
 20
82.36718749999999
 30
0.0
 10
204.81640625
 20
82.62109374999999
 30
0.0
 10
206.52734375
 20
82.91796875000001
 30
0.0
 10
208.234375
 20
83.2578125
 30
0.0
 10
209.94140625
 20
83.59765624999999
 30
0.0
 10
211.63671875
 20
83.9765625
 30
0.0
 10
213.32421875
 20
84.39843749999999
 30
0.0
 10
215.01171875
 20
84.82421875
 30
0.0
 10
216.6875
 20
85.28515625
 30
0.0
 10
218.3515625
 20
85.79296875
 30
0.0
 10
220.015625
 20
86.29687500000001
 30
0.0
 10
221.66796875
 20
86.84375000000001
 30
0.0
 10
223.3046875
 20
87.42968750000001
 30
0.0
 10
224.9453125
 20
88.01562500000001
 30
0.0
 10
226.56640625
 20
88.64062500000001
 30
0.0
 10
228.171875
 20
89.30468750000001
 30
0.0
 10
229.78125
 20
89.97265625
 30
0.0
 10
231.37109375
 20
90.67578125
 30
0.0
 10
232.94140625
 20
91.41796875
 30
0.0
 10
234.515625
 20
92.1640625
 30
0.0
 10
236.0703125
 20
92.9453125
 30
0.0
 10
237.6015625
 20
93.765625
 30
0.0
 10
239.13671875
 20
94.5859375
 30
0.0
 10
240.6484375
 20
95.44140625
 30
0.0
 10
242.140625
 20
96.33593750000001
 30
0.0
 10
243.6328125
 20
97.23046875000001
 30
0.0
 10
245.1015625
 20
98.16015625
 30
0.0
 10
246.546875
 20
99.12890625000001
 30
0.0
 10
247.99609375
 20
100.09375
 30
0.0
 10
249.41796875
 20
101.09375
 30
0.0
 10
250.8125
 20
102.1328125
 30
0.0
 10
252.2109375
 20
103.16796875
 30
0.0
 10
253.58203125
 20
104.23828125
 30
0.0
 10
254.92578125
 20
105.33984375
 30
0.0
 10
256.26953125
 20
106.4453125
 30
0.0
 10
257.5859375
 20
107.578125
 30
0.0
 10
258.875
 20
108.74609375
 30
0.0
 10
260.1640625
 20
109.91796875
 30
0.0
 10
261.42578125
 20
111.11328125
 30
0.0
 10
262.65625
 20
112.34375
 30
0.0
 10
263.88671875
 20
113.57421875
 30
0.0
 10
265.08203125
 20
114.8359375
 30
0.0
 10
266.25390625
 20
116.125
 30
0.0
 10
267.421875
 20
117.4140625
 30
0.0
 10
268.5546875
 20
118.73046875
 30
0.0
 10
269.66015625
 20
120.07421875
 30
0.0
 10
270.76171875
 20
121.41796875
 30
0.0
 10
271.83203125
 20
122.7890625
 30
0.0
 10
272.8671875
 20
124.1875
 30
0.0
 10
273.90625
 20
125.58203125
 30
0.0
 10
274.90625
 20
127.00390625
 30
0.0
 10
275.87109375
 20
128.453125
 30
0.0
 10
276.83984375
 20
129.8984375
 30
0.0
 10
277.76953125
 20
131.3671875
 30
0.0
 10
278.6640625
 20
132.859375
 30
0.0
 10
279.55859375
 20
134.3515625
 30
0.0
 10
280.4140625
 20
135.86328125
 30
0.0
 10
281.234375
 20
137.3984375
 30
0.0
 10
282.0546875
 20
138.9296875
 30
0.0
 10
282.8359375
 20
140.484375
 30
0.0
 10
283.58203125
 20
142.05859375
 30
0.0
 10
284.32421875
 20
143.62890625
 30
0.0
 10
285.02734375
 20
145.21875
 30
0.0
 10
285.6953125
 20
146.828125
 30
0.0
 10
286.359375
 20
148.43359375
 30
0.0
 10
286.984375
 20
150.0546875
 30
0.0
 10
287.5703125
 20
151.6953125
 30
0.0
 10
288.15625
 20
153.33203125
 30
0.0
 10
288.703125
 20
154.984375
 30
0.0
 10
289.20703125
 20
156.6484375
 30
0.0
 10
289.71484375
 20
158.3125
 30
0.0
 10
290.17578125
 20
159.98828125
 30
0.0
 10
290.6015625
 20
161.67578125
 30
0.0
 10
291.0234375
 20
163.36328125
 30
0.0
 10
291.40234375
 20
165.05859375
 30
0.0
 10
291.7421875
 20
166.765625
 30
0.0
 10
292.08203125
 20
168.47265625
 30
0.0
 10
292.37890625
 20
170.18359375
 30
0.0
 10
292.6328125
 20
171.90625
 30
0.0
 10
292.890625
 20
173.625
 30
0.0
 10
293.1015625
 20
175.3515625
 30
0.0
 10
293.2734375
 20
177.08203125
 30
0.0
 10
293.4453125
 20
178.8125
 30
0.0
 10
293.5703125
 20
180.546875
 30
0.0
 10
293.65625
 20
182.28515625
 30
0.0
 10
293.7421875
 20
184.0234375
 30
0.0
 10
293.78515625
 20
185.76171875
 30
0.0
 10
293.78515625
 20
187.5
 30
0.0
 10
293.78515625
 20
189.23828125
 30
0.0
 10
293.7421875
 20
190.9765625
 30
0.0
 10
293.65625
 20
192.71484375
 30
0.0
 10
293.5703125
 20
194.453125
 30
0.0
 10
293.4453125
 20
196.1875
 30
0.0
 10
293.2734375
 20
197.91796875
 30
0.0
 10
293.1015625
 20
199.6484375
 30
0.0
 10
292.890625
 20
201.375
 30
0.0
 10
292.6328125
 20
203.09375
 30
0.0
 10
292.37890625
 20
204.81640625
 30
0.0
 10
292.08203125
 20
206.52734375
 30
0.0
 10
291.7421875
 20
208.234375
 30
0.0
 10
291.40234375
 20
209.94140625
 30
0.0
 10
291.0234375
 20
211.63671875
 30
0.0
 10
290.6015625
 20
213.32421875
 30
0.0
 10
290.17578125
 20
215.01171875
 30
0.0
 10
289.71484375
 20
216.6875
 30
0.0
 10
289.20703125
 20
218.3515625
 30
0.0
 10
288.703125
 20
220.015625
 30
0.0
 10
288.15625
 20
221.66796875
 30
0.0
 10
287.5703125
 20
223.3046875
 30
0.0
 10
286.984375
 20
224.9453125
 30
0.0
 10
286.359375
 20
226.56640625
 30
0.0
 10
285.6953125
 20
228.171875
 30
0.0
 10
285.02734375
 20
229.78125
 30
0.0
 10
284.32421875
 20
231.37109375
 30
0.0
 10
283.58203125
 20
232.94140625
 30
0.0
 10
282.8359375
 20
234.515625
 30
0.0
 10
282.0546875
 20
236.0703125
 30
0.0
 10
281.234375
 20
237.6015625
 30
0.0
 10
280.4140625
 20
239.13671875
 30
0.0
 10
279.55859375
 20
240.6484375
 30
0.0
 10
278.6640625
 20
242.140625
 30
0.0
 10
277.76953125
 20
243.6328125
 30
0.0
 10
276.83984375
 20
245.1015625
 30
0.0
 10
275.87109375
 20
246.55078125
 30
0.0
 10
274.90625
 20
247.99609375
 30
0.0
 10
273.90625
 20
249.41796875
 30
0.0
 10
272.8671875
 20
250.8125
 30
0.0
 10
271.83203125
 20
252.2109375
 30
0.0
 10
270.76171875
 20
253.58203125
 30
0.0
 10
269.66015625
 20
254.92578125
 30
0.0
 10
268.5546875
 20
256.26953125
 30
0.0
 10
267.421875
 20
257.58984375
 30
0.0
 10
266.25390625
 20
258.875
 30
0.0
 10
265.08203125
 20
260.1640625
 30
0.0
 10
263.88671875
 20
261.42578125
 30
0.0
 10
262.65625
 20
262.65625
 30
0.0
 10
261.42578125
 20
263.88671875
 30
0.0
 10
260.1640625
 20
265.08203125
 30
0.0
 10
258.875
 20
266.25390625
 30
0.0
 10
257.5859375
 20
267.421875
 30
0.0
 10
256.26953125
 20
268.5546875
 30
0.0
 10
254.92578125
 20
269.66015625
 30
0.0
 10
253.58203125
 20
270.76171875
 30
0.0
 10
252.2109375
 20
271.83203125
 30
0.0
 10
250.8125
 20
272.8671875
 30
0.0
 10
249.41796875
 20
273.90625
 30
0.0
 10
247.99609375
 20
274.90625
 30
0.0
 10
246.546875
 20
275.87109375
 30
0.0
 10
245.1015625
 20
276.83984375
 30
0.0
 10
243.6328125
 20
277.76953125
 30
0.0
 10
242.140625
 20
278.6640625
 30
0.0
 10
240.6484375
 20
279.55859375
 30
0.0
 10
239.13671875
 20
280.4140625
 30
0.0
 10
237.6015625
 20
281.234375
 30
0.0
 10
236.0703125
 20
282.0546875
 30
0.0
 10
234.515625
 20
282.8359375
 30
0.0
 10
232.94140625
 20
283.58203125
 30
0.0
 10
231.37109375
 20
284.32421875
 30
0.0
 10
229.78125
 20
285.02734375
 30
0.0
 10
228.171875
 20
285.6953125
 30
0.0
 10
226.56640625
 20
286.359375
 30
0.0
 10
224.9453125
 20
286.984375
 30
0.0
 10
223.3046875
 20
287.5703125
 30
0.0
 10
221.66796875
 20
288.15625
 30
0.0
 10
220.015625
 20
288.703125
 30
0.0
 10
218.3515625
 20
289.20703125
 30
0.0
 10
216.6875
 20
289.71484375
 30
0.0
 10
215.01171875
 20
290.17578125
 30
0.0
 10
213.32421875
 20
290.6015625
 30
0.0
 10
211.63671875
 20
291.0234375
 30
0.0
 10
209.94140625
 20
291.40234375
 30
0.0
 10
208.234375
 20
291.7421875
 30
0.0
 10
206.52734375
 20
292.08203125
 30
0.0
 10
204.81640625
 20
292.37890625
 30
0.0
 10
203.09375
 20
292.6328125
 30
0.0
 10
201.375
 20
292.890625
 30
0.0
 10
199.6484375
 20
293.1015625
 30
0.0
 10
197.91796875
 20
293.2734375
 30
0.0
 10
196.1875
 20
293.4453125
 30
0.0
 10
194.453125
 20
293.5703125
 30
0.0
 10
192.71484375
 20
293.65625
 30
0.0
 10
190.9765625
 20
293.7421875
 30
0.0
 10
189.23828125
 20
293.78515625
 30
0.0
 10
187.5
 20
293.78515625
 30
0.0
  0
HATCH
  5
80
330
79
100
AcDbEntity
  8
Graphic
 62
   160
420
  3034342
440
 33554687
100
AcDbHatch
 10
0.0
 20
0.0
 30
0.0
210
0.0
220
0.0
230
1.0
  2
SOLID
 70
     1
 71
     1
 91
        1
 92
        1
 93
        1
 72
     4
 94
        3
 73
     0
 74
     0
 95
      389
 96
      385
 40
0.0
 40
0.0
 40
0.0
 40
0.0
 40
1.0
 40
1.0
 40
1.0
 40
2.0
 40
2.0
 40
2.0
 40
3.0
 40
3.0
 40
3.0
 40
4.0
 40
4.0
 40
4.0
 40
5.0
 40
5.0
 40
5.0
 40
6.0
 40
6.0
 40
6.0
 40
7.0
 40
7.0
 40
7.0
 40
8.0
 40
8.0
 40
8.0
 40
9.0
 40
9.0
 40
9.0
 40
10.0
 40
10.0
 40
10.0
 40
11.0
 40
11.0
 40
11.0
 40
12.0
 40
12.0
 40
12.0
 40
13.0
 40
13.0
 40
13.0
 40
14.0
 40
14.0
 40
14.0
 40
15.0
 40
15.0
 40
15.0
 40
16.0
 40
16.0
 40
16.0
 40
17.0
 40
17.0
 40
17.0
 40
18.0
 40
18.0
 40
18.0
 40
19.0
 40
19.0
 40
19.0
 40
20.0
 40
20.0
 40
20.0
 40
21.0
 40
21.0
 40
21.0
 40
22.0
 40
22.0
 40
22.0
 40
23.0
 40
23.0
 40
23.0
 40
24.0
 40
24.0
 40
24.0
 40
25.0
 40
25.0
 40
25.0
 40
26.0
 40
26.0
 40
26.0
 40
27.0
 40
27.0
 40
27.0
 40
28.0
 40
28.0
 40
28.0
 40
29.0
 40
29.0
 40
29.0
 40
30.0
 40
30.0
 40
30.0
 40
31.0
 40
31.0
 40
31.0
 40
32.0
 40
32.0
 40
32.0
 40
33.0
 40
33.0
 40
33.0
 40
34.0
 40
34.0
 40
34.0
 40
35.0
 40
35.0
 40
35.0
 40
36.0
 40
36.0
 40
36.0
 40
37.0
 40
37.0
 40
37.0
 40
38.0
 40
38.0
 40
38.0
 40
39.0
 40
39.0
 40
39.0
 40
40.0
 40
40.0
 40
40.0
 40
41.0
 40
41.0
 40
41.0
 40
42.0
 40
42.0
 40
42.0
 40
43.0
 40
43.0
 40
43.0
 40
44.0
 40
44.0
 40
44.0
 40
45.0
 40
45.0
 40
45.0
 40
46.0
 40
46.0
 40
46.0
 40
47.0
 40
47.0
 40
47.0
 40
48.0
 40
48.0
 40
48.0
 40
49.0
 40
49.0
 40
49.0
 40
50.0
 40
50.0
 40
50.0
 40
51.0
 40
51.0
 40
51.0
 40
52.0
 40
52.0
 40
52.0
 40
53.0
 40
53.0
 40
53.0
 40
54.0
 40
54.0
 40
54.0
 40
55.0
 40
55.0
 40
55.0
 40
56.0
 40
56.0
 40
56.0
 40
57.0
 40
57.0
 40
57.0
 40
58.0
 40
58.0
 40
58.0
 40
59.0
 40
59.0
 40
59.0
 40
60.0
 40
60.0
 40
60.0
 40
61.0
 40
61.0
 40
61.0
 40
62.0
 40
62.0
 40
62.0
 40
63.0
 40
63.0
 40
63.0
 40
64.0
 40
64.0
 40
64.0
 40
65.0
 40
65.0
 40
65.0
 40
66.0
 40
66.0
 40
66.0
 40
67.0
 40
67.0
 40
67.0
 40
68.0
 40
68.0
 40
68.0
 40
69.0
 40
69.0
 40
69.0
 40
70.0
 40
70.0
 40
70.0
 40
71.0
 40
71.0
 40
71.0
 40
72.0
 40
72.0
 40
72.0
 40
73.0
 40
73.0
 40
73.0
 40
74.0
 40
74.0
 40
74.0
 40
75.0
 40
75.0
 40
75.0
 40
76.0
 40
76.0
 40
76.0
 40
77.0
 40
77.0
 40
77.0
 40
78.0
 40
78.0
 40
78.0
 40
79.0
 40
79.0
 40
79.0
 40
80.0
 40
80.0
 40
80.0
 40
81.0
 40
81.0
 40
81.0
 40
82.0
 40
82.0
 40
82.0
 40
83.0
 40
83.0
 40
83.0
 40
84.0
 40
84.0
 40
84.0
 40
85.0
 40
85.0
 40
85.0
 40
86.0
 40
86.0
 40
86.0
 40
87.0
 40
87.0
 40
87.0
 40
88.0
 40
88.0
 40
88.0
 40
89.0
 40
89.0
 40
89.0
 40
90.0
 40
90.0
 40
90.0
 40
91.0
 40
91.0
 40
91.0
 40
92.0
 40
92.0
 40
92.0
 40
93.0
 40
93.0
 40
93.0
 40
94.0
 40
94.0
 40
94.0
 40
95.0
 40
95.0
 40
95.0
 40
96.0
 40
96.0
 40
96.0
 40
97.0
 40
97.0
 40
97.0
 40
98.0
 40
98.0
 40
98.0
 40
99.0
 40
99.0
 40
99.0
 40
100.0
 40
100.0
 40
100.0
 40
101.0
 40
101.0
 40
101.0
 40
102.0
 40
102.0
 40
102.0
 40
103.0
 40
103.0
 40
103.0
 40
104.0
 40
104.0
 40
104.0
 40
105.0
 40
105.0
 40
105.0
 40
106.0
 40
106.0
 40
106.0
 40
107.0
 40
107.0
 40
107.0
 40
108.0
 40
108.0
 40
108.0
 40
109.0
 40
109.0
 40
109.0
 40
110.0
 40
110.0
 40
110.0
 40
111.0
 40
111.0
 40
111.0
 40
112.0
 40
112.0
 40
112.0
 40
113.0
 40
113.0
 40
113.0
 40
114.0
 40
114.0
 40
114.0
 40
115.0
 40
115.0
 40
115.0
 40
116.0
 40
116.0
 40
116.0
 40
117.0
 40
117.0
 40
117.0
 40
118.0
 40
118.0
 40
118.0
 40
119.0
 40
119.0
 40
119.0
 40
120.0
 40
120.0
 40
120.0
 40
121.0
 40
121.0
 40
121.0
 40
122.0
 40
122.0
 40
122.0
 40
123.0
 40
123.0
 40
123.0
 40
124.0
 40
124.0
 40
124.0
 40
125.0
 40
125.0
 40
125.0
 40
126.0
 40
126.0
 40
126.0
 40
127.0
 40
127.0
 40
127.0
 40
128.0
 40
128.0
 40
128.0
 40
128.0
 10
187.5
 20
293.78515625
 10
185.76171875
 20
293.78515625
 10
184.0234375
 20
293.7421875
 10
182.28515625
 20
293.65625
 10
180.546875
 20
293.5703125
 10
178.8125
 20
293.4453125
 10
177.08203125
 20
293.2734375
 10
175.3515625
 20
293.1015625
 10
173.625
 20
292.890625
 10
171.90625
 20
292.6328125
 10
170.18359375
 20
292.37890625
 10
168.47265625
 20
292.08203125
 10
166.765625
 20
291.7421875
 10
165.05859375
 20
291.40234375
 10
163.36328125
 20
291.0234375
 10
161.67578125
 20
290.6015625
 10
159.98828125
 20
290.17578125
 10
158.3125
 20
289.71484375
 10
156.6484375
 20
289.20703125
 10
154.984375
 20
288.703125
 10
153.33203125
 20
288.15625
 10
151.6953125
 20
287.5703125
 10
150.0546875
 20
286.984375
 10
148.43359375
 20
286.359375
 10
146.828125
 20
285.6953125
 10
145.21875
 20
285.02734375
 10
143.62890625
 20
284.32421875
 10
142.05859375
 20
283.58203125
 10
140.484375
 20
282.8359375
 10
138.9296875
 20
282.0546875
 10
137.3984375
 20
281.234375
 10
135.86328125
 20
280.4140625
 10
134.3515625
 20
279.55859375
 10
132.859375
 20
278.6640625
 10
131.3671875
 20
277.76953125
 10
129.8984375
 20
276.83984375
 10
128.44921875
 20
275.87109375
 10
127.00390625
 20
274.90625
 10
125.58203125
 20
273.90625
 10
124.1875
 20
272.8671875
 10
122.7890625
 20
271.83203125
 10
121.41796875
 20
270.76171875
 10
120.07421875
 20
269.66015625
 10
118.73046875
 20
268.5546875
 10
117.4140625
 20
267.421875
 10
116.125
 20
266.25390625
 10
114.8359375
 20
265.08203125
 10
113.57421875
 20
263.88671875
 10
112.34375
 20
262.65625
 10
111.11328125
 20
261.42578125
 10
109.91796875
 20
260.1640625
 10
108.74609375
 20
258.875
 10
107.578125
 20
257.58984375
 10
106.4453125
 20
256.26953125
 10
105.33984375
 20
254.92578125
 10
104.23828125
 20
253.58203125
 10
103.16796875
 20
252.2109375
 10
102.1328125
 20
250.8125
 10
101.09375
 20
249.41796875
 10
100.09375
 20
247.99609375
 10
99.12890625000001
 20
246.55078125
 10
98.16015625
 20
245.1015625
 10
97.23046875000001
 20
243.6328125
 10
96.33593750000001
 20
242.140625
 10
95.44140625
 20
240.6484375
 10
94.5859375
 20
239.13671875
 10
93.765625
 20
237.6015625
 10
92.9453125
 20
236.0703125
 10
92.1640625
 20
234.515625
 10
91.41796875
 20
232.94140625
 10
90.67578125
 20
231.37109375
 10
89.97265625
 20
229.78125
 10
89.30468750000001
 20
228.171875
 10
88.64062500000001
 20
226.56640625
 10
88.01562500000001
 20
224.9453125
 10
87.42968750000001
 20
223.3046875
 10
86.84375000000001
 20
221.66796875
 10
86.29687500000001
 20
220.015625
 10
85.79296875
 20
218.3515625
 10
85.28515625
 20
216.6875
 10
84.82421875
 20
215.01171875
 10
84.39843749999999
 20
213.32421875
 10
83.9765625
 20
211.63671875
 10
83.59765624999999
 20
209.94140625
 10
83.2578125
 20
208.234375
 10
82.91796875000001
 20
206.52734375
 10
82.62109374999999
 20
204.81640625
 10
82.36718749999999
 20
203.09375
 10
82.109375
 20
201.375
 10
81.89843749999999
 20
199.6484375
 10
81.72656250000001
 20
197.91796875
 10
81.5546875
 20
196.1875
 10
81.42968749999999
 20
194.453125
 10
81.34375
 20
192.71484375
 10
81.25781250000001
 20
190.9765625
 10
81.21484374999999
 20
189.23828125
 10
81.21484374999999
 20
187.5
 10
81.21484374999999
 20
185.76171875
 10
81.25781250000001
 20
184.0234375
 10
81.34375
 20
182.28515625
 10
81.42968749999999
 20
180.546875
 10
81.5546875
 20
178.8125
 10
81.72656250000001
 20
177.08203125
 10
81.89843749999999
 20
175.3515625
 10
82.109375
 20
173.625
 10
82.36718749999999
 20
171.90625
 10
82.62109374999999
 20
170.18359375
 10
82.91796875000001
 20
168.47265625
 10
83.2578125
 20
166.765625
 10
83.59765624999999
 20
165.05859375
 10
83.9765625
 20
163.36328125
 10
84.39843749999999
 20
161.67578125
 10
84.82421875
 20
159.98828125
 10
85.28515625
 20
158.3125
 10
85.79296875
 20
156.6484375
 10
86.29687500000001
 20
154.984375
 10
86.84375000000001
 20
153.33203125
 10
87.42968750000001
 20
151.6953125
 10
88.01562500000001
 20
150.0546875
 10
88.64062500000001
 20
148.43359375
 10
89.30468750000001
 20
146.828125
 10
89.97265625
 20
145.21875
 10
90.67578125
 20
143.62890625
 10
91.41796875
 20
142.05859375
 10
92.1640625
 20
140.484375
 10
92.9453125
 20
138.9296875
 10
93.765625
 20
137.3984375
 10
94.5859375
 20
135.86328125
 10
95.44140625
 20
134.3515625
 10
96.33593750000001
 20
132.859375
 10
97.23046875000001
 20
131.3671875
 10
98.16015625
 20
129.8984375
 10
99.12890625000001
 20
128.453125
 10
100.09375
 20
127.00390625
 10
101.09375
 20
125.58203125
 10
102.1328125
 20
124.1875
 10
103.16796875
 20
122.7890625
 10
104.23828125
 20
121.41796875
 10
105.33984375
 20
120.07421875
 10
106.4453125
 20
118.73046875
 10
107.578125
 20
117.4140625
 10
108.74609375
 20
116.125
 10
109.91796875
 20
114.8359375
 10
111.11328125
 20
113.57421875
 10
112.34375
 20
112.34375
 10
113.57421875
 20
111.11328125
 10
114.8359375
 20
109.91796875
 10
116.125
 20
108.74609375
 10
117.4140625
 20
107.578125
 10
118.73046875
 20
106.4453125
 10
120.07421875
 20
105.33984375
 10
121.41796875
 20
104.23828125
 10
122.7890625
 20
103.16796875
 10
124.1875
 20
102.1328125
 10
125.58203125
 20
101.09375
 10
127.00390625
 20
100.09375
 10
128.44921875
 20
99.12890625000001
 10
129.8984375
 20
98.16015625
 10
131.3671875
 20
97.23046875000001
 10
132.859375
 20
96.33593750000001
 10
134.3515625
 20
95.44140625
 10
135.86328125
 20
94.5859375
 10
137.3984375
 20
93.765625
 10
138.9296875
 20
92.9453125
 10
140.484375
 20
92.1640625
 10
142.05859375
 20
91.41796875
 10
143.62890625
 20
90.67578125
 10
145.21875
 20
89.97265625
 10
146.828125
 20
89.30468750000001
 10
148.43359375
 20
88.64062500000001
 10
150.0546875
 20
88.01562500000001
 10
151.6953125
 20
87.42968750000001
 10
153.33203125
 20
86.84375000000001
 10
154.984375
 20
86.29687500000001
 10
156.6484375
 20
85.79296875
 10
158.3125
 20
85.28515625
 10
159.98828125
 20
84.82421875
 10
161.67578125
 20
84.39843749999999
 10
163.36328125
 20
83.9765625
 10
165.05859375
 20
83.59765624999999
 10
166.765625
 20
83.2578125
 10
168.47265625
 20
82.91796875000001
 10
170.18359375
 20
82.62109374999999
 10
171.90625
 20
82.36718749999999
 10
173.625
 20
82.109375
 10
175.3515625
 20
81.89843749999999
 10
177.08203125
 20
81.72656250000001
 10
178.8125
 20
81.5546875
 10
180.546875
 20
81.42968749999999
 10
182.28515625
 20
81.34375
 10
184.0234375
 20
81.25781250000001
 10
185.76171875
 20
81.21484374999999
 10
187.5
 20
81.21484374999999
 10
189.23828125
 20
81.21484374999999
 10
190.9765625
 20
81.25781250000001
 10
192.71484375
 20
81.34375
 10
194.453125
 20
81.42968749999999
 10
196.1875
 20
81.5546875
 10
197.91796875
 20
81.72656250000001
 10
199.6484375
 20
81.89843749999999
 10
201.375
 20
82.109375
 10
203.09375
 20
82.36718749999999
 10
204.81640625
 20
82.62109374999999
 10
206.52734375
 20
82.91796875000001
 10
208.234375
 20
83.2578125
 10
209.94140625
 20
83.59765624999999
 10
211.63671875
 20
83.9765625
 10
213.32421875
 20
84.39843749999999
 10
215.01171875
 20
84.82421875
 10
216.6875
 20
85.28515625
 10
218.3515625
 20
85.79296875
 10
220.015625
 20
86.29687500000001
 10
221.66796875
 20
86.84375000000001
 10
223.3046875
 20
87.42968750000001
 10
224.9453125
 20
88.01562500000001
 10
226.56640625
 20
88.64062500000001
 10
228.171875
 20
89.30468750000001
 10
229.78125
 20
89.97265625
 10
231.37109375
 20
90.67578125
 10
232.94140625
 20
91.41796875
 10
234.515625
 20
92.1640625
 10
236.0703125
 20
92.9453125
 10
237.6015625
 20
93.765625
 10
239.13671875
 20
94.5859375
 10
240.6484375
 20
95.44140625
 10
242.140625
 20
96.33593750000001
 10
243.6328125
 20
97.23046875000001
 10
245.1015625
 20
98.16015625
 10
246.546875
 20
99.12890625000001
 10
247.99609375
 20
100.09375
 10
249.41796875
 20
101.09375
 10
250.8125
 20
102.1328125
 10
252.2109375
 20
103.16796875
 10
253.58203125
 20
104.23828125
 10
254.92578125
 20
105.33984375
 10
256.26953125
 20
106.4453125
 10
257.5859375
 20
107.578125
 10
258.875
 20
108.74609375
 10
260.1640625
 20
109.91796875
 10
261.42578125
 20
111.11328125
 10
262.65625
 20
112.34375
 10
263.88671875
 20
113.57421875
 10
265.08203125
 20
114.8359375
 10
266.25390625
 20
116.125
 10
267.421875
 20
117.4140625
 10
268.5546875
 20
118.73046875
 10
269.66015625
 20
120.07421875
 10
270.76171875
 20
121.41796875
 10
271.83203125
 20
122.7890625
 10
272.8671875
 20
124.1875
 10
273.90625
 20
125.58203125
 10
274.90625
 20
127.00390625
 10
275.87109375
 20
128.453125
 10
276.83984375
 20
129.8984375
 10
277.76953125
 20
131.3671875
 10
278.6640625
 20
132.859375
 10
279.55859375
 20
134.3515625
 10
280.4140625
 20
135.86328125
 10
281.234375
 20
137.3984375
 10
282.0546875
 20
138.9296875
 10
282.8359375
 20
140.484375
 10
283.58203125
 20
142.05859375
 10
284.32421875
 20
143.62890625
 10
285.02734375
 20
145.21875
 10
285.6953125
 20
146.828125
 10
286.359375
 20
148.43359375
 10
286.984375
 20
150.0546875
 10
287.5703125
 20
151.6953125
 10
288.15625
 20
153.33203125
 10
288.703125
 20
154.984375
 10
289.20703125
 20
156.6484375
 10
289.71484375
 20
158.3125
 10
290.17578125
 20
159.98828125
 10
290.6015625
 20
161.67578125
 10
291.0234375
 20
163.36328125
 10
291.40234375
 20
165.05859375
 10
291.7421875
 20
166.765625
 10
292.08203125
 20
168.47265625
 10
292.37890625
 20
170.18359375
 10
292.6328125
 20
171.90625
 10
292.890625
 20
173.625
 10
293.1015625
 20
175.3515625
 10
293.2734375
 20
177.08203125
 10
293.4453125
 20
178.8125
 10
293.5703125
 20
180.546875
 10
293.65625
 20
182.28515625
 10
293.7421875
 20
184.0234375
 10
293.78515625
 20
185.76171875
 10
293.78515625
 20
187.5
 10
293.78515625
 20
189.23828125
 10
293.7421875
 20
190.9765625
 10
293.65625
 20
192.71484375
 10
293.5703125
 20
194.453125
 10
293.4453125
 20
196.1875
 10
293.2734375
 20
197.91796875
 10
293.1015625
 20
199.6484375
 10
292.890625
 20
201.375
 10
292.6328125
 20
203.09375
 10
292.37890625
 20
204.81640625
 10
292.08203125
 20
206.52734375
 10
291.7421875
 20
208.234375
 10
291.40234375
 20
209.94140625
 10
291.0234375
 20
211.63671875
 10
290.6015625
 20
213.32421875
 10
290.17578125
 20
215.01171875
 10
289.71484375
 20
216.6875
 10
289.20703125
 20
218.3515625
 10
288.703125
 20
220.015625
 10
288.15625
 20
221.66796875
 10
287.5703125
 20
223.3046875
 10
286.984375
 20
224.9453125
 10
286.359375
 20
226.56640625
 10
285.6953125
 20
228.171875
 10
285.02734375
 20
229.78125
 10
284.32421875
 20
231.37109375
 10
283.58203125
 20
232.94140625
 10
282.8359375
 20
234.515625
 10
282.0546875
 20
236.0703125
 10
281.234375
 20
237.6015625
 10
280.4140625
 20
239.13671875
 10
279.55859375
 20
240.6484375
 10
278.6640625
 20
242.140625
 10
277.76953125
 20
243.6328125
 10
276.83984375
 20
245.1015625
 10
275.87109375
 20
246.55078125
 10
274.90625
 20
247.99609375
 10
273.90625
 20
249.41796875
 10
272.8671875
 20
250.8125
 10
271.83203125
 20
252.2109375
 10
270.76171875
 20
253.58203125
 10
269.66015625
 20
254.92578125
 10
268.5546875
 20
256.26953125
 10
267.421875
 20
257.58984375
 10
266.25390625
 20
258.875
 10
265.08203125
 20
260.1640625
 10
263.88671875
 20
261.42578125
 10
262.65625
 20
262.65625
 10
261.42578125
 20
263.88671875
 10
260.1640625
 20
265.08203125
 10
258.875
 20
266.25390625
 10
257.5859375
 20
267.421875
 10
256.26953125
 20
268.5546875
 10
254.92578125
 20
269.66015625
 10
253.58203125
 20
270.76171875
 10
252.2109375
 20
271.83203125
 10
250.8125
 20
272.8671875
 10
249.41796875
 20
273.90625
 10
247.99609375
 20
274.90625
 10
246.546875
 20
275.87109375
 10
245.1015625
 20
276.83984375
 10
243.6328125
 20
277.76953125
 10
242.140625
 20
278.6640625
 10
240.6484375
 20
279.55859375
 10
239.13671875
 20
280.4140625
 10
237.6015625
 20
281.234375
 10
236.0703125
 20
282.0546875
 10
234.515625
 20
282.8359375
 10
232.94140625
 20
283.58203125
 10
231.37109375
 20
284.32421875
 10
229.78125
 20
285.02734375
 10
228.171875
 20
285.6953125
 10
226.56640625
 20
286.359375
 10
224.9453125
 20
286.984375
 10
223.3046875
 20
287.5703125
 10
221.66796875
 20
288.15625
 10
220.015625
 20
288.703125
 10
218.3515625
 20
289.20703125
 10
216.6875
 20
289.71484375
 10
215.01171875
 20
290.17578125
 10
213.32421875
 20
290.6015625
 10
211.63671875
 20
291.0234375
 10
209.94140625
 20
291.40234375
 10
208.234375
 20
291.7421875
 10
206.52734375
 20
292.08203125
 10
204.81640625
 20
292.37890625
 10
203.09375
 20
292.6328125
 10
201.375
 20
292.890625
 10
199.6484375
 20
293.1015625
 10
197.91796875
 20
293.2734375
 10
196.1875
 20
293.4453125
 10
194.453125
 20
293.5703125
 10
192.71484375
 20
293.65625
 10
190.9765625
 20
293.7421875
 10
189.23828125
 20
293.78515625
 10
187.5
 20
293.78515625
 97
        0
 97
        1
330
7F
 75
     2
 76
     1
 98
        1
 10
0.0
 20
0.0
450
        0
451
        0
460
0.0
461
0.0
452
        0
462
0.0
453
        0
470

  0
ENDBLK
  5
7C
330
79
100
AcDbEntity
  8
0
100
AcDbBlockEnd
  0
BLOCK
  5
83
330
81
100
AcDbEntity
  8
0
100
AcDbBlockBegin
  2
Block_1
 70
     0
 10
0.0
 20
0.0
 30
0.0
  3
Block_1
  1

  0
SPLINE
  5
85
330
81
100
AcDbEntity
  8
Graphic
 62
   250
420
  2301985
370
   140
100
AcDbSpline
210
0.0
220
0.0
230
1.0
 70
     9
 71
     3
 72
    20
 73
    16
 74
     0
 42
0.0000000001
 43
0.0000000001
 40
0.0
 40
0.0
 40
0.0
 40
0.0
 40
1.0
 40
1.0
 40
1.0
 40
2.0
 40
2.0
 40
2.0
 40
3.0
 40
3.0
 40
3.0
 40
4.0
 40
4.0
 40
4.0
 40
5.0
 40
5.0
 40
5.0
 40
5.0
 10
260.890625
 20
170.21484375
 30
0.0
 10
241.8828125
 20
162.09375
 30
0.0
 10
223.40625
 20
156.72265625
 30
0.0
 10
207.2734375
 20
154.64453125
 30
0.0
 10
205.52734375
 20
154.41796875
 30
0.0
 10
203.81640625
 20
154.23046875
 30
0.0
 10
202.16015625
 20
154.08203125
 30
0.0
 10
202.16015625
 20
154.08203125
 30
0.0
 10
192.79296875
 20
116.7109375
 30
0.0
 10
192.79296875
 20
116.7109375
 30
0.0
 10
192.79296875
 20
116.7109375
 30
0.0
 10
259.22265625
 20
156.5078125
 30
0.0
 10
259.22265625
 20
156.5078125
 30
0.0
 10
259.22265625
 20
156.5078125
 30
0.0
 10
260.890625
 20
170.21484375
 30
0.0
 10
260.890625
 20
170.21484375
 30
0.0
  0
HATCH
  5
86
330
81
100
AcDbEntity
  8
Graphic
 62
    40
420
 16766259
440
 33554687
100
AcDbHatch
 10
0.0
 20
0.0
 30
0.0
210
0.0
220
0.0
230
1.0
  2
SOLID
 70
     1
 71
     1
 91
        1
 92
        1
 93
        2
 72
     4
 94
        3
 73
     0
 74
     0
 95
       20
 96
       16
 40
0.0
 40
0.0
 40
0.0
 40
0.0
 40
1.0
 40
1.0
 40
1.0
 40
2.0
 40
2.0
 40
2.0
 40
3.0
 40
3.0
 40
3.0
 40
4.0
 40
4.0
 40
4.0
 40
5.0
 40
5.0
 40
5.0
 40
5.0
 10
260.890625
 20
170.21484375
 10
241.8828125
 20
162.09375
 10
223.40625
 20
156.72265625
 10
207.2734375
 20
154.64453125
 10
205.52734375
 20
154.41796875
 10
203.81640625
 20
154.23046875
 10
202.16015625
 20
154.08203125
 10
202.16015625
 20
154.08203125
 10
192.79296875
 20
116.7109375
 10
192.79296875
 20
116.7109375
 10
192.79296875
 20
116.7109375
 10
259.22265625
 20
156.5078125
 10
259.22265625
 20
156.5078125
 10
259.22265625
 20
156.5078125
 10
260.890625
 20
170.21484375
 10
260.890625
 20
170.21484375
 97
        0
 72
     1
 10
260.890625
 20
170.21484375
 11
260.890625
 21
170.21484375
 97
        0
 75
     2
 76
     1
 98
        1
 10
0.0
 20
0.0
450
        0
451
        0
460
0.0
461
0.0
452
        0
462
0.0
453
        0
470

  0
SPLINE
  5
87
330
81
100
AcDbEntity
  8
Graphic
 62
   250
420
  2301985
370
   140
100
AcDbSpline
210
0.0
220
0.0
230
1.0
 70
     9
 71
     3
 72
    20
 73
    16
 74
     0
 42
0.0000000001
 43
0.0000000001
 40
0.0
 40
0.0
 40
0.0
 40
0.0
 40
1.0
 40
1.0
 40
1.0
 40
2.0
 40
2.0
 40
2.0
 40
3.0
 40
3.0
 40
3.0
 40
4.0
 40
4.0
 40
4.0
 40
5.0
 40
5.0
 40
5.0
 40
5.0
 10
204.69921875
 20
263.9765625
 30
0.0
 10
204.69921875
 20
263.9765625
 30
0.0
 10
191.8359375
 20
268.96484375
 30
0.0
 10
191.8359375
 20
268.96484375
 30
0.0
 10
191.8359375
 20
268.96484375
 30
0.0
 10
125.40234375
 20
229.171875
 30
0.0
 10
125.40234375
 20
229.171875
 30
0.0
 10
125.40234375
 20
229.171875
 30
0.0
 10
162.7734375
 20
219.8046875
 30
0.0
 10
162.7734375
 20
219.8046875
 30
0.0
 10
163.68359375
 20
221.1953125
 30
0.0
 10
164.66015625
 20
222.62109375
 30
0.0
 10
165.6953125
 20
224.0625
 30
0.0
 10
175.125
 20
237.29296875
 30
0.0
 10
188.57421875
 20
251.046875
 30
0.0
 10
204.69921875
 20
263.9765625
 30
0.0
  0
HATCH
  5
88
330
81
100
AcDbEntity
  8
Graphic
 62
    40
420
 16766259
440
 33554687
100
AcDbHatch
 10
0.0
 20
0.0
 30
0.0
210
0.0
220
0.0
230
1.0
  2
SOLID
 70
     1
 71
     1
 91
        1
 92
        1
 93
        2
 72
     4
 94
        3
 73
     0
 74
     0
 95
       20
 96
       16
 40
0.0
 40
0.0
 40
0.0
 40
0.0
 40
1.0
 40
1.0
 40
1.0
 40
2.0
 40
2.0
 40
2.0
 40
3.0
 40
3.0
 40
3.0
 40
4.0
 40
4.0
 40
4.0
 40
5.0
 40
5.0
 40
5.0
 40
5.0
 10
204.69921875
 20
263.9765625
 10
204.69921875
 20
263.9765625
 10
191.8359375
 20
268.96484375
 10
191.8359375
 20
268.96484375
 10
191.8359375
 20
268.96484375
 10
125.40234375
 20
229.171875
 10
125.40234375
 20
229.171875
 10
125.40234375
 20
229.171875
 10
162.7734375
 20
219.8046875
 10
162.7734375
 20
219.8046875
 10
163.68359375
 20
221.1953125
 10
164.66015625
 20
222.62109375
 10
165.6953125
 20
224.0625
 10
175.125
 20
237.29296875
 10
188.57421875
 20
251.046875
 10
204.69921875
 20
263.9765625
 97
        0
 72
     1
 10
204.69921875
 20
263.9765625
 11
204.69921875
 21
263.9765625
 97
        0
 75
     2
 76
     1
 98
        1
 10
0.0
 20
0.0
450
        0
451
        0
460
0.0
461
0.0
452
        0
462
0.0
453
        0
470

  0
SPLINE
  5
89
330
81
100
AcDbEntity
  8
Graphic
 62
   250
420
  2301985
370
   140
100
AcDbSpline
210
0.0
220
0.0
230
1.0
 70
     9
 71
     3
 72
    56
 73
    52
 74
     0
 42
0.0000000001
 43
0.0000000001
 40
0.0
 40
0.0
 40
0.0
 40
0.0
 40
1.0
 40
1.0
 40
1.0
 40
2.0
 40
2.0
 40
2.0
 40
3.0
 40
3.0
 40
3.0
 40
4.0
 40
4.0
 40
4.0
 40
5.0
 40
5.0
 40
5.0
 40
6.0
 40
6.0
 40
6.0
 40
7.0
 40
7.0
 40
7.0
 40
8.0
 40
8.0
 40
8.0
 40
9.0
 40
9.0
 40
9.0
 40
10.0
 40
10.0
 40
10.0
 40
11.0
 40
11.0
 40
11.0
 40
12.0
 40
12.0
 40
12.0
 40
13.0
 40
13.0
 40
13.0
 40
14.0
 40
14.0
 40
14.0
 40
15.0
 40
15.0
 40
15.0
 40
16.0
 40
16.0
 40
16.0
 40
17.0
 40
17.0
 40
17.0
 40
17.0
 10
262.53125
 20
183.69140625
 30
0.0
 10
272.41015625
 20
188.19921875
 30
0.0
 10
282.3046875
 20
193.40625
 30
0.0
 10
291.99609375
 20
199.2109375
 30
0.0
 10
314.71484375
 20
212.8203125
 30
0.0
 10
334.55859375
 20
233.45703125
 30
0.0
 10
350.96875
 20
260.5390625
 30
0.0
 10
352.69140625
 20
263.3828125
 30
0.0
 10
354.3671875
 20
266.2734375
 30
0.0
 10
355.9375
 20
269.13671875
 30
0.0
 10
362.87109375
 20
281.73046875
 30
0.0
 10
367.40625
 20
292.671875
 30
0.0
 10
369.859375
 20
299.19921875
 30
0.0
 10
362.94921875
 20
300.11328125
 30
0.0
 10
351.16015625
 20
301.27734375
 30
0.0
 10
336.7890625
 20
301.1015625
 30
0.0
 10
333.515625
 20
301.06640625
 30
0.0
 10
330.17578125
 20
300.95703125
 30
0.0
 10
326.859375
 20
300.78125
 30
0.0
 10
295.234375
 20
299.09375
 30
0.0
 10
267.67578125
 20
291.3359375
 30
0.0
 10
244.94921875
 20
277.72265625
 30
0.0
 10
235.2578125
 20
271.91796875
 30
0.0
 10
225.99609375
 20
265.6484375
 30
0.0
 10
217.359375
 20
259.0625
 30
0.0
 10
216.4296875
 20
258.35546875
 30
0.0
 10
215.50390625
 20
257.65234375
 30
0.0
 10
214.59375
 20
256.9375
 30
0.0
 10
202.3671875
 20
247.37890625
 30
0.0
 10
191.70703125
 20
237.35546875
 30
0.0
 10
183.20703125
 20
227.46875
 30
0.0
 10
180.265625
 20
224.046875
 30
0.0
 10
177.58203125
 20
220.640625
 30
0.0
 10
175.18359375
 20
217.28125
 30
0.0
 10
174.68359375
 20
216.58203125
 30
0.0
 10
174.19921875
 20
215.890625
 30
0.0
 10
173.734375
 20
215.20703125
 30
0.0
 10
173.734375
 20
215.20703125
 30
0.0
 10
203.2734375
 20
165.91015625
 30
0.0
 10
203.2734375
 20
165.91015625
 30
0.0
 10
204.09375
 20
166.0
 30
0.0
 10
204.92578125
 20
166.1015625
 30
0.0
 10
205.76953125
 20
166.2109375
 30
0.0
 10
209.875
 20
166.73828125
 30
0.0
 10
214.15625
 20
167.50390625
 30
0.0
 10
218.57421875
 20
168.48828125
 30
0.0
 10
231.30078125
 20
171.31640625
 30
0.0
 10
245.16015625
 20
175.984375
 30
0.0
 10
259.3515625
 20
182.25390625
 30
0.0
 10
260.41015625
 20
182.72265625
 30
0.0
 10
261.46875
 20
183.20703125
 30
0.0
 10
262.53125
 20
183.69140625
 30
0.0
  0
SPLINE
  5
8A
330
81
100
AcDbEntity
  8
Graphic
 62
   250
420
  2301985
370
   140
100
AcDbSpline
210
0.0
220
0.0
230
1.0
 70
     9
 71
     3
 72
    17
 73
    13
 74
     0
 42
0.0000000001
 43
0.0000000001
 40
0.0
 40
0.0
 40
0.0
 40
0.0
 40
1.0
 40
1.0
 40
1.0
 40
2.0
 40
2.0
 40
2.0
 40
3.0
 40
3.0
 40
3.0
 40
4.0
 40
4.0
 40
4.0
 40
4.0
 10
284.08203125
 20
247.81640625
 30
0.0
 10
277.546875
 20
258.7265625
 30
0.0
 10
281.1015625
 20
272.92578125
 30
0.0
 10
292.015625
 20
279.4609375
 30
0.0
 10
302.9296875
 20
286.0
 30
0.0
 10
317.12890625
 20
282.44140625
 30
0.0
 10
323.66796875
 20
271.52734375
 30
0.0
 10
330.20703125
 20
260.6171875
 30
0.0
 10
326.64453125
 20
246.421875
 30
0.0
 10
315.734375
 20
239.8828125
 30
0.0
 10
304.8203125
 20
233.34375
 30
0.0
 10
290.62109375
 20
236.90234375
 30
0.0
 10
284.08203125
 20
247.81640625
 30
0.0
  0
HATCH
  5
8B
330
81
100
AcDbEntity
  8
Graphic
 62
    40
420
 16766259
440
 33554687
100
AcDbHatch
 10
0.0
 20
0.0
 30
0.0
210
0.0
220
0.0
230
1.0
  2
SOLID
 70
     1
 71
     1
 91
        2
 92
        1
 93
        1
 72
     4
 94
        3
 73
     0
 74
     0
 95
       17
 96
       13
 40
0.0
 40
0.0
 40
0.0
 40
0.0
 40
1.0
 40
1.0
 40
1.0
 40
2.0
 40
2.0
 40
2.0
 40
3.0
 40
3.0
 40
3.0
 40
4.0
 40
4.0
 40
4.0
 40
4.0
 10
284.08203125
 20
247.81640625
 10
277.546875
 20
258.7265625
 10
281.1015625
 20
272.92578125
 10
292.015625
 20
279.4609375
 10
302.9296875
 20
286.0
 10
317.12890625
 20
282.44140625
 10
323.66796875
 20
271.52734375
 10
330.20703125
 20
260.6171875
 10
326.64453125
 20
246.421875
 10
315.734375
 20
239.8828125
 10
304.8203125
 20
233.34375
 10
290.62109375
 20
236.90234375
 10
284.08203125
 20
247.81640625
 97
        0
 97
        1
330
8A
 92
        1
 93
        2
 72
     4
 94
        3
 73
     0
 74
     0
 95
       56
 96
       52
 40
0.0
 40
0.0
 40
0.0
 40
0.0
 40
1.0
 40
1.0
 40
1.0
 40
2.0
 40
2.0
 40
2.0
 40
3.0
 40
3.0
 40
3.0
 40
4.0
 40
4.0
 40
4.0
 40
5.0
 40
5.0
 40
5.0
 40
6.0
 40
6.0
 40
6.0
 40
7.0
 40
7.0
 40
7.0
 40
8.0
 40
8.0
 40
8.0
 40
9.0
 40
9.0
 40
9.0
 40
10.0
 40
10.0
 40
10.0
 40
11.0
 40
11.0
 40
11.0
 40
12.0
 40
12.0
 40
12.0
 40
13.0
 40
13.0
 40
13.0
 40
14.0
 40
14.0
 40
14.0
 40
15.0
 40
15.0
 40
15.0
 40
16.0
 40
16.0
 40
16.0
 40
17.0
 40
17.0
 40
17.0
 40
17.0
 10
262.53125
 20
183.69140625
 10
272.41015625
 20
188.19921875
 10
282.3046875
 20
193.40625
 10
291.99609375
 20
199.2109375
 10
314.71484375
 20
212.8203125
 10
334.55859375
 20
233.45703125
 10
350.96875
 20
260.5390625
 10
352.69140625
 20
263.3828125
 10
354.3671875
 20
266.2734375
 10
355.9375
 20
269.13671875
 10
362.87109375
 20
281.73046875
 10
367.40625
 20
292.671875
 10
369.859375
 20
299.19921875
 10
362.94921875
 20
300.11328125
 10
351.16015625
 20
301.27734375
 10
336.7890625
 20
301.1015625
 10
333.515625
 20
301.06640625
 10
330.17578125
 20
300.95703125
 10
326.859375
 20
300.78125
 10
295.234375
 20
299.09375
 10
267.67578125
 20
291.3359375
 10
244.94921875
 20
277.72265625
 10
235.2578125
 20
271.91796875
 10
225.99609375
 20
265.6484375
 10
217.359375
 20
259.0625
 10
216.4296875
 20
258.35546875
 10
215.50390625
 20
257.65234375
 10
214.59375
 20
256.9375
 10
202.3671875
 20
247.37890625
 10
191.70703125
 20
237.35546875
 10
183.20703125
 20
227.46875
 10
180.265625
 20
224.046875
 10
177.58203125
 20
220.640625
 10
175.18359375
 20
217.28125
 10
174.68359375
 20
216.58203125
 10
174.19921875
 20
215.890625
 10
173.734375
 20
215.20703125
 10
173.734375
 20
215.20703125
 10
203.2734375
 20
165.91015625
 10
203.2734375
 20
165.91015625
 10
204.09375
 20
166.0
 10
204.92578125
 20
166.1015625
 10
205.76953125
 20
166.2109375
 10
209.875
 20
166.73828125
 10
214.15625
 20
167.50390625
 10
218.57421875
 20
168.48828125
 10
231.30078125
 20
171.31640625
 10
245.16015625
 20
175.984375
 10
259.3515625
 20
182.25390625
 10
260.41015625
 20
182.72265625
 10
261.46875
 20
183.20703125
 10
262.53125
 20
183.69140625
 97
        0
 72
     1
 10
262.53125
 20
183.69140625
 11
262.53125
 21
183.69140625
 97
        0
 75
     2
 76
     1
 98
        1
 10
0.0
 20
0.0
450
        0
451
        0
460
0.0
461
0.0
452
        0
462
0.0
453
        0
470

  0
SPLINE
  5
8C
330
81
100
AcDbEntity
  8
Graphic
 62
   250
420
  2301985
370
   140
100
AcDbSpline
210
0.0
220
0.0
230
1.0
 70
     9
 71
     3
 72
    17
 73
    13
 74
     0
 42
0.0000000001
 43
0.0000000001
 40
0.0
 40
0.0
 40
0.0
 40
0.0
 40
1.0
 40
1.0
 40
1.0
 40
2.0
 40
2.0
 40
2.0
 40
3.0
 40
3.0
 40
3.0
 40
4.0
 40
4.0
 40
4.0
 40
4.0
 10
313.66015625
 20
265.53515625
 30
0.0
 10
310.4296875
 20
270.9296875
 30
0.0
 10
303.40625
 20
272.69140625
 30
0.0
 10
298.01171875
 20
269.45703125
 30
0.0
 10
292.61328125
 20
266.22265625
 30
0.0
 10
290.85546875
 20
259.203125
 30
0.0
 10
294.08984375
 20
253.80859375
 30
0.0
 10
297.3203125
 20
248.4140625
 30
0.0
 10
304.33984375
 20
246.65625
 30
0.0
 10
309.73828125
 20
249.88671875
 30
0.0
 10
315.1328125
 20
253.12109375
 30
0.0
 10
316.89453125
 20
260.13671875
 30
0.0
 10
313.66015625
 20
265.53515625
 30
0.0
  0
HATCH
  5
8D
330
81
100
AcDbEntity
  8
Graphic
 62
    40
420
 16766259
440
 33554687
100
AcDbHatch
 10
0.0
 20
0.0
 30
0.0
210
0.0
220
0.0
230
1.0
  2
SOLID
 70
     1
 71
     1
 91
        1
 92
        1
 93
        2
 72
     4
 94
        3
 73
     0
 74
     0
 95
       17
 96
       13
 40
0.0
 40
0.0
 40
0.0
 40
0.0
 40
1.0
 40
1.0
 40
1.0
 40
2.0
 40
2.0
 40
2.0
 40
3.0
 40
3.0
 40
3.0
 40
4.0
 40
4.0
 40
4.0
 40
4.0
 10
313.66015625
 20
265.53515625
 10
310.4296875
 20
270.9296875
 10
303.40625
 20
272.69140625
 10
298.01171875
 20
269.45703125
 10
292.61328125
 20
266.22265625
 10
290.85546875
 20
259.203125
 10
294.08984375
 20
253.80859375
 10
297.3203125
 20
248.4140625
 10
304.33984375
 20
246.65625
 10
309.73828125
 20
249.88671875
 10
315.1328125
 20
253.12109375
 10
316.89453125
 20
260.13671875
 10
313.66015625
 20
265.53515625
 97
        0
 72
     1
 10
313.66015625
 20
265.5351562499999
 11
313.66015625
 21
265.53515625
 97
        0
 75
     2
 76
     1
 98
        1
 10
0.0
 20
0.0
450
        0
451
        0
460
0.0
461
0.0
452
        0
462
0.0
453
        0
470

  0
SPLINE
  5
8E
330
81
100
AcDbEntity
  8
Graphic
 62
   250
420
  2301985
370
   140
100
AcDbSpline
210
0.0
220
0.0
230
1.0
 70
    11
 71
     3
 72
    17
 73
    13
 74
     0
 42
0.0000000001
 43
0.0000000001
 40
0.0
 40
0.0
 40
0.0
 40
0.0
 40
1.0
 40
1.0
 40
1.0
 40
2.0
 40
2.0
 40
2.0
 40
3.0
 40
3.0
 40
3.0
 40
4.0
 40
4.0
 40
4.0
 40
4.0
 10
185.68359375
 20
172.57421875
 30
0.0
 10
185.68359375
 20
172.57421875
 30
0.0
 10
170.69921875
 20
197.57421875
 30
0.0
 10
170.69921875
 20
197.57421875
 30
0.0
 10
170.69921875
 20
197.57421875
 30
0.0
 10
157.26953125
 20
189.52734375
 30
0.0
 10
157.26953125
 20
189.52734375
 30
0.0
 10
157.26953125
 20
189.52734375
 30
0.0
 10
172.25
 20
164.52734375
 30
0.0
 10
172.25
 20
164.52734375
 30
0.0
 10
172.25
 20
164.52734375
 30
0.0
 10
185.68359375
 20
172.57421875
 30
0.0
 10
185.68359375
 20
172.57421875
 30
0.0
  0
HATCH
  5
8F
330
81
100
AcDbEntity
  8
Graphic
 62
    40
420
 16766259
440
 33554687
100
AcDbHatch
 10
0.0
 20
0.0
 30
0.0
210
0.0
220
0.0
230
1.0
  2
SOLID
 70
     1
 71
     1
 91
        1
 92
        1
 93
        2
 72
     4
 94
        3
 73
     0
 74
     0
 95
       17
 96
       13
 40
0.0
 40
0.0
 40
0.0
 40
0.0
 40
1.0
 40
1.0
 40
1.0
 40
2.0
 40
2.0
 40
2.0
 40
3.0
 40
3.0
 40
3.0
 40
4.0
 40
4.0
 40
4.0
 40
4.0
 10
185.68359375
 20
172.57421875
 10
185.68359375
 20
172.57421875
 10
170.69921875
 20
197.57421875
 10
170.69921875
 20
197.57421875
 10
170.69921875
 20
197.57421875
 10
157.26953125
 20
189.52734375
 10
157.26953125
 20
189.52734375
 10
157.26953125
 20
189.52734375
 10
172.25
 20
164.52734375
 10
172.25
 20
164.52734375
 10
172.25
 20
164.52734375
 10
185.68359375
 20
172.57421875
 10
185.68359375
 20
172.57421875
 97
        0
 72
     1
 10
185.68359375
 20
172.57421875
 11
185.68359375
 21
172.57421875
 97
        0
 75
     2
 76
     1
 98
        1
 10
0.0
 20
0.0
450
        0
451
        0
460
0.0
461
0.0
452
        0
462
0.0
453
        0
470

  0
ENDBLK
  5
84
330
81
100
AcDbEntity
  8
0
100
AcDbBlockEnd
  0
BLOCK
  5
92
330
90
100
AcDbEntity
  8
0
100
AcDbBlockBegin
  2
Block_2
 70
     0
 10
0.0
 20
0.0
 30
0.0
  3
Block_2
  1

  0
SPLINE
  5
94
330
90
100
AcDbEntity
  8
Graphic
 62
   250
420
  2301985
370
   140
100
AcDbSpline
210
0.0
220
0.0
230
1.0
 70
    11
 71
     3
 72
    17
 73
    13
 74
     0
 42
0.0000000001
 43
0.0000000001
 40
0.0
 40
0.0
 40
0.0
 40
0.0
 40
1.0
 40
1.0
 40
1.0
 40
2.0
 40
2.0
 40
2.0
 40
3.0
 40
3.0
 40
3.0
 40
4.0
 40
4.0
 40
4.0
 40
4.0
 10
61.609375
 20
145.81640625
 30
0.0
 10
61.609375
 20
145.81640625
 30
0.0
 10
67.60546875
 20
135.8125
 30
0.0
 10
67.60546875
 20
135.8125
 30
0.0
 10
67.60546875
 20
135.8125
 30
0.0
 10
124.68359375
 20
170.00390625
 30
0.0
 10
124.68359375
 20
170.00390625
 30
0.0
 10
124.68359375
 20
170.00390625
 30
0.0
 10
118.68359375
 20
180.01171875
 30
0.0
 10
118.68359375
 20
180.01171875
 30
0.0
 10
118.68359375
 20
180.01171875
 30
0.0
 10
61.609375
 20
145.81640625
 30
0.0
 10
61.609375
 20
145.81640625
 30
0.0
  0
HATCH
  5
95
330
90
100
AcDbEntity
  8
Graphic
 62
    40
420
 16766259
440
 33554687
100
AcDbHatch
 10
0.0
 20
0.0
 30
0.0
210
0.0
220
0.0
230
1.0
  2
SOLID
 70
     1
 71
     1
 91
        1
 92
        1
 93
        2
 72
     4
 94
        3
 73
     0
 74
     0
 95
       17
 96
       13
 40
0.0
 40
0.0
 40
0.0
 40
0.0
 40
1.0
 40
1.0
 40
1.0
 40
2.0
 40
2.0
 40
2.0
 40
3.0
 40
3.0
 40
3.0
 40
4.0
 40
4.0
 40
4.0
 40
4.0
 10
61.609375
 20
145.81640625
 10
61.609375
 20
145.81640625
 10
67.60546875
 20
135.8125
 10
67.60546875
 20
135.8125
 10
67.60546875
 20
135.8125
 10
124.68359375
 20
170.00390625
 10
124.68359375
 20
170.00390625
 10
124.68359375
 20
170.00390625
 10
118.68359375
 20
180.01171875
 10
118.68359375
 20
180.01171875
 10
118.68359375
 20
180.01171875
 10
61.609375
 20
145.81640625
 10
61.609375
 20
145.81640625
 97
        0
 72
     1
 10
61.60937500000001
 20
145.81640625
 11
61.609375
 21
145.81640625
 97
        0
 75
     2
 76
     1
 98
        1
 10
0.0
 20
0.0
450
        0
451
        0
460
0.0
461
0.0
452
        0
462
0.0
453
        0
470

  0
SPLINE
  5
96
330
90
100
AcDbEntity
  8
Graphic
 62
   250
420
  2301985
370
   140
100
AcDbSpline
210
0.0
220
0.0
230
1.0
 70
    11
 71
     3
 72
    17
 73
    13
 74
     0
 42
0.0000000001
 43
0.0000000001
 40
0.0
 40
0.0
 40
0.0
 40
0.0
 40
1.0
 40
1.0
 40
1.0
 40
2.0
 40
2.0
 40
2.0
 40
3.0
 40
3.0
 40
3.0
 40
4.0
 40
4.0
 40
4.0
 40
4.0
 10
27.24609375
 20
101.44921875
 30
0.0
 10
27.24609375
 20
101.44921875
 30
0.0
 10
33.2421875
 20
91.44140625
 30
0.0
 10
33.2421875
 20
91.44140625
 30
0.0
 10
33.2421875
 20
91.44140625
 30
0.0
 10
148.9140625
 20
160.73828125
 30
0.0
 10
148.9140625
 20
160.73828125
 30
0.0
 10
148.9140625
 20
160.73828125
 30
0.0
 10
142.91796875
 20
170.7421875
 30
0.0
 10
142.91796875
 20
170.7421875
 30
0.0
 10
142.91796875
 20
170.7421875
 30
0.0
 10
27.24609375
 20
101.44921875
 30
0.0
 10
27.24609375
 20
101.44921875
 30
0.0
  0
HATCH
  5
97
330
90
100
AcDbEntity
  8
Graphic
 62
    40
420
 16766259
440
 33554687
100
AcDbHatch
 10
0.0
 20
0.0
 30
0.0
210
0.0
220
0.0
230
1.0
  2
SOLID
 70
     1
 71
     1
 91
        1
 92
        1
 93
        2
 72
     4
 94
        3
 73
     0
 74
     0
 95
       17
 96
       13
 40
0.0
 40
0.0
 40
0.0
 40
0.0
 40
1.0
 40
1.0
 40
1.0
 40
2.0
 40
2.0
 40
2.0
 40
3.0
 40
3.0
 40
3.0
 40
4.0
 40
4.0
 40
4.0
 40
4.0
 10
27.24609375
 20
101.44921875
 10
27.24609375
 20
101.44921875
 10
33.2421875
 20
91.44140625
 10
33.2421875
 20
91.44140625
 10
33.2421875
 20
91.44140625
 10
148.9140625
 20
160.73828125
 10
148.9140625
 20
160.73828125
 10
148.9140625
 20
160.73828125
 10
142.91796875
 20
170.7421875
 10
142.91796875
 20
170.7421875
 10
142.91796875
 20
170.7421875
 10
27.24609375
 20
101.44921875
 10
27.24609375
 20
101.44921875
 97
        0
 72
     1
 10
27.24609374999999
 20
101.44921875
 11
27.24609375
 21
101.44921875
 97
        0
 75
     2
 76
     1
 98
        1
 10
0.0
 20
0.0
450
        0
451
        0
460
0.0
461
0.0
452
        0
462
0.0
453
        0
470

  0
SPLINE
  5
98
330
90
100
AcDbEntity
  8
Graphic
 62
   250
420
  2301985
370
   140
100
AcDbSpline
210
0.0
220
0.0
230
1.0
 70
    11
 71
     3
 72
    17
 73
    13
 74
     0
 42
0.0000000001
 43
0.0000000001
 40
0.0
 40
0.0
 40
0.0
 40
0.0
 40
1.0
 40
1.0
 40
1.0
 40
2.0
 40
2.0
 40
2.0
 40
3.0
 40
3.0
 40
3.0
 40
4.0
 40
4.0
 40
4.0
 40
4.0
 10
64.8828125
 20
100.2109375
 30
0.0
 10
64.8828125
 20
100.2109375
 30
0.0
 10
70.87890625
 20
90.20312500000001
 30
0.0
 10
70.87890625
 20
90.20312500000001
 30
0.0
 10
70.87890625
 20
90.20312500000001
 30
0.0
 10
145.65625
 20
135.0
 30
0.0
 10
145.65625
 20
135.0
 30
0.0
 10
145.65625
 20
135.0
 30
0.0
 10
139.66015625
 20
145.00390625
 30
0.0
 10
139.66015625
 20
145.00390625
 30
0.0
 10
139.66015625
 20
145.00390625
 30
0.0
 10
64.8828125
 20
100.2109375
 30
0.0
 10
64.8828125
 20
100.2109375
 30
0.0
  0
HATCH
  5
99
330
90
100
AcDbEntity
  8
Graphic
 62
    40
420
 16766259
440
 33554687
100
AcDbHatch
 10
0.0
 20
0.0
 30
0.0
210
0.0
220
0.0
230
1.0
  2
SOLID
 70
     1
 71
     1
 91
        1
 92
        1
 93
        2
 72
     4
 94
        3
 73
     0
 74
     0
 95
       17
 96
       13
 40
0.0
 40
0.0
 40
0.0
 40
0.0
 40
1.0
 40
1.0
 40
1.0
 40
2.0
 40
2.0
 40
2.0
 40
3.0
 40
3.0
 40
3.0
 40
4.0
 40
4.0
 40
4.0
 40
4.0
 10
64.8828125
 20
100.2109375
 10
64.8828125
 20
100.2109375
 10
70.87890625
 20
90.20312500000001
 10
70.87890625
 20
90.20312500000001
 10
70.87890625
 20
90.20312500000001
 10
145.65625
 20
135.0
 10
145.65625
 20
135.0
 10
145.65625
 20
135.0
 10
139.66015625
 20
145.00390625
 10
139.66015625
 20
145.00390625
 10
139.66015625
 20
145.00390625
 10
64.8828125
 20
100.2109375
 10
64.8828125
 20
100.2109375
 97
        0
 72
     1
 10
64.8828125
 20
100.2109375
 11
64.8828125
 21
100.2109375
 97
        0
 75
     2
 76
     1
 98
        1
 10
0.0
 20
0.0
450
        0
451
        0
460
0.0
461
0.0
452
        0
462
0.0
453
        0
470

  0
ENDBLK
  5
93
330
90
100
AcDbEntity
  8
0
100
AcDbBlockEnd
  0
ENDSEC
  0
SECTION
  2
ENTITIES
  0
INSERT
  5
7A
330
70
100
AcDbEntity
  8
Graphic
100
AcDbBlockReference
  2
Block_0
 10
0.0
 20
0.0
 30
0.0
  0
INSERT
  5
82
330
70
100
AcDbEntity
  8
Graphic
100
AcDbBlockReference
  2
Block_1
 10
0.0
 20
0.0
 30
0.0
  0
INSERT
  5
91
330
70
100
AcDbEntity
  8
Graphic
100
AcDbBlockReference
  2
Block_2
 10
0.0
 20
0.0
 30
0.0
  0
TEXT
  5
9C
330
70
100
AcDbEntity
  8
Text on Circle Paths
 62
     7
420
 16776703
100
AcDbText
 10
76.92589569091797
 20
64.55891162157058
 30
0.0
 40
36.10799968447205
  1
W
 50
325.0444079666242
 41
0.99999999126155
  7
Style0
100
AcDbText
  0
TEXT
  5
9E
330
70
100
AcDbEntity
  8
Text on Circle Paths
 62
     7
420
 16776703
100
AcDbText
 10
112.3038253784179
 20
41.28938037157058
 30
0.0
 40
36.1079989986137
  1
e
 50
337.5017666300303
 41
0.999999972266913
  7
Style1
100
AcDbText
  0
TEXT
  5
A0
330
70
100
AcDbEntity
  8
Text on Circle Paths
 62
     7
420
 16776703
100
AcDbText
 10
138.7159347534179
 20
30.69953662157059
 30
0.0
 40
36.10800044848971
  1
b
 50
347.6957709671027
 41
1.000000012420785
  7
Style2
100
AcDbText
  0
TEXT
  5
A2
330
70
100
AcDbEntity
  8
Text on Circle Paths
 62
     7
420
 16776703
100
AcDbText
 10
166.4195480346679
 20
25.31574755907059
 30
0.0
 40
36.10799950959883
  1
 
 50
355.2416573861787
 41
0.99999998641849
  7
Style3
100
AcDbText
  0
TEXT
  5
A4
330
70
100
AcDbEntity
  8
Text on Circle Paths
 62
     7
420
 16776703
100
AcDbText
 10
181.386833190918
 20
23.66535693407059
 30
0.0
 40
36.10799977129177
  1
&
 50
3.502628457868128
 41
0.9999999936659957
  7
Style4
100
AcDbText
  0
TEXT
  5
A6
330
70
100
AcDbEntity
  8
Text on Circle Paths
 62
     7
420
 16776703
100
AcDbText
 10
214.082633972168
 20
26.55793505907059
 30
0.0
 40
36.10800044219293
  1
 
 50
11.90089102104049
 41
1.000000012246398
  7
Style5
100
AcDbText
  0
TEXT
  5
A8
330
70
100
AcDbEntity
  8
Text on Circle Paths
 62
     7
420
 16776703
100
AcDbText
 10
229.894157409668
 20
29.03547412157059
 30
0.0
 40
36.10799900532186
  1
M
 50
22.25639844945157
 41
0.9999999724526935
  7
Style6
100
AcDbText
  0
TEXT
  5
AA
330
70
100
AcDbEntity
  8
Text on Circle Paths
 62
     7
420
 16776703
100
AcDbText
 10
269.820915222168
 20
46.88020068407058
 30
0.0
 40
36.10800006786508
  1
a
 50
35.05236022013255
 41
1.000000001879502
  7
Style7
100
AcDbText
  0
TEXT
  5
AC
330
70
100
AcDbEntity
  8
Text on Circle Paths
 62
     7
420
 16776703
100
AcDbText
 10
291.856071472168
 20
62.94367724657059
 30
0.0
 40
36.10799981388994
  1
r
 50
43.33451591291397
 41
0.9999999948457391
  7
Style8
100
AcDbText
  0
TEXT
  5
AE
330
70
100
AcDbEntity
  8
Text on Circle Paths
 62
     7
420
 16776703
100
AcDbText
 10
306.593376159668
 20
76.80598193407059
 30
0.0
 40
36.1079996653154
  1
k
 50
51.68800835993804
 41
0.9999999907310128
  7
Style9
100
AcDbText
  0
TEXT
  5
B0
330
70
100
AcDbEntity
  8
Text on Circle Paths
 62
     7
420
 16776703
100
AcDbText
 10
323.580680847168
 20
98.76008349657059
 30
0.0
 40
36.10799982579401
  1
e
 50
61.40062102596129
 41
0.9999999951754183
  7
Style10
100
AcDbText
  0
TEXT
  5
B2
330
70
100
AcDbEntity
  8
Text on Circle Paths
 62
     7
420
 16776703
100
AcDbText
 10
336.325798034668
 20
123.2708256840706
 30
0.0
 40
36.10800006828585
  1
t
 50
69.60290590315342
 41
1.000000001891155
  7
Style11
100
AcDbText
  0
TEXT
  5
B4
330
70
100
AcDbEntity
  8
Text on Circle Paths
 62
     7
420
 16776703
100
AcDbText
 10
342.419548034668
 20
140.2102788090706
 30
0.0
 40
36.10800014007424
  1
i
 50
75.47087870686723
 41
1.000000003879313
  7
Style12
100
AcDbText
  0
TEXT
  5
B6
330
70
100
AcDbEntity
  8
Text on Circle Paths
 62
     7
420
 16776703
100
AcDbText
 10
346.615837097168
 20
155.5872319340705
 30
0.0
 40
36.10800065396926
  1
n
 50
83.23011729097173
 41
1.000000018111478
  7
Style13
100
AcDbText
  0
TEXT
  5
B8
330
70
100
AcDbEntity
  8
Text on Circle Paths
 62
     7
420
 16776703
100
AcDbText
 10
349.712516784668
 20
184.5637944340706
 30
0.0
 40
36.10799975378917
  1
g
 50
93.41138825251546
 41
0.9999999931812666
  7
Style14
100
AcDbText
  0
TEXT
  5
BA
330
70
100
AcDbEntity
  8
Text on Circle Paths
 62
     7
420
 16777215
100
AcDbText
 10
61.3454487323761
 20
173.1809184551239
 30
0.0
 40
50.10305699157102
  1
L
 50
88.82061327943452
 41
1.000000011877252
  7
Style15
100
AcDbText
  0
TEXT
  5
BC
330
70
100
AcDbEntity
  8
Text on Circle Paths
 62
     7
420
 16777215
100
AcDbText
 10
61.66673779487609
 20
204.3176372051239
 30
0.0
 40
50.10305695368907
  1
a
 50
74.70244194310106
 41
1.000000011121171
  7
Style16
100
AcDbText
  0
TEXT
  5
BE
330
70
100
AcDbEntity
  8
Text on Circle Paths
 62
     7
420
 16777215
100
AcDbText
 10
69.2819721698761
 20
233.8498637676239
 30
0.0
 40
50.10305536126864
  1
u
 50
60.31739348736257
 41
0.9999999793382718
  7
Style17
100
AcDbText
  0
TEXT
  5
C0
330
70
100
AcDbEntity
  8
Text on Circle Paths
 62
     7
420
 16777215
100
AcDbText
 10
84.7839252948761
 20
261.7819926738739
 30
0.0
 40
50.1030571125473
  1
n
 50
45.74760388396542
 41
1.000000014291801
  7
Style18
100
AcDbText
  0
TEXT
  5
C2
330
70
100
AcDbEntity
  8
Text on Circle Paths
 62
     7
420
 16777215
100
AcDbText
 10
106.9577534198761
 20
284.8474223613739
 30
0.0
 40
50.10305527680399
  1
c
 50
31.67253998434248
 41
0.9999999776524537
  7
Style19
100
AcDbText
  0
TEXT
  5
C4
330
70
100
AcDbEntity
  8
Text on Circle Paths
 62
     7
420
 16777215
100
AcDbText
 10
132.0270893573761
 20
300.8957622051239
 30
0.0
 40
50.10305550019488
  1
h
 50
17.46584011972923
 41
0.9999999821110815
  7
Style20
100
AcDbText
  0
TEXT
  5
C6
330
70
100
AcDbEntity
  8
Text on Circle Paths
 62
     7
420
 16777215
100
AcDbText
 10
162.4201557636261
 20
310.7639262676239
 30
0.0
 40
50.10305696486049
  1
e
 50
3.026609762584821
 41
1.00000001134414
  7
Style21
100
AcDbText
  0
TEXT
  5
C8
330
70
100
AcDbEntity
  8
Text on Circle Paths
 62
     7
420
 16777215
100
AcDbText
 10
193.3884174823761
 20
312.8523051738739
 30
0.0
 40
50.10305573891543
  1
d
 50
348.6595370704471
 41
0.999999986875672
  7
Style22
100
AcDbText
  0
TEXT
  5
CA
330
70
100
AcDbEntity
  8
Text on Circle Paths
 62
     7
420
 16777215
100
AcDbText
 10
225.3308002948761
 20
305.8464457988739
 30
0.0
 40
50.10305700676518
  1
!
 50
337.3584252954277
 41
1.00000001218051
  7
Style23
100
AcDbText
  0
ENDSEC
  0
SECTION
  2
OBJECTS
  0
DICTIONARY
  5
C
330
0
100
AcDbDictionary
281
     1
  3
ACAD_COLOR
350
63
  3
ACAD_DETAILVIEWSTYLE
350
6A
  3
ACAD_GROUP
350
D
  3
ACAD_LAYOUT
350
62
  3
ACAD_MATERIAL
350
10
  3
ACAD_MLEADERSTYLE
350
66
  3
ACAD_MLINESTYLE
350
5F
  3
ACAD_PLOTSETTINGS
350
61
  3
ACAD_PLOTSTYLENAME
350
E
  3
ACAD_SCALELIST
350
42
  3
ACAD_SECTIONVIEWSTYLE
350
68
  3
ACAD_TABLESTYLE
350
64
  3
ACAD_VISUALSTYLE
350
29
  3
ACDB_RECOMPOSE_DATA
350
D3
  3
AcDbVariableDictionary
350
CB
  0
DICTIONARY
  5
63
102
{ACAD_REACTORS
330
C
102
}
330
C
100
AcDbDictionary
281
     1
  0
DICTIONARY
  5
6A
102
{ACAD_REACTORS
330
C
102
}
330
C
100
AcDbDictionary
281
     1
  3
Imperial24
350
6B
  0
DICTIONARY
  5
D
102
{ACAD_REACTORS
330
C
102
}
330
C
100
AcDbDictionary
281
     1
  0
DICTIONARY
  5
62
102
{ACAD_REACTORS
330
C
102
}
330
C
100
AcDbDictionary
281
     1
  3
Layout1
350
6F
  3
Layout2
350
77
  3
Model
350
73
  0
DICTIONARY
  5
10
102
{ACAD_REACTORS
330
C
102
}
330
C
100
AcDbDictionary
281
     1
  3
ByBlock
350
19
  3
ByLayer
350
11
  3
Global
350
21
  0
DICTIONARY
  5
66
102
{ACAD_REACTORS
330
C
102
}
330
C
100
AcDbDictionary
281
     1
  3
Standard
350
67
  0
DICTIONARY
  5
5F
102
{ACAD_REACTORS
330
C
102
}
330
C
100
AcDbDictionary
281
     1
  3
Standard
350
60
  0
DICTIONARY
  5
61
102
{ACAD_REACTORS
330
C
102
}
330
C
100
AcDbDictionary
281
     1
  0
ACDBDICTIONARYWDFLT
  5
E
102
{ACAD_REACTORS
330
C
102
}
330
C
100
AcDbDictionary
281
     1
  3
Normal
350
F
100
AcDbDictionaryWithDefault
340
F
  0
DICTIONARY
  5
42
102
{ACAD_REACTORS
330
C
102
}
330
C
100
AcDbDictionary
281
     1
  3
A0
350
43
  3
A1
350
44
  3
A2
350
45
  3
A3
350
46
  3
A4
350
47
  3
A5
350
48
  3
A6
350
49
  3
A7
350
4A
  3
A8
350
4B
  3
A9
350
4C
  3
B0
350
4D
  3
B1
350
4E
  3
B2
350
4F
  3
B3
350
50
  3
B4
350
51
  3
B5
350
52
  3
B6
350
53
  0
DICTIONARY
  5
68
102
{ACAD_REACTORS
330
C
102
}
330
C
100
AcDbDictionary
281
     1
  3
Imperial24
350
69
  0
DICTIONARY
  5
64
102
{ACAD_REACTORS
330
C
102
}
330
C
100
AcDbDictionary
281
     1
  3
Standard
350
65
  0
DICTIONARY
  5
29
102
{ACAD_REACTORS
330
C
102
}
330
C
100
AcDbDictionary
281
     1
  3
2dWireframe
350
2F
  3
Basic
350
2E
  3
Brighten
350
35
  3
ColorChange
350
39
  3
Conceptual
350
32
  3
Dim
350
34
  3
EdgeColorOff
350
41
  3
Facepattern
350
38
  3
Flat
350
2A
  3
FlatWithEdges
350
2B
  3
Gouraud
350
2C
  3
GouraudWithEdges
350
2D
  3
Hidden
350
31
  3
JitterOff
350
3F
  3
Linepattern
350
37
  3
OverhangOff
350
40
  3
Realistic
350
33
  3
Shaded
350
3E
  3
Shaded with edges
350
3D
  3
Shades of Gray
350
3A
  3
Sketchy
350
3B
  3
Thicken
350
36
  3
Wireframe
350
30
  3
X-Ray
350
3C
  0
XRECORD
  5
D3
102
{ACAD_REACTORS
330
C
102
}
330
C
100
AcDbXrecord
280
     1
 90
        1
330
65
  0
DICTIONARY
  5
CB
102
{ACAD_REACTORS
330
C
102
}
330
C
100
AcDbDictionary
281
     1
  3
CANNOSCALE
350
D0
  3
CMLEADERSTYLE
350
CD
  3
CTABLESTYLE
350
CC
  3
CVIEWDETAILSTYLE
350
CE
  3
CVIEWSECTIONSTYLE
350
CF
  0
ACDBDETAILVIEWSTYLE
  5
6B
102
{ACAD_REACTORS
330
6A
102
}
330
6A
100
AcDbModelDocViewStyle
 70
     0
  3
Imperial24
290
     1
300
Imperial24
 90
        0
100
AcDbDetailViewStyle
 70
     0
 71
     0
 90
        3
 71
     1
340
55
 62
   256
 40
0.24
340
0
 62
   256
 40
0.24
300

 40
0.36
280
     3
 71
     2
340
5D
 90
       25
 62
   256
 71
     3
340
55
 62
   256
 40
0.24
 90
        1
 40
0.75
 90
        1
300
%<\AcVar ViewType \f "%tc1">% %<\AcVar ViewDetailId>%\PSCALE %<\AcVar ViewScale \f "%sn">%
 71
     4
340
5D
 90
       25
 62
   256
340
5D
 90
       25
 62
   256
280
     0
  0
LAYOUT
  5
6F
102
{ACAD_REACTORS
330
62
102
}
330
62
100
AcDbPlotSettings
  1

  2

  4

  6

 40
0.0
 41
0.0
 42
0.0
 43
0.0
 44
0.0
 45
0.0
 46
0.0
 47
0.0
 48
0.0
 49
0.0
140
0.0
141
0.0
142
1.0
143
1.0
 70
   688
 72
     0
 73
     0
 74
     5
  7

 75
    16
147
1.0
 76
     0
 77
     2
 78
   300
148
0.0
149
0.0
100
AcDbLayout
  1
Layout1
 70
     1
 71
     1
 10
0.0
 20
0.0
 11
12.0
 21
9.0
 12
0.0
 22
0.0
 32
0.0
 14
0.0
 24
0.0
 34
0.0
 15
0.0
 25
0.0
 35
0.0
146
0.0
 13
0.0
 23
0.0
 33
0.0
 16
1.0
 26
0.0
 36
0.0
 17
0.0
 27
1.0
 37
0.0
 76
     0
330
6C
  0
LAYOUT
  5
77
102
{ACAD_REACTORS
330
62
102
}
330
62
100
AcDbPlotSettings
  1

  2

  4

  6

 40
0.0
 41
0.0
 42
0.0
 43
0.0
 44
0.0
 45
0.0
 46
0.0
 47
0.0
 48
0.0
 49
0.0
140
0.0
141
0.0
142
1.0
143
1.0
 70
   688
 72
     0
 73
     0
 74
     5
  7

 75
    16
147
1.0
 76
     0
 77
     2
 78
   300
148
0.0
149
0.0
100
AcDbLayout
  1
Layout2
 70
     1
 71
     2
 10
0.0
 20
0.0
 11
12.0
 21
9.0
 12
0.0
 22
0.0
 32
0.0
 14
0.0
 24
0.0
 34
0.0
 15
0.0
 25
0.0
 35
0.0
146
0.0
 13
0.0
 23
0.0
 33
0.0
 16
1.0
 26
0.0
 36
0.0
 17
0.0
 27
1.0
 37
0.0
 76
     0
330
74
  0
LAYOUT
  5
73
102
{ACAD_REACTORS
330
62
102
}
330
62
100
AcDbPlotSettings
  1

  2

  4

  6

 40
0.0
 41
0.0
 42
0.0
 43
0.0
 44
0.0
 45
0.0
 46
0.0
 47
0.0
 48
0.0
 49
0.0
140
0.0
141
0.0
142
1.0
143
1.0
 70
  1712
 72
     0
 73
     0
 74
     0
  7

 75
     0
147
1.0
 76
     0
 77
     2
 78
   300
148
0.0
149
0.0
100
AcDbLayout
  1
Model
 70
     1
 71
     0
 10
0.0
 20
0.0
 11
12.0
 21
9.0
 12
0.0
 22
0.0
 32
0.0
 14
0.0
 24
0.0
 34
0.0
 15
0.0
 25
0.0
 35
0.0
146
0.0
 13
0.0
 23
0.0
 33
0.0
 16
1.0
 26
0.0
 36
0.0
 17
0.0
 27
1.0
 37
0.0
 76
     0
330
70
  0
MATERIAL
  5
19
102
{ACAD_XDICTIONARY
360
1A
102
}
102
{ACAD_REACTORS
330
10
102
}
330
10
100
AcDbMaterial
  1
ByBlock
 72
     0
 43
0.0208333333333333
 43
0.0
 43
0.0
 43
0.0
 43
0.0
 43
0.0208333333333333
 43
0.0
 43
0.0
 43
0.0
 43
0.0
 43
1.0
 43
0.0
 43
0.0
 43
0.0
 43
0.0
 43
1.0
 77
     0
 47
0.0208333333333333
 47
0.0
 47
0.0
 47
0.0
 47
0.0
 47
0.0208333333333333
 47
0.0
 47
0.0
 47
0.0
 47
0.0
 47
1.0
 47
0.0
 47
0.0
 47
0.0
 47
0.0
 47
1.0
171
     0
 49
0.0208333333333333
 49
0.0
 49
0.0
 49
0.0
 49
0.0
 49
0.0208333333333333
 49
0.0
 49
0.0
 49
0.0
 49
0.0
 49
1.0
 49
0.0
 49
0.0
 49
0.0
 49
0.0
 49
1.0
175
     0
142
0.0208333333333333
142
0.0
142
0.0
142
0.0
142
0.0
142
0.0208333333333333
142
0.0
142
0.0
142
0.0
142
0.0
142
1.0
142
0.0
142
0.0
142
0.0
142
0.0
142
1.0
179
     0
144
0.0208333333333333
144
0.0
144
0.0
144
0.0
144
0.0
144
0.0208333333333333
144
0.0
144
0.0
144
0.0
144
0.0
144
1.0
144
0.0
144
0.0
144
0.0
144
0.0
144
1.0
147
0.0208333333333333
147
0.0
147
0.0
147
0.0
147
0.0
147
0.0208333333333333
147
0.0
147
0.0
147
0.0
147
0.0
147
1.0
147
0.0
147
0.0
147
0.0
147
0.0
147
1.0
  0
MATERIAL
  5
11
102
{ACAD_XDICTIONARY
360
12
102
}
102
{ACAD_REACTORS
330
10
102
}
330
10
100
AcDbMaterial
  1
ByLayer
 72
     0
 43
0.0208333333333333
 43
0.0
 43
0.0
 43
0.0
 43
0.0
 43
0.0208333333333333
 43
0.0
 43
0.0
 43
0.0
 43
0.0
 43
1.0
 43
0.0
 43
0.0
 43
0.0
 43
0.0
 43
1.0
 77
     0
 47
0.0208333333333333
 47
0.0
 47
0.0
 47
0.0
 47
0.0
 47
0.0208333333333333
 47
0.0
 47
0.0
 47
0.0
 47
0.0
 47
1.0
 47
0.0
 47
0.0
 47
0.0
 47
0.0
 47
1.0
171
     0
 49
0.0208333333333333
 49
0.0
 49
0.0
 49
0.0
 49
0.0
 49
0.0208333333333333
 49
0.0
 49
0.0
 49
0.0
 49
0.0
 49
1.0
 49
0.0
 49
0.0
 49
0.0
 49
0.0
 49
1.0
175
     0
142
0.0208333333333333
142
0.0
142
0.0
142
0.0
142
0.0
142
0.0208333333333333
142
0.0
142
0.0
142
0.0
142
0.0
142
1.0
142
0.0
142
0.0
142
0.0
142
0.0
142
1.0
179
     0
144
0.0208333333333333
144
0.0
144
0.0
144
0.0
144
0.0
144
0.0208333333333333
144
0.0
144
0.0
144
0.0
144
0.0
144
1.0
144
0.0
144
0.0
144
0.0
144
0.0
144
1.0
147
0.0208333333333333
147
0.0
147
0.0
147
0.0
147
0.0
147
0.0208333333333333
147
0.0
147
0.0
147
0.0
147
0.0
147
1.0
147
0.0
147
0.0
147
0.0
147
0.0
147
1.0
  0
MATERIAL
  5
21
102
{ACAD_XDICTIONARY
360
22
102
}
102
{ACAD_REACTORS
330
10
102
}
330
10
100
AcDbMaterial
  1
Global
 72
     0
 43
0.0208333333333333
 43
0.0
 43
0.0
 43
0.0
 43
0.0
 43
0.0208333333333333
 43
0.0
 43
0.0
 43
0.0
 43
0.0
 43
1.0
 43
0.0
 43
0.0
 43
0.0
 43
0.0
 43
1.0
 77
     0
 47
0.0208333333333333
 47
0.0
 47
0.0
 47
0.0
 47
0.0
 47
0.0208333333333333
 47
0.0
 47
0.0
 47
0.0
 47
0.0
 47
1.0
 47
0.0
 47
0.0
 47
0.0
 47
0.0
 47
1.0
171
     0
 49
0.0208333333333333
 49
0.0
 49
0.0
 49
0.0
 49
0.0
 49
0.0208333333333333
 49
0.0
 49
0.0
 49
0.0
 49
0.0
 49
1.0
 49
0.0
 49
0.0
 49
0.0
 49
0.0
 49
1.0
175
     0
142
0.0208333333333333
142
0.0
142
0.0
142
0.0
142
0.0
142
0.0208333333333333
142
0.0
142
0.0
142
0.0
142
0.0
142
1.0
142
0.0
142
0.0
142
0.0
142
0.0
142
1.0
179
     0
144
0.0208333333333333
144
0.0
144
0.0
144
0.0
144
0.0
144
0.0208333333333333
144
0.0
144
0.0
144
0.0
144
0.0
144
1.0
144
0.0
144
0.0
144
0.0
144
0.0
144
1.0
147
0.0208333333333333
147
0.0
147
0.0
147
0.0
147
0.0
147
0.0208333333333333
147
0.0
147
0.0
147
0.0
147
0.0
147
1.0
147
0.0
147
0.0
147
0.0
147
0.0
147
1.0
  0
MLEADERSTYLE
  5
67
102
{ACAD_REACTORS
330
66
102
}
330
66
100
AcDbMLeaderStyle
179
     2
170
     2
171
     1
172
     0
 90
        2
 40
0.0
 41
0.0
173
     1
 91
-1056964608
340
5B
 92
       -2
290
     1
 42
0.09
291
     1
 43
0.36
  3
Standard
 44
0.18
300

342
55
174
     1
178
     6
175
     1
176
     0
 93
-1056964608
 45
0.18
292
     0
297
     0
 46
0.18
 94
-1056964608
 47
1.0
 49
1.0
140
1.0
293
     1
141
0.0
294
     1
177
     0
142
1.0
295
     1
296
     0
143
0.125
271
     0
272
     9
273
     9
298
     1
  0
MLINESTYLE
  5
60
102
{ACAD_REACTORS
330
5F
102
}
330
5F
100
AcDbMlineStyle
  2
STANDARD
 70
     0
  3

 62
   256
 51
90.0
 52
90.0
 71
     2
 49
0.5
 62
   256
  6
BYLAYER
 49
-0.5
 62
   256
  6
BYLAYER
  0
ACDBPLACEHOLDER
  5
F
102
{ACAD_REACTORS
330
E
102
}
330
E
  0
SCALE
  5
43
102
{ACAD_REACTORS
330
42
102
}
330
42
100
AcDbScale
 70
     0
300
1:1
140
1.0
141
1.0
290
     1
  0
SCALE
  5
44
102
{ACAD_REACTORS
330
42
102
}
330
42
100
AcDbScale
 70
     0
300
1/128" = 1'-0"
140
0.0078125
141
12.0
290
     0
  0
SCALE
  5
45
102
{ACAD_REACTORS
330
42
102
}
330
42
100
AcDbScale
 70
     0
300
1/64" = 1'-0"
140
0.015625
141
12.0
290
     0
  0
SCALE
  5
46
102
{ACAD_REACTORS
330
42
102
}
330
42
100
AcDbScale
 70
     0
300
1/32" = 1'-0"
140
0.03125
141
12.0
290
     0
  0
SCALE
  5
47
102
{ACAD_REACTORS
330
42
102
}
330
42
100
AcDbScale
 70
     0
300
1/16" = 1'-0"
140
0.0625
141
12.0
290
     0
  0
SCALE
  5
48
102
{ACAD_REACTORS
330
42
102
}
330
42
100
AcDbScale
 70
     0
300
3/32" = 1'-0"
140
0.09375
141
12.0
290
     0
  0
SCALE
  5
49
102
{ACAD_REACTORS
330
42
102
}
330
42
100
AcDbScale
 70
     0
300
1/8" = 1'-0"
140
0.125
141
12.0
290
     0
  0
SCALE
  5
4A
102
{ACAD_REACTORS
330
42
102
}
330
42
100
AcDbScale
 70
     0
300
3/16" = 1'-0"
140
0.1875
141
12.0
290
     0
  0
SCALE
  5
4B
102
{ACAD_REACTORS
330
42
102
}
330
42
100
AcDbScale
 70
     0
300
1/4" = 1'-0"
140
0.25
141
12.0
290
     0
  0
SCALE
  5
4C
102
{ACAD_REACTORS
330
42
102
}
330
42
100
AcDbScale
 70
     0
300
3/8" = 1'-0"
140
0.375
141
12.0
290
     0
  0
SCALE
  5
4D
102
{ACAD_REACTORS
330
42
102
}
330
42
100
AcDbScale
 70
     0
300
1/2" = 1'-0"
140
0.5
141
12.0
290
     0
  0
SCALE
  5
4E
102
{ACAD_REACTORS
330
42
102
}
330
42
100
AcDbScale
 70
     0
300
3/4" = 1'-0"
140
0.75
141
12.0
290
     0
  0
SCALE
  5
4F
102
{ACAD_REACTORS
330
42
102
}
330
42
100
AcDbScale
 70
     0
300
1" = 1'-0"
140
1.0
141
12.0
290
     0
  0
SCALE
  5
50
102
{ACAD_REACTORS
330
42
102
}
330
42
100
AcDbScale
 70
     0
300
1-1/2" = 1'-0"
140
1.5
141
12.0
290
     0
  0
SCALE
  5
51
102
{ACAD_REACTORS
330
42
102
}
330
42
100
AcDbScale
 70
     0
300
3" = 1'-0"
140
3.0
141
12.0
290
     0
  0
SCALE
  5
52
102
{ACAD_REACTORS
330
42
102
}
330
42
100
AcDbScale
 70
     0
300
6" = 1'-0"
140
6.0
141
12.0
290
     0
  0
SCALE
  5
53
102
{ACAD_REACTORS
330
42
102
}
330
42
100
AcDbScale
 70
     0
300
1'-0" = 1'-0"
140
12.0
141
12.0
290
     0
  0
ACDBSECTIONVIEWSTYLE
  5
69
102
{ACAD_REACTORS
330
68
102
}
330
68
100
AcDbModelDocViewStyle
 70
     0
  3
Imperial24
290
     1
300
Imperial24
 90
        0
100
AcDbSectionViewStyle
 70
     0
 71
     0
 90
       78
 71
     1
340
55
 62
   256
 40
0.24
340
0
340
0
 62
   256
 40
0.24
300
I, O, Q, S, X, Z
 40
0.48
 90
        3
 40
0.18
 90
        1
 71
     2
340
5D
 90
       25
 62
   256
340
5D
 90
       50
 62
   256
 40
0.24
 40
0.0
 40
0.24
 71
     3
340
55
 62
   256
 40
0.24
 90
        1
 40
0.75
 90
        1
300
%<\AcVar ViewType \f "%tc1">% %<\AcVar ViewSectionStartId>%-%<\AcVar ViewSectionEndId>%\PSCALE %<\AcVar ViewScale \f "%sn">%
 71
     4
 62
   256
 62
   257
300
ANSI31
 40
1.0
 90
        0
290
     0
290
     0
 90
        6
 40
0.0
 40
1.570796326794896
 40
0.2617993877991494
 40
1.308996938995747
 40
-0.2617993877991494
 40
1.832595714594046
  0
TABLESTYLE
  5
65
102
{ACAD_XDICTIONARY
360
D1
102
}
102
{ACAD_REACTORS
330
64
102
}
330
64
100
AcDbTableStyle
280
     0
  3
Standard
 70
     0
 71
     0
 40
0.06
 41
0.06
280
     0
281
     0
  7
Standard
140
0.18
170
     2
 62
     0
 63
     7
283
     0
 90
      512
 91
        0
  1

274
    -2
284
     1
 64
     0
275
    -2
285
     1
 65
     0
276
    -2
286
     1
 66
     0
277
    -2
287
     1
 67
     0
278
    -2
288
     1
 68
     0
279
    -2
289
     1
 69
     0
  7
Standard
140
0.25
170
     5
 62
     0
 63
     7
283
     0
 90
      512
 91
        0
  1

274
    -2
284
     1
 64
     0
275
    -2
285
     1
 65
     0
276
    -2
286
     1
 66
     0
277
    -2
287
     1
 67
     0
278
    -2
288
     1
 68
     0
279
    -2
289
     1
 69
     0
  7
Standard
140
0.18
170
     5
 62
     0
 63
     7
283
     0
 90
      512
 91
        0
  1

274
    -2
284
     1
 64
     0
275
    -2
285
     1
 65
     0
276
    -2
286
     1
 66
     0
277
    -2
287
     1
 67
     0
278
    -2
288
     1
 68
     0
279
    -2
289
     1
 69
     0
  0
VISUALSTYLE
  5
2F
102
{ACAD_REACTORS
330
29
102
}
330
29
100
AcDbVisualStyle
  2
2dWireframe
 70
     4
177
     3
291
     0
 70
    58
 90
        0
176
     1
 90
        2
176
     1
 90
        0
176
     1
 90
        0
176
     1
 40
0.6
176
     1
 40
30.0
176
     1
 62
     7
420
 16777215
176
     1
 90
        1
176
     1
 90
        4
176
     1
 62
     7
176
     1
 62
   257
176
     1
 90
        1
176
     1
 90
        1
176
     1
 40
1.0
176
     1
 90
        0
176
     1
 62
   257
176
     1
 40
1.0
176
     1
 90
        1
176
     1
 90
        6
176
     1
 90
        2
176
     1
 62
     7
176
     1
 90
        5
176
     1
 90
        0
176
     1
 90
        0
176
     1
290
     0
176
     1
 90
        1
176
     1
 40
0.0
176
     1
 90
        0
176
     1
290
     1
176
     1
290
     1
176
     1
290
     0
176
     1
290
     0
176
     1
290
     0
176
     1
290
     0
176
     1
290
     0
176
     1
290
     0
176
     1
290
     0
176
     1
 90
       50
176
     1
 40
0.0
176
     1
 40
1.0
176
     1
 90
        0
176
     1
 62
    18
420
        0
176
     1
 90
       50
176
     1
 90
        3
176
     1
 62
     5
420
      255
176
     1
290
     0
176
     1
 90
       50
176
     1
 90
       50
176
     1
 90
       50
176
     1
290
     0
176
     1
 90
       50
176
     1
 62
   256
176
     0
 40
1.0
176
     0
 90
        2
176
     1
  1
strokes_ogs.tif
176
     1
290
     0
176
     1
 40
1.0
176
     1
 40
1.0
176
     1
  0
VISUALSTYLE
  5
2E
102
{ACAD_REACTORS
330
29
102
}
330
29
100
AcDbVisualStyle
  2
Basic
 70
     7
177
     3
291
     1
 70
    58
 90
        1
176
     1
 90
        0
176
     1
 90
        1
176
     1
 90
        0
176
     1
 40
0.6
176
     1
 40
30.0
176
     1
 62
     7
420
 16777215
176
     1
 90
        0
176
     1
 90
        4
176
     1
 62
     7
176
     1
 62
   257
176
     1
 90
        1
176
     1
 90
        1
176
     1
 40
1.0
176
     1
 90
        8
176
     1
 62
     7
176
     1
 40
1.0
176
     1
 90
        1
176
     1
 90
        6
176
     1
 90
        2
176
     1
 62
     7
176
     1
 90
        5
176
     1
 90
        0
176
     1
 90
        0
176
     1
290
     0
176
     1
 90
        1
176
     1
 40
0.0
176
     1
 90
        0
176
     1
290
     0
176
     1
290
     1
176
     1
290
     1
176
     1
290
     0
176
     1
290
     0
176
     1
290
     0
176
     1
290
     0
176
     1
290
     0
176
     1
290
     0
176
     1
 90
       50
176
     1
 40
0.0
176
     1
 40
1.0
176
     1
 90
        0
176
     1
 62
    18
420
        0
176
     1
 90
       50
176
     1
 90
        3
176
     1
 62
     5
420
      255
176
     1
290
     0
176
     1
 90
       50
176
     1
 90
       50
176
     1
 90
       50
176
     1
290
     0
176
     1
 90
       50
176
     1
 62
   256
176
     0
 40
1.0
176
     0
 90
        2
176
     1
  1
strokes_ogs.tif
176
     1
290
     0
176
     1
 40
1.0
176
     1
 40
1.0
176
     1
  0
VISUALSTYLE
  5
35
102
{ACAD_REACTORS
330
29
102
}
330
29
100
AcDbVisualStyle
  2
Brighten
 70
    12
177
     3
291
     1
 70
    58
 90
        2
176
     1
 90
        2
176
     1
 90
        0
176
     1
 90
        0
176
     1
 40
0.6
176
     1
 40
30.0
176
     1
 62
     7
420
 16777215
176
     1
 90
        1
176
     1
 90
        4
176
     1
 62
     7
176
     1
 62
   257
176
     1
 90
        1
176
     1
 90
        1
176
     1
 40
1.0
176
     1
 90
        8
176
     1
 62
     7
176
     1
 40
1.0
176
     1
 90
        1
176
     1
 90
        6
176
     1
 90
        2
176
     1
 62
     7
176
     1
 90
        5
176
     1
 90
        0
176
     1
 90
        0
176
     1
290
     0
176
     1
 90
        1
176
     1
 40
50.0
176
     1
 90
        0
176
     1
290
     0
176
     1
290
     1
176
     1
290
     1
176
     1
290
     0
176
     1
290
     0
176
     1
290
     0
176
     1
290
     0
176
     1
290
     0
176
     1
290
     0
176
     1
 90
       50
176
     1
 40
0.0
176
     1
 40
1.0
176
     1
 90
        0
176
     1
 62
    18
420
        0
176
     1
 90
       50
176
     1
 90
        3
176
     1
 62
     5
420
      255
176
     1
290
     0
176
     1
 90
       50
176
     1
 90
       50
176
     1
 90
       50
176
     1
290
     0
176
     1
 90
       50
176
     1
 62
   256
176
     0
 40
1.0
176
     0
 90
        2
176
     1
  1
strokes_ogs.tif
176
     1
290
     0
176
     1
 40
1.0
176
     1
 40
1.0
176
     1
  0
VISUALSTYLE
  5
39
102
{ACAD_REACTORS
330
29
102
}
330
29
100
AcDbVisualStyle
  2
ColorChange
 70
    16
177
     3
291
     1
 70
    58
 90
        2
176
     1
 90
        2
176
     1
 90
        3
176
     1
 90
        0
176
     1
 40
0.6
176
     1
 40
30.0
176
     1
 62
     8
420
  8421504
176
     1
 90
        1
176
     1
 90
        4
176
     1
 62
     7
176
     1
 62
   257
176
     1
 90
        1
176
     1
 90
        1
176
     1
 40
1.0
176
     1
 90
        8
176
     1
 62
     8
420
  8421504
176
     1
 40
1.0
176
     1
 90
        1
176
     1
 90
        6
176
     1
 90
        2
176
     1
 62
     7
176
     1
 90
        5
176
     1
 90
        0
176
     1
 90
        0
176
     1
290
     0
176
     1
 90
        1
176
     1
 40
0.0
176
     1
 90
        0
176
     1
290
     0
176
     1
290
     1
176
     1
290
     1
176
     1
290
     0
176
     1
290
     0
176
     1
290
     0
176
     1
290
     0
176
     1
290
     0
176
     1
290
     0
176
     1
 90
       50
176
     1
 40
0.0
176
     1
 40
1.0
176
     1
 90
        0
176
     1
 62
    18
420
        0
176
     1
 90
       50
176
     1
 90
        3
176
     1
 62
     5
420
      255
176
     1
290
     0
176
     1
 90
       50
176
     1
 90
       50
176
     1
 90
       50
176
     1
290
     0
176
     1
 90
       50
176
     1
 62
   256
176
     0
 40
1.0
176
     0
 90
        2
176
     1
  1
strokes_ogs.tif
176
     1
290
     0
176
     1
 40
1.0
176
     1
 40
1.0
176
     1
  0
VISUALSTYLE
  5
32
102
{ACAD_REACTORS
330
29
102
}
330
29
100
AcDbVisualStyle
  2
Conceptual
 70
     9
177
     3
291
     0
 70
    58
 90
        3
176
     1
 90
        2
176
     1
 90
        0
176
     1
 90
        0
176
     1
 40
0.6
176
     1
 40
30.0
176
     1
 62
     7
420
 16777215
176
     1
 90
        2
176
     1
 90
        2
176
     1
 62
     7
176
     1
 62
   257
176
     1
 90
        1
176
     1
 90
        1
176
     1
 40
179.0
176
     1
 90
        8
176
     1
 62
     7
176
     1
 40
1.0
176
     1
 90
        1
176
     1
 90
        6
176
     1
 90
        2
176
     1
 62
     7
176
     1
 90
        3
176
     1
 90
        0
176
     1
 90
        0
176
     1
290
     0
176
     1
 90
        1
176
     1
 40
0.0
176
     1
 90
        0
176
     1
290
     0
176
     1
290
     1
176
     1
290
     1
176
     1
290
     0
176
     1
290
     0
176
     1
290
     0
176
     1
290
     0
176
     1
290
     0
176
     1
290
     0
176
     1
 90
       50
176
     1
 40
0.0
176
     1
 40
1.0
176
     1
 90
        0
176
     1
 62
    18
420
        0
176
     1
 90
       50
176
     1
 90
        3
176
     1
 62
     5
420
      255
176
     1
290
     0
176
     1
 90
       50
176
     1
 90
       50
176
     1
 90
       50
176
     1
290
     0
176
     1
 90
       50
176
     1
 62
   256
176
     0
 40
1.0
176
     0
 90
        2
176
     1
  1
strokes_ogs.tif
176
     1
290
     0
176
     1
 40
1.0
176
     1
 40
1.0
176
     1
  0
VISUALSTYLE
  5
34
102
{ACAD_REACTORS
330
29
102
}
330
29
100
AcDbVisualStyle
  2
Dim
 70
    11
177
     3
291
     1
 70
    58
 90
        2
176
     1
 90
        2
176
     1
 90
        0
176
     1
 90
        0
176
     1
 40
0.6
176
     1
 40
30.0
176
     1
 62
     7
420
 16777215
176
     1
 90
        1
176
     1
 90
        4
176
     1
 62
     7
176
     1
 62
   257
176
     1
 90
        1
176
     1
 90
        1
176
     1
 40
1.0
176
     1
 90
        8
176
     1
 62
     7
176
     1
 40
1.0
176
     1
 90
        1
176
     1
 90
        6
176
     1
 90
        2
176
     1
 62
     7
176
     1
 90
        5
176
     1
 90
        0
176
     1
 90
        0
176
     1
290
     0
176
     1
 90
        1
176
     1
 40
-50.0
176
     1
 90
        0
176
     1
290
     0
176
     1
290
     1
176
     1
290
     1
176
     1
290
     0
176
     1
290
     0
176
     1
290
     0
176
     1
290
     0
176
     1
290
     0
176
     1
290
     0
176
     1
 90
       50
176
     1
 40
0.0
176
     1
 40
1.0
176
     1
 90
        0
176
     1
 62
    18
420
        0
176
     1
 90
       50
176
     1
 90
        3
176
     1
 62
     5
420
      255
176
     1
290
     0
176
     1
 90
       50
176
     1
 90
       50
176
     1
 90
       50
176
     1
290
     0
176
     1
 90
       50
176
     1
 62
   256
176
     0
 40
1.0
176
     0
 90
        2
176
     1
  1
strokes_ogs.tif
176
     1
290
     0
176
     1
 40
1.0
176
     1
 40
1.0
176
     1
  0
VISUALSTYLE
  5
41
102
{ACAD_REACTORS
330
29
102
}
330
29
100
AcDbVisualStyle
  2
EdgeColorOff
 70
    22
177
     3
291
     1
 70
    58
 90
        2
176
     0
 90
        2
176
     0
 90
        0
176
     0
 90
        0
176
     0
 40
0.6
176
     0
 40
30.0
176
     0
 62
     7
420
 16777215
176
     0
 90
        1
176
     0
 90
        4
176
     0
 62
     7
176
     0
 62
   257
176
     0
 90
        1
176
     0
 90
        1
176
     0
 40
1.0
176
     0
 90
        8
176
     2
 62
     7
176
     0
 40
1.0
176
     0
 90
        1
176
     0
 90
        6
176
     0
 90
        2
176
     0
 62
     7
176
     0
 90
        5
176
     0
 90
        0
176
     0
 90
        0
176
     0
290
     0
176
     0
 90
        1
176
     0
 40
0.0
176
     0
 90
        0
176
     0
290
     0
176
     0
290
     1
176
     0
290
     1
176
     0
290
     0
176
     0
290
     0
176
     0
290
     0
176
     0
290
     0
176
     0
290
     0
176
     0
290
     0
176
     0
 90
       50
176
     0
 40
0.0
176
     0
 40
1.0
176
     0
 90
        0
176
     0
 62
    18
420
        0
176
     0
 90
       50
176
     0
 90
        3
176
     0
 62
     5
420
      255
176
     0
290
     0
176
     0
 90
       50
176
     0
 90
       50
176
     0
 90
       50
176
     0
290
     0
176
     0
 90
       50
176
     0
 62
   256
176
     0
 40
1.0
176
     0
 90
        2
176
     0
  1
strokes_ogs.tif
176
     0
290
     0
176
     0
 40
1.0
176
     0
 40
1.0
176
     0
  0
VISUALSTYLE
  5
38
102
{ACAD_REACTORS
330
29
102
}
330
29
100
AcDbVisualStyle
  2
Facepattern
 70
    15
177
     3
291
     1
 70
    58
 90
        2
176
     1
 90
        2
176
     1
 90
        0
176
     1
 90
        0
176
     1
 40
0.6
176
     1
 40
30.0
176
     1
 62
     7
420
 16777215
176
     1
 90
        1
176
     1
 90
        4
176
     1
 62
     7
176
     1
 62
   257
176
     1
 90
        1
176
     1
 90
        1
176
     1
 40
1.0
176
     1
 90
        8
176
     1
 62
     7
176
     1
 40
1.0
176
     1
 90
        1
176
     1
 90
        6
176
     1
 90
        2
176
     1
 62
     7
176
     1
 90
        5
176
     1
 90
        0
176
     1
 90
        0
176
     1
290
     0
176
     1
 90
        1
176
     1
 40
0.0
176
     1
 90
        0
176
     1
290
     0
176
     1
290
     1
176
     1
290
     1
176
     1
290
     0
176
     1
290
     0
176
     1
290
     0
176
     1
290
     0
176
     1
290
     0
176
     1
290
     0
176
     1
 90
       50
176
     1
 40
0.0
176
     1
 40
1.0
176
     1
 90
        0
176
     1
 62
    18
420
        0
176
     1
 90
       50
176
     1
 90
        3
176
     1
 62
     5
420
      255
176
     1
290
     0
176
     1
 90
       50
176
     1
 90
       50
176
     1
 90
       50
176
     1
290
     0
176
     1
 90
       50
176
     1
 62
   256
176
     0
 40
1.0
176
     0
 90
        2
176
     1
  1
strokes_ogs.tif
176
     1
290
     0
176
     1
 40
1.0
176
     1
 40
1.0
176
     1
  0
VISUALSTYLE
  5
2A
102
{ACAD_REACTORS
330
29
102
}
330
29
100
AcDbVisualStyle
  2
Flat
 70
     0
177
     3
291
     1
 70
    58
 90
        2
176
     1
 90
        1
176
     1
 90
        1
176
     1
 90
        2
176
     1
 40
0.6
176
     1
 40
30.0
176
     1
 62
     7
420
 16777215
176
     1
 90
        0
176
     1
 90
        0
176
     1
 62
     7
176
     1
 62
   257
176
     1
 90
        1
176
     1
 90
        1
176
     1
 40
1.0
176
     1
 90
        8
176
     1
 62
     7
176
     1
 40
1.0
176
     1
 90
        1
176
     1
 90
        6
176
     1
 90
        2
176
     1
 62
     7
176
     1
 90
        5
176
     1
 90
        0
176
     1
 90
        0
176
     1
290
     0
176
     1
 90
       13
176
     1
 40
0.0
176
     1
 90
        0
176
     1
290
     0
176
     1
290
     1
176
     1
290
     1
176
     1
290
     0
176
     1
290
     0
176
     1
290
     0
176
     1
290
     0
176
     1
290
     0
176
     1
290
     0
176
     1
 90
       50
176
     1
 40
0.0
176
     1
 40
1.0
176
     1
 90
        0
176
     1
 62
    18
420
        0
176
     1
 90
       50
176
     1
 90
        3
176
     1
 62
     5
420
      255
176
     1
290
     0
176
     1
 90
       50
176
     1
 90
       50
176
     1
 90
       50
176
     1
290
     0
176
     1
 90
       50
176
     1
 62
   256
176
     0
 40
1.0
176
     0
 90
        2
176
     1
  1
strokes_ogs.tif
176
     1
290
     0
176
     1
 40
1.0
176
     1
 40
1.0
176
     1
  0
VISUALSTYLE
  5
2B
102
{ACAD_REACTORS
330
29
102
}
330
29
100
AcDbVisualStyle
  2
FlatWithEdges
 70
     1
177
     3
291
     1
 70
    58
 90
        2
176
     1
 90
        1
176
     1
 90
        1
176
     1
 90
        2
176
     1
 40
0.6
176
     1
 40
30.0
176
     1
 62
     7
420
 16777215
176
     1
 90
        1
176
     1
 90
        0
176
     1
 62
     7
176
     1
 62
   257
176
     1
 90
        1
176
     1
 90
        1
176
     1
 40
1.0
176
     1
 90
        0
176
     1
 62
   257
176
     1
 40
1.0
176
     1
 90
        1
176
     1
 90
        6
176
     1
 90
        2
176
     1
 62
     7
176
     1
 90
        5
176
     1
 90
        0
176
     1
 90
        0
176
     1
290
     0
176
     1
 90
       13
176
     1
 40
0.0
176
     1
 90
        0
176
     1
290
     0
176
     1
290
     1
176
     1
290
     1
176
     1
290
     0
176
     1
290
     0
176
     1
290
     0
176
     1
290
     0
176
     1
290
     0
176
     1
290
     0
176
     1
 90
       50
176
     1
 40
0.0
176
     1
 40
1.0
176
     1
 90
        0
176
     1
 62
    18
420
        0
176
     1
 90
       50
176
     1
 90
        3
176
     1
 62
     5
420
      255
176
     1
290
     0
176
     1
 90
       50
176
     1
 90
       50
176
     1
 90
       50
176
     1
290
     0
176
     1
 90
       50
176
     1
 62
   256
176
     0
 40
1.0
176
     0
 90
        2
176
     1
  1
strokes_ogs.tif
176
     1
290
     0
176
     1
 40
1.0
176
     1
 40
1.0
176
     1
  0
VISUALSTYLE
  5
2C
102
{ACAD_REACTORS
330
29
102
}
330
29
100
AcDbVisualStyle
  2
Gouraud
 70
     2
177
     3
291
     1
 70
    58
 90
        2
176
     1
 90
        2
176
     1
 90
        1
176
     1
 90
        2
176
     1
 40
0.6
176
     1
 40
30.0
176
     1
 62
     7
420
 16777215
176
     1
 90
        0
176
     1
 90
        0
176
     1
 62
     7
176
     1
 62
   257
176
     1
 90
        1
176
     1
 90
        1
176
     1
 40
1.0
176
     1
 90
        0
176
     1
 62
     7
176
     1
 40
1.0
176
     1
 90
        1
176
     1
 90
        6
176
     1
 90
        2
176
     1
 62
     7
176
     1
 90
        5
176
     1
 90
        0
176
     1
 90
        0
176
     1
290
     0
176
     1
 90
       13
176
     1
 40
0.0
176
     1
 90
        0
176
     1
290
     0
176
     1
290
     1
176
     1
290
     1
176
     1
290
     0
176
     1
290
     0
176
     1
290
     0
176
     1
290
     0
176
     1
290
     0
176
     1
290
     0
176
     1
 90
       50
176
     1
 40
0.0
176
     1
 40
1.0
176
     1
 90
        0
176
     1
 62
    18
420
        0
176
     1
 90
       50
176
     1
 90
        3
176
     1
 62
     5
420
      255
176
     1
290
     0
176
     1
 90
       50
176
     1
 90
       50
176
     1
 90
       50
176
     1
290
     0
176
     1
 90
       50
176
     1
 62
   256
176
     0
 40
1.0
176
     0
 90
        2
176
     1
  1
strokes_ogs.tif
176
     1
290
     0
176
     1
 40
1.0
176
     1
 40
1.0
176
     1
  0
VISUALSTYLE
  5
2D
102
{ACAD_REACTORS
330
29
102
}
330
29
100
AcDbVisualStyle
  2
GouraudWithEdges
 70
     3
177
     3
291
     1
 70
    58
 90
        2
176
     1
 90
        2
176
     1
 90
        1
176
     1
 90
        2
176
     1
 40
0.6
176
     1
 40
30.0
176
     1
 62
     7
420
 16777215
176
     1
 90
        1
176
     1
 90
        0
176
     1
 62
     7
176
     1
 62
   257
176
     1
 90
        1
176
     1
 90
        1
176
     1
 40
1.0
176
     1
 90
        0
176
     1
 62
   257
176
     1
 40
1.0
176
     1
 90
        1
176
     1
 90
        6
176
     1
 90
        2
176
     1
 62
     7
176
     1
 90
        5
176
     1
 90
        0
176
     1
 90
        0
176
     1
290
     0
176
     1
 90
       13
176
     1
 40
0.0
176
     1
 90
        0
176
     1
290
     0
176
     1
290
     1
176
     1
290
     1
176
     1
290
     0
176
     1
290
     0
176
     1
290
     0
176
     1
290
     0
176
     1
290
     0
176
     1
290
     0
176
     1
 90
       50
176
     1
 40
0.0
176
     1
 40
1.0
176
     1
 90
        0
176
     1
 62
    18
420
        0
176
     1
 90
       50
176
     1
 90
        3
176
     1
 62
     5
420
      255
176
     1
290
     0
176
     1
 90
       50
176
     1
 90
       50
176
     1
 90
       50
176
     1
290
     0
176
     1
 90
       50
176
     1
 62
   256
176
     0
 40
1.0
176
     0
 90
        2
176
     1
  1
strokes_ogs.tif
176
     1
290
     0
176
     1
 40
1.0
176
     1
 40
1.0
176
     1
  0
VISUALSTYLE
  5
31
102
{ACAD_REACTORS
330
29
102
}
330
29
100
AcDbVisualStyle
  2
Hidden
 70
     6
177
     3
291
     0
 70
    58
 90
        1
176
     1
 90
        2
176
     1
 90
        2
176
     1
 90
        0
176
     1
 40
0.6
176
     1
 40
30.0
176
     1
 62
     7
420
 16777215
176
     1
 90
        2
176
     1
 90
        2
176
     1
 62
     7
176
     1
 62
   257
176
     1
 90
        2
176
     1
 90
        1
176
     1
 40
40.0
176
     1
 90
        0
176
     1
 62
   257
176
     1
 40
1.0
176
     1
 90
        1
176
     1
 90
        6
176
     1
 90
        2
176
     1
 62
     7
176
     1
 90
        3
176
     1
 90
        0
176
     1
 90
        0
176
     1
290
     0
176
     1
 90
        1
176
     1
 40
0.0
176
     1
 90
        0
176
     1
290
     0
176
     1
290
     1
176
     1
290
     1
176
     1
290
     0
176
     1
290
     0
176
     1
290
     0
176
     1
290
     0
176
     1
290
     0
176
     1
290
     0
176
     1
 90
       50
176
     1
 40
0.0
176
     1
 40
1.0
176
     1
 90
        0
176
     1
 62
    18
420
        0
176
     1
 90
       50
176
     1
 90
        3
176
     1
 62
     5
420
      255
176
     1
290
     0
176
     1
 90
       50
176
     1
 90
       50
176
     1
 90
       50
176
     1
290
     0
176
     1
 90
       50
176
     1
 62
   256
176
     0
 40
1.0
176
     0
 90
        2
176
     1
  1
strokes_ogs.tif
176
     1
290
     0
176
     1
 40
1.0
176
     1
 40
1.0
176
     1
  0
VISUALSTYLE
  5
3F
102
{ACAD_REACTORS
330
29
102
}
330
29
100
AcDbVisualStyle
  2
JitterOff
 70
    20
177
     3
291
     1
 70
    58
 90
        2
176
     0
 90
        2
176
     0
 90
        0
176
     0
 90
        0
176
     0
 40
0.6
176
     0
 40
30.0
176
     0
 62
     7
420
 16777215
176
     0
 90
        1
176
     0
 90
        4
176
     0
 62
     7
176
     0
 62
   257
176
     0
 90
        1
176
     0
 90
        1
176
     0
 40
1.0
176
     0
 90
       10
176
     2
 62
     7
176
     0
 40
1.0
176
     0
 90
        1
176
     0
 90
        6
176
     0
 90
        2
176
     0
 62
     7
176
     0
 90
        5
176
     0
 90
        0
176
     0
 90
        0
176
     0
290
     0
176
     0
 90
        1
176
     0
 40
0.0
176
     0
 90
        0
176
     0
290
     0
176
     0
290
     1
176
     0
290
     1
176
     0
290
     0
176
     0
290
     0
176
     0
290
     0
176
     0
290
     0
176
     0
290
     0
176
     0
290
     0
176
     0
 90
       50
176
     0
 40
0.0
176
     0
 40
1.0
176
     0
 90
        0
176
     0
 62
    18
420
        0
176
     0
 90
       50
176
     0
 90
        3
176
     0
 62
     5
420
      255
176
     0
290
     0
176
     0
 90
       50
176
     0
 90
       50
176
     0
 90
       50
176
     0
290
     0
176
     0
 90
       50
176
     0
 62
   256
176
     0
 40
1.0
176
     0
 90
        2
176
     0
  1
strokes_ogs.tif
176
     0
290
     0
176
     0
 40
1.0
176
     0
 40
1.0
176
     0
  0
VISUALSTYLE
  5
37
102
{ACAD_REACTORS
330
29
102
}
330
29
100
AcDbVisualStyle
  2
Linepattern
 70
    14
177
     3
291
     1
 70
    58
 90
        2
176
     1
 90
        2
176
     1
 90
        0
176
     1
 90
        0
176
     1
 40
0.6
176
     1
 40
30.0
176
     1
 62
     7
420
 16777215
176
     1
 90
        1
176
     1
 90
        4
176
     1
 62
     7
176
     1
 62
   257
176
     1
 90
        7
176
     1
 90
        7
176
     1
 40
1.0
176
     1
 90
        8
176
     1
 62
     7
176
     1
 40
1.0
176
     1
 90
        1
176
     1
 90
        6
176
     1
 90
        2
176
     1
 62
     7
176
     1
 90
        5
176
     1
 90
        0
176
     1
 90
        0
176
     1
290
     0
176
     1
 90
        1
176
     1
 40
0.0
176
     1
 90
        0
176
     1
290
     0
176
     1
290
     1
176
     1
290
     1
176
     1
290
     0
176
     1
290
     0
176
     1
290
     0
176
     1
290
     0
176
     1
290
     0
176
     1
290
     0
176
     1
 90
       50
176
     1
 40
0.0
176
     1
 40
1.0
176
     1
 90
        0
176
     1
 62
    18
420
        0
176
     1
 90
       50
176
     1
 90
        3
176
     1
 62
     5
420
      255
176
     1
290
     0
176
     1
 90
       50
176
     1
 90
       50
176
     1
 90
       50
176
     1
290
     0
176
     1
 90
       50
176
     1
 62
   256
176
     0
 40
1.0
176
     0
 90
        2
176
     1
  1
strokes_ogs.tif
176
     1
290
     0
176
     1
 40
1.0
176
     1
 40
1.0
176
     1
  0
VISUALSTYLE
  5
40
102
{ACAD_REACTORS
330
29
102
}
330
29
100
AcDbVisualStyle
  2
OverhangOff
 70
    21
177
     3
291
     1
 70
    58
 90
        2
176
     0
 90
        2
176
     0
 90
        0
176
     0
 90
        0
176
     0
 40
0.6
176
     0
 40
30.0
176
     0
 62
     7
420
 16777215
176
     0
 90
        1
176
     0
 90
        4
176
     0
 62
     7
176
     0
 62
   257
176
     0
 90
        1
176
     0
 90
        1
176
     0
 40
1.0
176
     0
 90
        9
176
     2
 62
     7
176
     0
 40
1.0
176
     0
 90
        1
176
     0
 90
        6
176
     0
 90
        2
176
     0
 62
     7
176
     0
 90
        5
176
     0
 90
        0
176
     0
 90
        0
176
     0
290
     0
176
     0
 90
        1
176
     0
 40
0.0
176
     0
 90
        0
176
     0
290
     0
176
     0
290
     1
176
     0
290
     1
176
     0
290
     0
176
     0
290
     0
176
     0
290
     0
176
     0
290
     0
176
     0
290
     0
176
     0
290
     0
176
     0
 90
       50
176
     0
 40
0.0
176
     0
 40
1.0
176
     0
 90
        0
176
     0
 62
    18
420
        0
176
     0
 90
       50
176
     0
 90
        3
176
     0
 62
     5
420
      255
176
     0
290
     0
176
     0
 90
       50
176
     0
 90
       50
176
     0
 90
       50
176
     0
290
     0
176
     0
 90
       50
176
     0
 62
   256
176
     0
 40
1.0
176
     0
 90
        2
176
     0
  1
strokes_ogs.tif
176
     0
290
     0
176
     0
 40
1.0
176
     0
 40
1.0
176
     0
  0
VISUALSTYLE
  5
33
102
{ACAD_REACTORS
330
29
102
}
330
29
100
AcDbVisualStyle
  2
Realistic
 70
     8
177
     3
291
     0
 70
    58
 90
        2
176
     1
 90
        3
176
     1
 90
        0
176
     1
 90
        2
176
     1
 40
0.6
176
     1
 40
30.0
176
     1
 62
     7
420
 16777215
176
     1
 90
        0
176
     1
 90
        0
176
     1
 62
     7
176
     1
 62
   257
176
     1
 90
        1
176
     1
 90
        1
176
     1
 40
1.0
176
     1
 90
        8
176
     1
 62
   257
176
     1
 40
1.0
176
     1
 90
        1
176
     1
 90
        6
176
     1
 90
        2
176
     1
 62
     7
176
     1
 90
        3
176
     1
 90
        0
176
     1
 90
        0
176
     1
290
     0
176
     1
 90
       13
176
     1
 40
0.0
176
     1
 90
        0
176
     1
290
     0
176
     1
290
     1
176
     1
290
     1
176
     1
290
     0
176
     1
290
     0
176
     1
290
     0
176
     1
290
     0
176
     1
290
     0
176
     1
290
     0
176
     1
 90
       50
176
     1
 40
0.0
176
     1
 40
1.0
176
     1
 90
        0
176
     1
 62
    18
420
        0
176
     1
 90
       50
176
     1
 90
        3
176
     1
 62
     5
420
      255
176
     1
290
     0
176
     1
 90
       50
176
     1
 90
       50
176
     1
 90
       50
176
     1
290
     0
176
     1
 90
       50
176
     1
 62
   256
176
     0
 40
1.0
176
     0
 90
        2
176
     1
  1
strokes_ogs.tif
176
     1
290
     0
176
     1
 40
1.0
176
     1
 40
1.0
176
     1
  0
VISUALSTYLE
  5
3E
102
{ACAD_REACTORS
330
29
102
}
330
29
100
AcDbVisualStyle
  2
Shaded
 70
    27
177
     3
291
     0
 70
    58
 90
        2
176
     1
 90
        2
176
     1
 90
        1
176
     1
 90
        2
176
     1
 40
0.6
176
     1
 40
30.0
176
     1
 62
     7
420
 16777215
176
     1
 90
        0
176
     1
 90
        4
176
     1
 62
     7
176
     1
 62
   257
176
     1
 90
        1
176
     1
 90
        1
176
     1
 40
1.0
176
     1
 90
        8
176
     1
 62
   257
176
     1
 40
1.0
176
     1
 90
        1
176
     1
 90
        6
176
     1
 90
        2
176
     1
 62
     8
420
  7895160
176
     1
 90
        3
176
     1
 90
        0
176
     1
 90
        0
176
     1
290
     0
176
     1
 90
        5
176
     1
 40
0.0
176
     1
 90
        0
176
     1
290
     0
176
     1
290
     1
176
     1
290
     1
176
     1
290
     0
176
     1
290
     0
176
     1
290
     0
176
     1
290
     0
176
     1
290
     0
176
     1
290
     0
176
     1
 90
       50
176
     1
 40
0.0
176
     1
 40
1.0
176
     1
 90
        0
176
     1
 62
    18
420
        0
176
     1
 90
       50
176
     1
 90
        3
176
     1
 62
     5
420
      255
176
     1
290
     0
176
     1
 90
       50
176
     1
 90
       50
176
     1
 90
       50
176
     1
290
     0
176
     1
 90
       50
176
     1
 62
   256
176
     0
 40
1.0
176
     0
 90
        2
176
     1
  1
strokes_ogs.tif
176
     1
290
     0
176
     1
 40
1.0
176
     1
 40
1.0
176
     1
  0
VISUALSTYLE
  5
3D
102
{ACAD_REACTORS
330
29
102
}
330
29
100
AcDbVisualStyle
  2
Shaded with edges
 70
    26
177
     3
291
     0
 70
    58
 90
        2
176
     1
 90
        2
176
     1
 90
        1
176
     1
 90
        2
176
     1
 40
0.6
176
     1
 40
30.0
176
     1
 62
     7
420
 16777215
176
     1
 90
        1
176
     1
 90
        2
176
     1
 62
     7
176
     1
 62
   257
176
     1
 90
        2
176
     1
 90
        1
176
     1
 40
1.0
176
     1
 90
        8
176
     1
 62
   257
176
     1
 40
1.0
176
     1
 90
        1
176
     1
 90
        6
176
     1
 90
        2
176
     1
 62
     7
176
     1
 90
        3
176
     1
 90
        0
176
     1
 90
        0
176
     1
290
     0
176
     1
 90
        5
176
     1
 40
0.0
176
     1
 90
        0
176
     1
290
     0
176
     1
290
     1
176
     1
290
     1
176
     1
290
     0
176
     1
290
     0
176
     1
290
     0
176
     1
290
     0
176
     1
290
     0
176
     1
290
     0
176
     1
 90
       50
176
     1
 40
0.0
176
     1
 40
1.0
176
     1
 90
        0
176
     1
 62
    18
420
        0
176
     1
 90
       50
176
     1
 90
        3
176
     1
 62
     5
420
      255
176
     1
290
     0
176
     1
 90
       50
176
     1
 90
       50
176
     1
 90
       50
176
     1
290
     0
176
     1
 90
       50
176
     1
 62
   256
176
     0
 40
1.0
176
     0
 90
        2
176
     1
  1
strokes_ogs.tif
176
     1
290
     0
176
     1
 40
1.0
176
     1
 40
1.0
176
     1
  0
VISUALSTYLE
  5
3A
102
{ACAD_REACTORS
330
29
102
}
330
29
100
AcDbVisualStyle
  2
Shades of Gray
 70
    23
177
     3
291
     0
 70
    58
 90
        2
176
     1
 90
        2
176
     1
 90
        3
176
     1
 90
        0
176
     1
 40
0.6
176
     1
 40
30.0
176
     1
 62
     7
420
 16777215
176
     1
 90
        2
176
     1
 90
        2
176
     1
 62
     7
176
     1
 62
     7
176
     1
 90
        1
176
     1
 90
        1
176
     1
 40
40.0
176
     1
 90
        8
176
     1
 62
     7
176
     1
 40
1.0
176
     1
 90
        1
176
     1
 90
        6
176
     1
 90
        2
176
     1
 62
     7
176
     1
 90
        3
176
     1
 90
        0
176
     1
 90
        0
176
     1
290
     0
176
     1
 90
        1
176
     1
 40
0.0
176
     1
 90
        0
176
     1
290
     0
176
     1
290
     1
176
     1
290
     1
176
     1
290
     0
176
     1
290
     0
176
     1
290
     0
176
     1
290
     0
176
     1
290
     0
176
     1
290
     0
176
     1
 90
       50
176
     1
 40
0.0
176
     1
 40
1.0
176
     1
 90
        0
176
     1
 62
    18
420
        0
176
     1
 90
       50
176
     1
 90
        3
176
     1
 62
     5
420
      255
176
     1
290
     0
176
     1
 90
       50
176
     1
 90
       50
176
     1
 90
       50
176
     1
290
     0
176
     1
 90
       50
176
     1
 62
   256
176
     0
 40
1.0
176
     0
 90
        2
176
     1
  1
strokes_ogs.tif
176
     1
290
     0
176
     1
 40
1.0
176
     1
 40
1.0
176
     1
  0
VISUALSTYLE
  5
3B
102
{ACAD_REACTORS
330
29
102
}
330
29
100
AcDbVisualStyle
  2
Sketchy
 70
    24
177
     3
291
     0
 70
    58
 90
        1
176
     1
 90
        2
176
     1
 90
        2
176
     1
 90
        0
176
     1
 40
0.6
176
     1
 40
30.0
176
     1
 62
     7
420
 16777215
176
     1
 90
        2
176
     1
 90
        2
176
     1
 62
     7
176
     1
 62
     7
176
     1
 90
        1
176
     1
 90
        1
176
     1
 40
40.0
176
     1
 90
       11
176
     1
 62
     7
176
     1
 40
1.0
176
     1
 90
        1
176
     1
 90
        6
176
     1
 90
        2
176
     1
 62
     7
176
     1
 90
        6
176
     1
 90
        0
176
     1
 90
        0
176
     1
290
     0
176
     1
 90
        1
176
     1
 40
0.0
176
     1
 90
        0
176
     1
290
     0
176
     1
290
     1
176
     1
290
     1
176
     1
290
     0
176
     1
290
     0
176
     1
290
     0
176
     1
290
     0
176
     1
290
     0
176
     1
290
     0
176
     1
 90
       50
176
     1
 40
0.0
176
     1
 40
1.0
176
     1
 90
        0
176
     1
 62
    18
420
        0
176
     1
 90
       50
176
     1
 90
        3
176
     1
 62
     5
420
      255
176
     1
290
     0
176
     1
 90
       50
176
     1
 90
       50
176
     1
 90
       50
176
     1
290
     0
176
     1
 90
       50
176
     1
 62
   256
176
     0
 40
1.0
176
     0
 90
        2
176
     1
  1
strokes_ogs.tif
176
     1
290
     0
176
     1
 40
1.0
176
     1
 40
1.0
176
     1
  0
VISUALSTYLE
  5
36
102
{ACAD_REACTORS
330
29
102
}
330
29
100
AcDbVisualStyle
  2
Thicken
 70
    13
177
     3
291
     1
 70
    58
 90
        2
176
     1
 90
        2
176
     1
 90
        0
176
     1
 90
        0
176
     1
 40
0.6
176
     1
 40
30.0
176
     1
 62
     7
420
 16777215
176
     1
 90
        1
176
     1
 90
        4
176
     1
 62
     7
176
     1
 62
   257
176
     1
 90
        1
176
     1
 90
        1
176
     1
 40
1.0
176
     1
 90
       12
176
     1
 62
     7
176
     1
 40
1.0
176
     1
 90
        1
176
     1
 90
        6
176
     1
 90
        2
176
     1
 62
     7
176
     1
 90
        5
176
     1
 90
        0
176
     1
 90
        0
176
     1
290
     0
176
     1
 90
        1
176
     1
 40
0.0
176
     1
 90
        0
176
     1
290
     0
176
     1
290
     1
176
     1
290
     1
176
     1
290
     0
176
     1
290
     0
176
     1
290
     0
176
     1
290
     0
176
     1
290
     0
176
     1
290
     0
176
     1
 90
       50
176
     1
 40
0.0
176
     1
 40
1.0
176
     1
 90
        0
176
     1
 62
    18
420
        0
176
     1
 90
       50
176
     1
 90
        3
176
     1
 62
     5
420
      255
176
     1
290
     0
176
     1
 90
       50
176
     1
 90
       50
176
     1
 90
       50
176
     1
290
     0
176
     1
 90
       50
176
     1
 62
   256
176
     0
 40
1.0
176
     0
 90
        2
176
     1
  1
strokes_ogs.tif
176
     1
290
     0
176
     1
 40
1.0
176
     1
 40
1.0
176
     1
  0
VISUALSTYLE
  5
30
102
{ACAD_REACTORS
330
29
102
}
330
29
100
AcDbVisualStyle
  2
Wireframe
 70
     5
177
     3
291
     0
 70
    58
 90
        0
176
     1
 90
        2
176
     1
 90
        0
176
     1
 90
        0
176
     1
 40
0.6
176
     1
 40
30.0
176
     1
 62
     7
420
 16777215
176
     1
 90
        1
176
     1
 90
        4
176
     1
 62
     7
176
     1
 62
   257
176
     1
 90
        1
176
     1
 90
        1
176
     1
 40
1.0
176
     1
 90
        0
176
     1
 62
   257
176
     1
 40
1.0
176
     1
 90
        1
176
     1
 90
        6
176
     1
 90
        2
176
     1
 62
     7
176
     1
 90
        3
176
     1
 90
        0
176
     1
 90
        0
176
     1
290
     0
176
     1
 90
        1
176
     1
 40
0.0
176
     1
 90
        0
176
     1
290
     0
176
     1
290
     1
176
     1
290
     1
176
     1
290
     0
176
     1
290
     0
176
     1
290
     0
176
     1
290
     0
176
     1
290
     0
176
     1
290
     0
176
     1
 90
       50
176
     1
 40
0.0
176
     1
 40
1.0
176
     1
 90
        0
176
     1
 62
    18
420
        0
176
     1
 90
       50
176
     1
 90
        3
176
     1
 62
     5
420
      255
176
     1
290
     0
176
     1
 90
       50
176
     1
 90
       50
176
     1
 90
       50
176
     1
290
     0
176
     1
 90
       50
176
     1
 62
   256
176
     0
 40
1.0
176
     0
 90
        2
176
     1
  1
strokes_ogs.tif
176
     1
290
     0
176
     1
 40
1.0
176
     1
 40
1.0
176
     1
  0
VISUALSTYLE
  5
3C
102
{ACAD_REACTORS
330
29
102
}
330
29
100
AcDbVisualStyle
  2
X-Ray
 70
    25
177
     3
291
     0
 70
    58
 90
        2
176
     1
 90
        2
176
     1
 90
        1
176
     1
 90
        1
176
     1
 40
0.5
176
     1
 40
30.0
176
     1
 62
     7
420
 16777215
176
     1
 90
        1
176
     1
 90
        0
176
     1
 62
     7
176
     1
 62
   257
176
     1
 90
        1
176
     1
 90
        1
176
     1
 40
1.0
176
     1
 90
        8
176
     1
 62
     7
176
     1
 40
1.0
176
     1
 90
        1
176
     1
 90
        6
176
     1
 90
        2
176
     1
 62
     7
176
     1
 90
        3
176
     1
 90
        0
176
     1
 90
        0
176
     1
290
     0
176
     1
 90
       13
176
     1
 40
0.0
176
     1
 90
        0
176
     1
290
     0
176
     1
290
     1
176
     1
290
     1
176
     1
290
     0
176
     1
290
     0
176
     1
290
     0
176
     1
290
     0
176
     1
290
     0
176
     1
290
     0
176
     1
 90
       50
176
     1
 40
0.0
176
     1
 40
1.0
176
     1
 90
        0
176
     1
 62
    18
420
        0
176
     1
 90
       50
176
     1
 90
        3
176
     1
 62
     5
420
      255
176
     1
290
     0
176
     1
 90
       50
176
     1
 90
       50
176
     1
 90
       50
176
     1
290
     0
176
     1
 90
       50
176
     1
 62
   256
176
     0
 40
1.0
176
     0
 90
        2
176
     1
  1
strokes_ogs.tif
176
     1
290
     0
176
     1
 40
1.0
176
     1
 40
1.0
176
     1
  0
DICTIONARYVAR
  5
D0
102
{ACAD_REACTORS
330
CB
102
}
330
CB
100
DictionaryVariables
280
     0
  1
1:1
  0
DICTIONARYVAR
  5
CD
102
{ACAD_REACTORS
330
CB
102
}
330
CB
100
DictionaryVariables
280
     0
  1
STANDARD
  0
DICTIONARYVAR
  5
CC
102
{ACAD_REACTORS
330
CB
102
}
330
CB
100
DictionaryVariables
280
     0
  1
STANDARD
  0
DICTIONARYVAR
  5
CE
102
{ACAD_REACTORS
330
CB
102
}
330
CB
100
DictionaryVariables
280
     0
  1
Imperial24
  0
DICTIONARYVAR
  5
CF
102
{ACAD_REACTORS
330
CB
102
}
330
CB
100
DictionaryVariables
280
     0
  1
Imperial24
  0
DICTIONARY
  5
1A
330
19
100
AcDbDictionary
280
     1
281
     1
  3
BUMPTILE
360
1C
  3
DIFFUSETILE
360
1B
  3
OPACITYTILE
360
1F
  3
REFLECTIONTILE
360
1E
  3
REFRACTIONTILE
360
20
  3
SPECULARTILE
360
1D
  0
DICTIONARY
  5
12
330
11
100
AcDbDictionary
280
     1
281
     1
  3
BUMPTILE
360
14
  3
DIFFUSETILE
360
13
  3
OPACITYTILE
360
17
  3
REFLECTIONTILE
360
16
  3
REFRACTIONTILE
360
18
  3
SPECULARTILE
360
15
  0
DICTIONARY
  5
22
330
21
100
AcDbDictionary
280
     1
281
     1
  3
BUMPTILE
360
24
  3
DIFFUSETILE
360
23
  3
OPACITYTILE
360
27
  3
REFLECTIONTILE
360
26
  3
REFRACTIONTILE
360
28
  3
SPECULARTILE
360
25
  0
DICTIONARY
  5
D1
330
65
100
AcDbDictionary
280
     1
281
     1
  3
ACAD_ROUNDTRIP_2008_TABLESTYLE_CELLSTYLEMAP
360
D2
  0
XRECORD
  5
1C
102
{ACAD_REACTORS
330
1A
102
}
330
1A
100
AcDbXrecord
280
     1
270
     1
271
     1
  0
XRECORD
  5
1B
102
{ACAD_REACTORS
330
1A
102
}
330
1A
100
AcDbXrecord
280
     1
270
     1
271
     1
  0
XRECORD
  5
1F
102
{ACAD_REACTORS
330
1A
102
}
330
1A
100
AcDbXrecord
280
     1
270
     1
271
     1
  0
XRECORD
  5
1E
102
{ACAD_REACTORS
330
1A
102
}
330
1A
100
AcDbXrecord
280
     1
270
     1
271
     1
  0
XRECORD
  5
20
102
{ACAD_REACTORS
330
1A
102
}
330
1A
100
AcDbXrecord
280
     1
270
     1
271
     1
  0
XRECORD
  5
1D
102
{ACAD_REACTORS
330
1A
102
}
330
1A
100
AcDbXrecord
280
     1
270
     1
271
     1
  0
XRECORD
  5
14
102
{ACAD_REACTORS
330
12
102
}
330
12
100
AcDbXrecord
280
     1
270
     1
271
     1
  0
XRECORD
  5
13
102
{ACAD_REACTORS
330
12
102
}
330
12
100
AcDbXrecord
280
     1
270
     1
271
     1
  0
XRECORD
  5
17
102
{ACAD_REACTORS
330
12
102
}
330
12
100
AcDbXrecord
280
     1
270
     1
271
     1
  0
XRECORD
  5
16
102
{ACAD_REACTORS
330
12
102
}
330
12
100
AcDbXrecord
280
     1
270
     1
271
     1
  0
XRECORD
  5
18
102
{ACAD_REACTORS
330
12
102
}
330
12
100
AcDbXrecord
280
     1
270
     1
271
     1
  0
XRECORD
  5
15
102
{ACAD_REACTORS
330
12
102
}
330
12
100
AcDbXrecord
280
     1
270
     1
271
     1
  0
XRECORD
  5
24
102
{ACAD_REACTORS
330
22
102
}
330
22
100
AcDbXrecord
280
     1
270
     1
271
     1
  0
XRECORD
  5
23
102
{ACAD_REACTORS
330
22
102
}
330
22
100
AcDbXrecord
280
     1
270
     1
271
     1
  0
XRECORD
  5
27
102
{ACAD_REACTORS
330
22
102
}
330
22
100
AcDbXrecord
280
     1
270
     1
271
     1
  0
XRECORD
  5
26
102
{ACAD_REACTORS
330
22
102
}
330
22
100
AcDbXrecord
280
     1
270
     1
271
     1
  0
XRECORD
  5
28
102
{ACAD_REACTORS
330
22
102
}
330
22
100
AcDbXrecord
280
     1
270
     1
271
     1
  0
XRECORD
  5
25
102
{ACAD_REACTORS
330
22
102
}
330
22
100
AcDbXrecord
280
     1
270
     1
271
     1
  0
CELLSTYLEMAP
  5
D2
102
{ACAD_REACTORS
330
D1
102
}
330
D1
100
AcDbCellStyleMap
 90
        3
300
CELLSTYLE
  1
TABLEFORMAT_BEGIN
 90
        5
170
     1
 91
        0
 92
    32768
 62
   257
 93
        1
300
CONTENTFORMAT
  1
CONTENTFORMAT_BEGIN
 90
        0
 91
        0
 92
      512
 93
        0
300

 40
0.0
140
1.0
 94
        5
 62
     0
340
55
144
0.25
309
CONTENTFORMAT_END
171
     0
 94
        0
309
TABLEFORMAT_END
  1
CELLSTYLE_BEGIN
 90
        1
 91
        1
300
_TITLE
309
CELLSTYLE_END
300
CELLSTYLE
  1
TABLEFORMAT_BEGIN
 90
        5
170
     1
 91
        0
 92
        0
 62
   257
 93
        1
300
CONTENTFORMAT
  1
CONTENTFORMAT_BEGIN
 90
        0
 91
        0
 92
      512
 93
        0
300

 40
0.0
140
1.0
 94
        5
 62
     0
340
55
144
0.18
309
CONTENTFORMAT_END
171
     0
 94
        0
309
TABLEFORMAT_END
  1
CELLSTYLE_BEGIN
 90
        2
 91
        1
300
_HEADER
309
CELLSTYLE_END
300
CELLSTYLE
  1
TABLEFORMAT_BEGIN
 90
        5
170
     1
 91
        0
 92
        0
 62
   257
 93
        1
300
CONTENTFORMAT
  1
CONTENTFORMAT_BEGIN
 90
        0
 91
        0
 92
      512
 93
        0
300

 40
0.0
140
1.0
 94
        2
 62
     0
340
55
144
0.18
309
CONTENTFORMAT_END
171
     0
 94
        0
309
TABLEFORMAT_END
  1
CELLSTYLE_BEGIN
 90
        3
 91
        2
300
_DATA
309
CELLSTYLE_END
  0
ENDSEC
  0
EOF
